<svg width="13" height="13" viewBox="0 0 13 13" fill="none" xmlns="http://www.w3.org/2000/svg">
<path d="M8.94873 5.58594C8.94873 5.30547 8.72138 5.07812 8.44092 5.07812H3.21045C2.92998 5.07812 2.70264 5.30547 2.70264 5.58594C2.70264 5.8664 2.92998 6.09375 3.21045 6.09375H8.44092C8.72138 6.09375 8.94873 5.8664 8.94873 5.58594Z" fill="#424242"/>
<path d="M3.21045 7.10938C2.92998 7.10938 2.70264 7.33672 2.70264 7.61719C2.70264 7.89765 2.92998 8.125 3.21045 8.125H6.38709C6.66756 8.125 6.89491 7.89765 6.89491 7.61719C6.89491 7.33672 6.66756 7.10938 6.38709 7.10938H3.21045Z" fill="#424242"/>
<path d="M4.40392 11.9844H2.70557C2.14555 11.9844 1.68994 11.5288 1.68994 10.9688V2.03125C1.68994 1.47123 2.14555 1.01562 2.70557 1.01562H8.94884C9.50886 1.01562 9.96447 1.47123 9.96447 2.03125V5.1543C9.96447 5.43476 10.1918 5.66211 10.4723 5.66211C10.7527 5.66211 10.9801 5.43476 10.9801 5.1543V2.03125C10.9801 0.911219 10.0689 0 8.94884 0H2.70557C1.58554 0 0.674316 0.911219 0.674316 2.03125V10.9688C0.674316 12.0888 1.58554 13 2.70557 13H4.40392C4.68438 13 4.91173 12.7727 4.91173 12.4922C4.91173 12.2117 4.68438 11.9844 4.40392 11.9844Z" fill="#424242"/>
<path d="M11.8795 7.35241C11.2855 6.75842 10.319 6.7584 9.72543 7.35201L6.93746 10.1338C6.87825 10.1929 6.83458 10.2657 6.81026 10.3457L6.20309 12.3446C6.14926 12.5218 6.19616 12.7142 6.3255 12.8468C6.42239 12.9461 6.55401 13 6.68902 13C6.73419 13 6.77979 12.994 6.82455 12.9815L8.87421 12.4138C8.95856 12.3904 9.03544 12.3457 9.09739 12.2838L11.8795 9.50691C12.4735 8.91292 12.4735 7.94645 11.8795 7.35241ZM8.47441 11.4707L7.44324 11.7563L7.74501 10.7628L9.62618 8.8858L10.3445 9.6041L8.47441 11.4707ZM11.1617 8.78846L11.0633 8.88664L10.3452 8.16847L10.4432 8.07061C10.6412 7.87262 10.9634 7.87262 11.1614 8.07061C11.3594 8.26861 11.3594 8.59076 11.1617 8.78846Z" fill="#424242"/>
<path d="M8.44092 3.04688H3.21045C2.92998 3.04688 2.70264 3.27422 2.70264 3.55469C2.70264 3.83515 2.92998 4.0625 3.21045 4.0625H8.44092C8.72138 4.0625 8.94873 3.83515 8.94873 3.55469C8.94873 3.27422 8.72138 3.04688 8.44092 3.04688Z" fill="#424242"/>
</svg>
