<svg width="25" height="25" viewBox="0 0 25 25" fill="none" xmlns="http://www.w3.org/2000/svg">
<circle cx="12.5" cy="12.5" r="12.5" fill="#3365FF"/>
<path d="M19.6043 11.0998V17.4803C19.6043 18.3197 18.9237 19.0001 18.0842 19H7.68018C8.51967 19.0001 9.20031 18.3197 9.20031 17.4803V11.0998C9.20017 10.2604 9.88066 9.57994 10.72 9.58008H18.0842C18.9237 9.57994 19.6043 10.2603 19.6043 11.0998Z" fill="white"/>
<path d="M17.7401 9.27045V9.58007H10.72C9.8806 9.57993 9.20011 10.2604 9.20025 11.0998V17.4803C9.20025 18.3196 8.51962 19.0001 7.68012 19H7.52013C6.68063 19.0001 6 18.3196 6 17.4803V7.51971C6 6.68021 6.68063 5.99986 7.52013 6H10.9302C11.357 6 11.7641 6.17942 12.0521 6.49436L13.0871 7.62684C13.1592 7.70557 13.261 7.7506 13.3678 7.7506H16.22C17.0595 7.75046 17.7401 8.43095 17.7401 9.27045V9.27045Z" fill="#999999"/>
<path d="M16.192 14.0392H14.6526V12.4998C14.6526 12.3615 14.5403 12.2492 14.402 12.2492C14.2635 12.2492 14.1514 12.3615 14.1514 12.4998V14.0392H12.6119C12.4735 14.0392 12.3613 14.1515 12.3613 14.2898C12.3613 14.4283 12.4735 14.5405 12.6119 14.5405H14.1514V16.0799C14.1514 16.2183 14.2635 16.3305 14.402 16.3305C14.5403 16.3305 14.6526 16.2183 14.6526 16.0799V14.5405H16.192C16.3303 14.5405 16.4426 14.4283 16.4426 14.2898C16.4426 14.1515 16.3303 14.0392 16.192 14.0392V14.0392Z" fill="#FFB600"/>
</svg>
