<svg width="14" height="13" viewBox="0 0 14 13" fill="none" xmlns="http://www.w3.org/2000/svg">
<path d="M13.6043 5.09979V11.4803C13.6043 12.3197 12.9237 13.0001 12.0842 13H1.68018C2.51968 13.0001 3.20031 12.3197 3.20031 11.4803V5.09979C3.20017 4.26043 3.88066 3.57994 4.72002 3.58008H12.0842C12.9237 3.57994 13.6043 4.26029 13.6043 5.09979Z" fill="#262525"/>
<path d="M11.7401 3.27045V3.58007H4.71996C3.8806 3.57993 3.20011 4.26043 3.20025 5.09979V11.4803C3.20025 12.3196 2.51962 13.0001 1.68012 13H1.52013C0.680633 13.0001 0 12.3196 0 11.4803V1.51971C0 0.680214 0.680633 -0.000139825 1.52013 2.15552e-08H4.93015C5.35696 2.15552e-08 5.76406 0.179423 6.05214 0.494358L7.08715 1.62684C7.15917 1.70557 7.26098 1.7506 7.36782 1.7506H10.22C11.0595 1.75046 11.7401 2.43095 11.7401 3.27045Z" fill="#999999"/>
<path d="M10.192 8.03924H8.65257V6.49981C8.65257 6.3615 8.54028 6.24921 8.40197 6.24921C8.26352 6.24921 8.15136 6.3615 8.15136 6.49981V8.03924H6.61193C6.47349 8.03924 6.36133 8.15154 6.36133 8.28985C6.36133 8.4283 6.47349 8.54045 6.61193 8.54045H8.15136V10.0799C8.15136 10.2183 8.26352 10.3305 8.40197 10.3305C8.54028 10.3305 8.65257 10.2183 8.65257 10.0799V8.54045H10.192C10.3303 8.54045 10.4426 8.4283 10.4426 8.28985C10.4426 8.15154 10.3303 8.03924 10.192 8.03924Z" fill="#FFB600"/>
</svg>
