<svg width="23" height="20" viewBox="0 0 23 20" fill="none" xmlns="http://www.w3.org/2000/svg">
<path d="M8.16531 7.73633C7.42179 7.73633 6.81689 8.37187 6.81689 9.15306C6.81689 9.93424 7.42179 10.5698 8.16531 10.5698C8.90883 10.5698 9.51373 9.93424 9.51373 9.15306C9.51373 8.37187 8.90883 7.73633 8.16531 7.73633ZM8.16531 9.87511C7.78635 9.87511 7.47808 9.55122 7.47808 9.15306C7.47808 8.75489 7.78635 8.43101 8.16531 8.43101C8.54424 8.43101 8.85255 8.75489 8.85255 9.15306C8.85255 9.55118 8.54424 9.87511 8.16531 9.87511Z" fill="#FFB600"/>
<path d="M11.6805 7.73633C10.937 7.73633 10.332 8.37187 10.332 9.15306C10.332 9.93424 10.937 10.5698 11.6805 10.5698C12.424 10.5698 13.0289 9.93424 13.0289 9.15306C13.0289 8.37187 12.424 7.73633 11.6805 7.73633ZM11.6805 9.87511C11.3015 9.87511 10.9932 9.55122 10.9932 9.15306C10.9932 8.75489 11.3015 8.43101 11.6805 8.43101C12.0595 8.43101 12.3677 8.75489 12.3677 9.15306C12.3677 9.55122 12.0594 9.87511 11.6805 9.87511Z" fill="#FFB600"/>
<path d="M15.1961 7.73633C14.4526 7.73633 13.8477 8.37187 13.8477 9.15306C13.8477 9.93424 14.4526 10.5698 15.1961 10.5698C15.9396 10.5698 16.5445 9.93424 16.5445 9.15306C16.5445 8.37187 15.9396 7.73633 15.1961 7.73633ZM15.1961 9.87511C14.8171 9.87511 14.5088 9.55122 14.5088 9.15306C14.5088 8.75489 14.8172 8.43101 15.1961 8.43101C15.575 8.43101 15.8833 8.75489 15.8833 9.15306C15.8833 9.55122 15.575 9.87511 15.1961 9.87511Z" fill="#FFB600"/>
<path d="M8.16531 11.1924C7.42179 11.1924 6.81689 11.8279 6.81689 12.6091C6.81689 13.3903 7.42179 14.0258 8.16531 14.0258C8.90883 14.0258 9.51373 13.3903 9.51373 12.6091C9.51373 11.8279 8.90883 11.1924 8.16531 11.1924ZM8.16531 13.3311C7.78635 13.3311 7.47808 13.0072 7.47808 12.6091C7.47808 12.2109 7.78635 11.8871 8.16531 11.8871C8.54424 11.8871 8.85255 12.2109 8.85255 12.6091C8.85255 13.0072 8.54424 13.3311 8.16531 13.3311Z" fill="#FFB600"/>
<path d="M15.1961 11.1924C14.4526 11.1924 13.8477 11.8279 13.8477 12.6091C13.8477 13.3903 14.4526 14.0258 15.1961 14.0258C15.9396 14.0258 16.5445 13.3903 16.5445 12.6091C16.5445 11.8279 15.9396 11.1924 15.1961 11.1924ZM15.1961 13.3311C14.8171 13.3311 14.5088 13.0072 14.5088 12.6091C14.5088 12.2109 14.8172 11.8871 15.1961 11.8871C15.575 11.8871 15.8833 12.2109 15.8833 12.6091C15.8833 13.0072 15.575 13.3311 15.1961 13.3311Z" fill="#FFB600"/>
<path d="M11.6805 11.1924C10.937 11.1924 10.332 11.8279 10.332 12.6091C10.332 13.3903 10.937 14.0258 11.6805 14.0258C12.424 14.0258 13.0289 13.3903 13.0289 12.6091C13.0289 11.8279 12.424 11.1924 11.6805 11.1924ZM11.6805 13.3311C11.3015 13.3311 10.9932 13.0072 10.9932 12.6091C10.9932 12.2109 11.3015 11.8871 11.6805 11.8871C12.0595 11.8871 12.3677 12.2109 12.3677 12.6091C12.3677 13.0072 12.0594 13.3311 11.6805 13.3311Z" fill="#FFB600"/>
<path d="M11.6805 14.6479C10.9369 14.6479 10.332 15.2835 10.332 16.0647C10.332 16.8459 10.9369 17.4815 11.6805 17.4815C12.424 17.4815 13.0289 16.8459 13.0289 16.0647C13.0289 15.2835 12.424 14.6479 11.6805 14.6479ZM11.6805 16.7867C11.3014 16.7867 10.9932 16.4628 10.9932 16.0647C10.9932 15.6666 11.3015 15.3426 11.6805 15.3426C12.0594 15.3426 12.3677 15.6665 12.3677 16.0647C12.3677 16.4628 12.0594 16.7867 11.6805 16.7867Z" fill="#FFB600"/>
<path d="M8.16531 14.6479C7.42179 14.6479 6.81689 15.2835 6.81689 16.0647C6.81689 16.8459 7.42179 17.4815 8.16531 17.4815C8.90883 17.4815 9.51373 16.8459 9.51373 16.0647C9.51373 15.2835 8.90883 14.6479 8.16531 14.6479ZM8.16531 16.7867C7.78635 16.7867 7.47808 16.4628 7.47808 16.0647C7.47808 15.6665 7.78635 15.3426 8.16531 15.3426C8.54424 15.3426 8.85255 15.6665 8.85255 16.0647C8.8525 16.4628 8.54424 16.7867 8.16531 16.7867Z" fill="#FFB600"/>
<path d="M5.11752 9.15331L5.6035 8.64271C5.7326 8.50707 5.7326 8.2872 5.60345 8.15151C5.4744 8.01592 5.26508 8.01587 5.13594 8.15156L4.65 8.66211L4.16406 8.15156C4.03496 8.01592 3.82565 8.01587 3.69655 8.15151C3.56741 8.2872 3.56741 8.50707 3.69651 8.64271L4.18249 9.15331L3.69651 9.66391C3.56732 9.7995 3.56732 10.0194 3.69646 10.1551C3.76099 10.2229 3.84561 10.2568 3.9302 10.2568C4.01478 10.2568 4.0994 10.2229 4.16398 10.1551L4.64991 9.64451L5.13585 10.1551C5.20042 10.2229 5.28501 10.2568 5.36963 10.2568C5.45421 10.2568 5.53884 10.2229 5.60337 10.1551C5.73251 10.0194 5.73251 9.79955 5.60341 9.66391L5.11752 9.15331Z" fill="#FFB600"/>
<path d="M5.11752 12.6094L5.6035 12.0988C5.7326 11.9631 5.7326 11.7432 5.60345 11.6076C5.4744 11.472 5.26508 11.4719 5.13594 11.6076L4.65 12.1182L4.16406 11.6076C4.03496 11.4719 3.82565 11.472 3.69655 11.6076C3.56741 11.7432 3.56741 11.9631 3.69651 12.0988L4.18249 12.6094L3.69651 13.1199C3.56732 13.2555 3.56732 13.4754 3.69646 13.6111C3.76099 13.6789 3.84561 13.7128 3.9302 13.7128C4.01478 13.7128 4.0994 13.6789 4.16398 13.6111L4.64991 13.1005L5.13585 13.6111C5.20042 13.6789 5.28501 13.7128 5.36963 13.7128C5.45421 13.7128 5.53884 13.6789 5.60337 13.6111C5.73251 13.4755 5.73251 13.2556 5.60341 13.1199L5.11752 12.6094Z" fill="#FFB600"/>
<path d="M5.60302 16.575L5.11708 16.0644L5.60302 15.5539C5.73203 15.4182 5.73203 15.1984 5.60293 15.0626C5.47379 14.927 5.26451 14.927 5.13537 15.0626L4.64944 15.5732L4.1635 15.0626C4.03436 14.927 3.82509 14.927 3.69594 15.0626C3.56685 15.1983 3.56685 15.4182 3.69594 15.5539L4.18188 16.0644L3.69594 16.575C3.56685 16.7107 3.56685 16.9305 3.69594 17.0662C3.76052 17.134 3.84514 17.1679 3.92972 17.1679C4.0143 17.1679 4.09893 17.134 4.1635 17.0662L4.64944 16.5557L5.13537 17.0662C5.19994 17.134 5.28457 17.1679 5.36915 17.1679C5.45373 17.1679 5.53836 17.134 5.60293 17.0662C5.73211 16.9305 5.73211 16.7106 5.60302 16.575Z" fill="#FFB600"/>
<path d="M22.5723 17.6086L21.6707 12.6237C21.6367 12.4353 21.4632 12.3115 21.2842 12.3473C21.1049 12.3831 20.9871 12.5649 21.0212 12.7534L21.9227 17.7383C21.9731 18.0173 21.7489 18.2807 21.4435 18.2807H16.5515L19.7246 14.947C19.7826 14.886 19.8214 14.7969 19.8214 14.7014V6.11971L20.728 11.1325C20.762 11.3209 20.9352 11.4447 21.1145 11.4089C21.2938 11.3731 21.4116 11.1913 21.3775 11.0028L19.8192 2.38674C19.7968 1.87415 19.394 1.46413 18.9007 1.46413H16.0036V0.347313C16.0036 0.155457 15.8557 0 15.6731 0C15.4905 0 15.3425 0.155457 15.3425 0.347313V1.46409H13.1286V0.347313C13.1286 0.155457 12.9806 0 12.798 0C12.6154 0 12.4674 0.155457 12.4674 0.347313V1.46409H10.2534V0.347313C10.2534 0.155457 10.1055 0 9.92286 0C9.74026 0 9.59229 0.155457 9.59229 0.347313V1.46409H7.37836V0.347313C7.37836 0.155457 7.2304 0 7.04779 0C6.86518 0 6.71722 0.155457 6.71722 0.347313V1.46409H4.50328V0.347313C4.50328 0.155457 4.35532 0 4.17271 0C3.99011 0 3.84214 0.155457 3.84214 0.347313V1.46409H0.945029C0.437406 1.46413 0.0244141 1.898 0.0244141 2.43138V18.9471C0.0244141 19.4804 0.437406 19.9143 0.945029 19.9143H9.15154C9.33414 19.9143 9.48211 19.7588 9.48211 19.567C9.48211 19.3751 9.33414 19.2197 9.15154 19.2197H0.945029C0.802002 19.2197 0.685598 19.0974 0.685598 18.9472V5.97375H19.1602V14.3539H15.4496C14.942 14.3539 14.5291 14.7878 14.5291 15.3212V19.2196H10.6942C10.5116 19.2196 10.3637 19.3751 10.3637 19.5669C10.3637 19.7588 10.5116 19.9143 10.6942 19.9143H14.8596C14.9449 19.9143 15.0304 19.8787 15.0934 19.8126L15.8903 18.9753H21.4436C22.1616 18.9753 22.7008 18.3186 22.5723 17.6086ZM0.685598 5.27907V2.43138C0.685598 2.28111 0.802002 2.15881 0.945029 2.15881H3.84214V3.71894C3.84214 3.9108 3.99011 4.06625 4.17271 4.06625C4.35532 4.06625 4.50328 3.9108 4.50328 3.71894V2.15881H6.71722V3.71894C6.71722 3.9108 6.86518 4.06625 7.04779 4.06625C7.2304 4.06625 7.37836 3.9108 7.37836 3.71894V2.15881H9.59229V3.71894C9.59229 3.9108 9.74026 4.06625 9.92286 4.06625C10.1055 4.06625 10.2534 3.9108 10.2534 3.71894V2.15881H12.4674V3.71894C12.4674 3.9108 12.6154 4.06625 12.798 4.06625C12.9806 4.06625 13.1286 3.9108 13.1286 3.71894V2.15881H15.3425V3.71894C15.3425 3.9108 15.4905 4.06625 15.6731 4.06625C15.8557 4.06625 16.0036 3.9108 16.0036 3.71894V2.15881H18.9007C19.0438 2.15881 19.1602 2.28111 19.1602 2.43138V5.27912H0.685598V5.27907ZM15.1902 18.7284V15.3212C15.1902 15.1709 15.3066 15.0486 15.4496 15.0486H18.6926C18.3618 15.3962 15.5217 18.3802 15.1902 18.7284Z" fill="#FFB600"/>
</svg>
