<svg width="48" height="48" viewBox="0 0 48 48" fill="none" xmlns="http://www.w3.org/2000/svg">
<path d="M32.7207 30.1018C32.571 29.6862 32.1128 29.4708 31.6973 29.6205C31.2818 29.7703 31.0664 30.2285 31.2161 30.6439C31.2198 30.6541 31.2237 30.6642 31.2278 30.6743C31.9571 32.5776 32.0099 34.033 31.3718 34.6728C30.5977 35.4453 28.6696 35.2038 26.213 34.0282C22.9241 32.3205 19.9345 30.0896 17.3612 27.4228C11.0973 21.158 8.51268 15.0108 10.1113 13.4123C10.6214 13.0094 11.2844 12.8547 11.9201 12.99C12.3606 13.0224 12.7439 12.6915 12.7763 12.2511C12.8076 11.8254 12.499 11.4501 12.0753 11.3986C10.9634 11.2019 9.82267 11.5261 8.98049 12.2783C6.05044 15.2076 10.5295 22.8486 16.2305 28.5504C18.9315 31.3455 22.0701 33.6817 25.5229 35.4669C26.1481 35.7663 26.7925 36.0241 27.4517 36.2386L21.7699 38.3929C14.1829 35.5085 8.7211 28.7823 7.45549 20.7646C7.38702 20.3283 6.97778 20.03 6.54144 20.0985C6.10511 20.1669 5.80683 20.5762 5.8753 21.0125C6.00086 21.8122 6.16879 22.6119 6.37431 23.394C8.21579 30.3712 13.066 36.1674 19.6092 39.2102L10.2576 42.7488C10.2147 42.6773 10.1607 42.6131 10.0977 42.5585C7.72099 40.6504 6.22977 37.8519 5.97127 34.8151L5.60021 30.3217C5.57102 29.8863 5.19437 29.5571 4.75894 29.5863C4.75064 29.5869 4.74235 29.5875 4.73415 29.5884C4.29392 29.6233 3.96535 30.0087 4.00034 30.4489C4.00044 30.4507 4.00063 30.4526 4.00083 30.4544L4.37829 34.9463C4.65938 38.1923 6.17359 41.2071 8.60944 43.371L1.93844 45.8964L3.13797 40.9735C3.24263 40.5442 2.97953 40.1114 2.5502 40.0067C2.12087 39.902 1.68804 40.1651 1.58338 40.5945L0.0231844 46.992C-0.0819747 47.4209 0.180523 47.8539 0.609556 47.959C0.766895 47.9976 0.93213 47.9874 1.08357 47.93L30.672 36.7344C30.7191 36.7114 30.7636 36.6835 30.8048 36.6512C31.4451 36.5528 32.0388 36.2568 32.5025 35.8043C33.2949 35.0118 33.9771 33.3781 32.7207 30.1018Z" fill="#FFB600"/>
<path d="M40.2673 28.0395C35.9443 26.4212 31.2718 25.9674 26.7182 26.7241L23.8609 27.2039C23.4272 27.2872 23.1432 27.7064 23.2266 28.1401C23.3071 28.5592 23.7025 28.8411 24.1248 28.7809L26.9813 28.305C31.2578 27.594 35.6462 28.0205 39.706 29.5414C39.796 29.5733 39.8911 29.5893 39.9866 29.5886C40.4283 29.5893 40.7869 29.2319 40.7876 28.7902C40.7882 28.4558 40.5807 28.1564 40.2673 28.0395Z" fill="#FFB600"/>
<path d="M43.1104 15.6497C42.9205 15.2509 42.4433 15.0816 42.0444 15.2715L25.251 23.2684C24.8522 23.4582 24.6828 23.9353 24.8726 24.3342C24.8726 24.3343 24.8727 24.3344 24.8727 24.3344C25.0625 24.7331 25.5396 24.9026 25.9385 24.7127C25.9386 24.7127 25.9386 24.7126 25.9387 24.7126L42.7322 16.7157C43.131 16.5258 43.3003 16.0486 43.1104 15.6497Z" fill="#FFB600"/>
<path d="M19.422 5.4275C19.334 4.99467 18.9119 4.71508 18.4791 4.80304C18.0462 4.89101 17.7667 5.31314 17.8546 5.74598C17.8565 5.75557 17.8587 5.76507 17.861 5.77456C18.8732 10.2967 18.4561 15.0217 16.6671 19.2965L15.5043 22.0866C15.3363 22.4932 15.5281 22.9591 15.9338 23.1294C16.0309 23.1703 16.1354 23.1912 16.2408 23.191C16.5636 23.191 16.8547 22.9971 16.979 22.6992L18.1425 19.9123C20.0593 15.3331 20.5064 10.2717 19.422 5.4275Z" fill="#FFB600"/>
<path d="M43.9851 28.7888C42.6601 28.7888 41.5861 29.8629 41.5861 31.1879C41.5861 32.5129 42.6601 33.5869 43.9851 33.5869C45.3101 33.5869 46.3842 32.5129 46.3842 31.1879C46.3842 29.8629 45.3101 28.7888 43.9851 28.7888ZM43.9851 31.9876C43.5435 31.9876 43.1854 31.6295 43.1854 31.1879C43.1854 30.7463 43.5435 30.3882 43.9851 30.3882C44.4268 30.3882 44.7848 30.7463 44.7848 31.1879C44.7848 31.6295 44.4268 31.9876 43.9851 31.9876Z" fill="#FFB600"/>
<path d="M24.7927 6.39746C23.4678 6.39746 22.3937 7.47154 22.3937 8.79653C22.3937 10.1215 23.4678 11.1956 24.7927 11.1956C26.1177 11.1956 27.1918 10.1215 27.1918 8.79653C27.1918 7.47154 26.1177 6.39746 24.7927 6.39746ZM24.7927 9.59622C24.3511 9.59622 23.993 9.23815 23.993 8.79653C23.993 8.3549 24.3511 7.99684 24.7927 7.99684C25.2344 7.99684 25.5924 8.3549 25.5924 8.79653C25.5924 9.23815 25.2344 9.59622 24.7927 9.59622Z" fill="#FFB600"/>
<path d="M17.5956 3.19875C18.4789 3.19875 19.195 2.48269 19.195 1.59938C19.195 0.716065 18.4789 0 17.5956 0C16.7123 0 15.9962 0.716065 15.9962 1.59938C15.9962 2.48269 16.7123 3.19875 17.5956 3.19875Z" fill="#FFB600"/>
<path d="M39.9868 3.99854C39.5452 3.99854 39.1871 4.3566 39.1871 4.79822V5.59791C39.1871 6.03954 39.5452 6.3976 39.9868 6.3976C40.4284 6.3976 40.7865 6.03954 40.7865 5.59791V4.79822C40.7865 4.3566 40.4284 3.99854 39.9868 3.99854Z" fill="#FFB600"/>
<path d="M39.9868 0C39.5452 0 39.1871 0.358061 39.1871 0.799689V1.59938C39.1871 2.04101 39.5452 2.39907 39.9868 2.39907C40.4284 2.39907 40.7865 2.04101 40.7865 1.59938V0.799689C40.7865 0.358061 40.4284 0 39.9868 0Z" fill="#FFB600"/>
<path d="M42.3859 2.39917H41.5862C41.1446 2.39917 40.7865 2.75723 40.7865 3.19886C40.7865 3.64049 41.1446 3.99855 41.5862 3.99855H42.3859C42.8275 3.99855 43.1856 3.64049 43.1856 3.19886C43.1856 2.75723 42.8275 2.39917 42.3859 2.39917Z" fill="#FFB600"/>
<path d="M38.3873 2.39917H37.5877C37.146 2.39917 36.788 2.75723 36.788 3.19886C36.788 3.64049 37.146 3.99855 37.5877 3.99855H38.3873C38.829 3.99855 39.187 3.64049 39.187 3.19886C39.187 2.75723 38.829 2.39917 38.3873 2.39917Z" fill="#FFB600"/>
<path d="M34.389 8.77979H30.3738C29.9322 8.77979 29.5741 9.13785 29.5741 9.57947V13.5947C29.5741 14.0363 29.9322 14.3944 30.3738 14.3944H34.389C34.8306 14.3944 35.1887 14.0363 35.1887 13.5947V9.57947C35.1887 9.13785 34.8306 8.77979 34.389 8.77979ZM33.5893 12.795H31.1735V10.3792H33.5893V12.795Z" fill="#FFB600"/>
<path d="M28.5634 15.4576C28.2699 15.1442 27.7812 15.1186 27.4566 15.3996L19.4597 22.5968C19.1316 22.8923 19.1051 23.3978 19.4005 23.7259C19.696 24.054 20.2015 24.0805 20.5297 23.7851L28.5266 16.5879C28.8489 16.2859 28.8654 15.7799 28.5634 15.4576Z" fill="#FFB600"/>
<path d="M43.1856 18.3928C42.7439 18.3928 42.3859 18.7509 42.3859 19.1925V19.9922C42.3859 20.4338 42.7439 20.7919 43.1856 20.7919C43.6272 20.7919 43.9852 20.4338 43.9852 19.9922V19.1925C43.9852 18.7509 43.6272 18.3928 43.1856 18.3928Z" fill="#FFB600"/>
<path d="M46.5787 18.2555L46.0133 17.6901C45.6956 17.3832 45.1894 17.392 44.8825 17.7097C44.5833 18.0196 44.5833 18.5109 44.8825 18.8209L45.4479 19.3863C45.7656 19.6931 46.2718 19.6843 46.5787 19.3667C46.8781 19.0567 46.8781 18.5654 46.5787 18.2555Z" fill="#FFB600"/>
<path d="M47.184 15.1941H46.3843C45.9427 15.1941 45.5846 15.5522 45.5846 15.9938C45.5846 16.4354 45.9427 16.7935 46.3843 16.7935H47.184C47.6256 16.7935 47.9837 16.4354 47.9837 15.9938C47.9837 15.5522 47.6256 15.1941 47.184 15.1941Z" fill="#FFB600"/>
<path d="M46.559 12.6014C46.2491 12.3021 45.7578 12.3021 45.4478 12.6014L44.8825 13.1668C44.5702 13.4792 44.5703 13.9855 44.8827 14.2977C45.0326 14.4476 45.2359 14.5319 45.4478 14.5319C45.66 14.5319 45.8633 14.4475 46.0132 14.2975L46.5786 13.7322C46.8855 13.4145 46.8767 12.9082 46.559 12.6014Z" fill="#FFB600"/>
<path d="M43.1856 11.1956C42.7439 11.1956 42.3859 11.5536 42.3859 11.9952V12.7949C42.3859 13.2366 42.7439 13.5946 43.1856 13.5946C43.6272 13.5946 43.9852 13.2366 43.9852 12.7949V11.9952C43.9852 11.5536 43.6272 11.1956 43.1856 11.1956Z" fill="#FFB600"/>
<path d="M41.4886 13.1668L40.9232 12.6015C40.6055 12.2947 40.0993 12.3034 39.7925 12.621C39.4932 12.9309 39.4932 13.4222 39.7925 13.7322L40.3578 14.2976C40.6755 14.6045 41.1817 14.5957 41.4886 14.278C41.788 13.968 41.788 13.4767 41.4886 13.1668Z" fill="#FFB600"/>
<path d="M9.55942 3.45792C9.46526 3.16863 9.21506 2.95792 8.91408 2.91413L6.56699 2.57267L5.5202 0.446294C5.28689 0.0501481 4.77659 -0.0819005 4.38044 0.151409C4.25869 0.223081 4.15723 0.324541 4.08556 0.446294L3.03397 2.57267L0.686881 2.91413C0.249751 2.97721 -0.0534309 3.38275 0.00964448 3.81988C0.0347347 3.99391 0.116503 4.15475 0.242254 4.2776L1.93999 5.93296L1.54015 8.27045C1.46338 8.70538 1.75367 9.12021 2.1886 9.19698C2.36373 9.22787 2.54406 9.19958 2.7013 9.11652L4.80048 8.00975L6.89966 9.11332C7.29061 9.31884 7.77412 9.1686 7.97964 8.77765C8.06151 8.62201 8.0897 8.44378 8.06001 8.27045L7.66016 5.93296L9.3587 4.2776C9.57612 4.06478 9.65389 3.74711 9.55942 3.45792ZM6.23992 5.08129C6.05159 5.26472 5.96552 5.52901 6.00961 5.78821L6.20793 6.94376L5.17233 6.39757C4.93952 6.27532 4.66143 6.27532 4.42862 6.39757L3.38903 6.94296L3.58735 5.78741C3.63223 5.52921 3.54767 5.26532 3.36104 5.08129L2.52057 4.26321L3.68091 4.09447C3.94141 4.05669 4.16663 3.89305 4.28308 3.65704L4.80048 2.60705L5.31868 3.65704C5.43503 3.89285 5.65984 4.05639 5.92004 4.09447L7.07959 4.26321L6.23992 5.08129Z" fill="#FFB600"/>
<path d="M45.2823 40.0843H45.2791L44.9496 39.5901C43.1023 36.8275 40.1973 34.9491 36.92 34.3978C36.4827 34.3354 36.0777 34.6393 36.0153 35.0765C35.955 35.4989 36.237 35.8943 36.6561 35.9748C39.0199 36.376 41.1742 37.5769 42.7585 39.3766C41.4265 39.6162 40.2616 40.4162 39.5597 41.5734C38.6985 43.1159 39.2508 45.0644 40.7933 45.9257C42.3358 46.7869 44.2843 46.2347 45.1456 44.6922C45.4745 44.0571 45.6522 43.3545 45.6646 42.6394C46.5154 43.8752 46.5835 45.489 45.8397 46.7921C45.6144 47.172 45.7396 47.6626 46.1195 47.8879C46.4993 48.1132 46.9899 47.988 47.2153 47.6081C47.2224 47.5959 47.2293 47.5836 47.2359 47.571C48.7002 44.9557 47.8377 41.6508 45.2823 40.0843ZM43.7509 43.9117C43.3241 44.6851 42.3511 44.9659 41.5778 44.5391C40.8045 44.1123 40.5236 43.1394 40.9504 42.3661C40.9528 42.3618 40.9552 42.3574 40.9576 42.3531C41.4295 41.5804 42.2255 41.0624 43.1231 40.944C43.2622 40.9402 43.3998 40.9722 43.523 41.0368C44.1979 41.4134 44.2339 43.0464 43.7509 43.9117Z" fill="#FFB600"/>
</svg>
