<svg width="8" height="8" viewBox="0 0 8 8" fill="none" xmlns="http://www.w3.org/2000/svg">
<path d="M5.37734 3.41554V1.92237C5.37734 1.87963 5.3576 1.84014 5.32967 1.8089L3.65561 0.0509863C3.62436 0.0181191 3.57994 0 3.53557 0H0.881395C0.391397 0 0 0.399584 0 0.889642V5.90852C0 6.39857 0.391397 6.7916 0.881395 6.7916H2.97647C3.37274 7.44936 4.09305 7.89006 4.91359 7.89006C6.16008 7.89006 7.178 6.87707 7.178 5.62896C7.17968 4.53869 6.39689 3.62767 5.37734 3.41554ZM3.70003 0.577223L4.82317 1.75954H4.09468C3.87761 1.75954 3.70003 1.58034 3.70003 1.36327V0.577223ZM0.881395 6.46268C0.573912 6.46268 0.328913 6.216 0.328913 5.90852V0.889642C0.328913 0.580474 0.573912 0.328913 0.881395 0.328913H3.37112V1.36327C3.37112 1.76285 3.69509 2.08845 4.09468 2.08845H5.04843V3.37274C4.99913 3.37112 4.95964 3.36618 4.9169 3.36618C4.34299 3.36618 3.81513 3.58656 3.41717 3.93191H1.32871C1.23824 3.93191 1.16426 4.00589 1.16426 4.0963C1.16426 4.18678 1.23824 4.26076 1.32871 4.26076H3.11131C2.99453 4.42522 2.89749 4.58967 2.82189 4.77056H1.32871C1.23824 4.77056 1.16426 4.84454 1.16426 4.93502C1.16426 5.02543 1.23824 5.09948 1.32871 5.09948H2.71498C2.67386 5.26393 2.65249 5.44645 2.65249 5.62896C2.65249 5.92495 2.71004 6.21768 2.81364 6.46437H0.881395V6.46268ZM4.91527 7.56283C3.84968 7.56283 2.98303 6.69618 2.98303 5.63059C2.98303 4.56499 3.84799 3.69834 4.91527 3.69834C5.9825 3.69834 6.84746 4.56499 6.84746 5.63059C6.84746 6.69618 5.98087 7.56283 4.91527 7.56283Z" fill="black"/>
<path d="M1.32852 3.43682H2.99433C3.08481 3.43682 3.15879 3.36278 3.15879 3.27237C3.15879 3.18189 3.08481 3.10791 2.99433 3.10791H1.32852C1.23804 3.10791 1.16406 3.18189 1.16406 3.27237C1.16406 3.36278 1.23804 3.43682 1.32852 3.43682Z" fill="black"/>
<path d="M5.03203 4.41687C5.00079 4.384 4.95805 4.36426 4.912 4.36426C4.86595 4.36426 4.82321 4.384 4.79197 4.41687L3.82829 5.45122C3.7658 5.51702 3.77074 5.62224 3.83653 5.6831C3.90233 5.74558 4.00918 5.74065 4.07166 5.67491L4.75248 4.94642V6.74214C4.75248 6.83261 4.82646 6.90659 4.91694 6.90659C5.00735 6.90659 5.08139 6.83261 5.08139 6.74214V4.94642L5.75722 5.67491C5.79015 5.70941 5.83289 5.72753 5.87731 5.72753C5.91674 5.72753 5.95623 5.71272 5.9891 5.6831C6.05489 5.62062 6.05983 5.51702 5.99734 5.45122L5.03203 4.41687Z" fill="black"/>
</svg>
