<svg width="76" height="76" viewBox="0 0 76 76" fill="none" xmlns="http://www.w3.org/2000/svg">
<g clip-path="url(#clip0)">
<path d="M63.4073 65.8833C56.9308 71.5955 48.4487 75.0865 39.1527 75.1644C18.6583 75.3366 1.66846 58.4951 1.66846 38C1.66846 17.4741 18.3081 0.834473 38.8341 0.834473C48.1034 0.834473 56.5802 4.22793 63.09 9.84009C64.0716 10.6864 64.1659 12.167 63.2982 13.1298C57.3634 19.7162 53.7511 28.4363 53.7511 38.0001C53.7511 47.7074 57.4726 56.5455 63.5669 63.1652C64.2905 63.9513 64.2087 65.1766 63.4073 65.8833Z" fill="#DF3D9B"/>
<path d="M25.7884 9.78418V65.9119H3.03393C1.35829 65.9119 0 64.5536 0 62.878V12.8181C0 11.1425 1.35829 9.78418 3.03393 9.78418H25.7884Z" fill="#ACD1FD"/>
<path d="M75.9999 37.9997C75.9999 49.1208 71.1153 59.1009 63.3746 65.9119H7.58471C5.90907 65.9119 4.55078 64.5536 4.55078 62.878V12.8181C4.55078 11.1425 5.90907 9.78418 7.58471 9.78418H63.0254C70.9681 16.6004 75.9999 26.7125 75.9999 37.9997Z" fill="#C7EEFD"/>
<path d="M4.55115 41.7924C3.71333 41.7924 3.03418 41.1132 3.03418 40.2754V35.7245C3.03418 34.8867 3.71333 34.2075 4.55115 34.2075C5.38897 34.2075 6.06811 34.8867 6.06811 35.7245V40.2754C6.06811 41.1132 5.38897 41.7924 4.55115 41.7924Z" fill="#69C3DA"/>
<path d="M68.5436 60.3339H45.5109C45.5101 60.3339 45.5094 60.3339 45.5088 60.3339H10.6185C9.78071 60.3339 9.10156 59.6547 9.10156 58.8169V17.1835C9.10156 16.3456 9.78071 15.6665 10.6185 15.6665H45.5088H45.5109H68.5434C73.225 21.8839 75.9998 29.618 75.9998 38.0002C75.9998 46.3823 73.225 54.1164 68.5436 60.3339Z" fill="#003278"/>
<path d="M57.6449 31.0222C58.4827 31.0222 59.1618 31.7014 59.1618 32.5392V41.641C59.1618 42.4788 58.4827 43.1579 57.6449 43.1579C56.807 43.1579 56.1279 42.4788 56.1279 41.641V32.5392C56.1279 31.7014 56.807 31.0222 57.6449 31.0222ZM43.9922 37.0901V41.641C43.9922 42.4788 44.6713 43.1579 45.5091 43.1579C46.3469 43.1579 47.0261 42.4788 47.0261 41.641V37.0901C47.0261 36.2523 46.3469 35.5731 45.5091 35.5731C44.6713 35.5731 43.9922 36.2523 43.9922 37.0901ZM43.9922 24.9543C44.83 24.9543 45.5091 24.2752 45.5091 23.4374C45.5091 22.5996 44.83 21.9204 43.9922 21.9204C43.1543 21.9204 42.4752 22.5996 42.4752 23.4374C42.4752 24.2752 43.1543 24.9543 43.9922 24.9543ZM39.4413 24.9543C40.2791 24.9543 40.9582 24.2752 40.9582 23.4374C40.9582 22.5996 40.2791 21.9204 39.4413 21.9204C38.6034 21.9204 37.9243 22.5996 37.9243 23.4374C37.9243 24.2752 38.6034 24.9543 39.4413 24.9543ZM34.8904 24.9543C35.7282 24.9543 36.4073 24.2752 36.4073 23.4374C36.4073 22.5996 35.7282 21.9204 34.8904 21.9204C34.0525 21.9204 33.3734 22.5996 33.3734 23.4374C33.3734 24.2752 34.0525 24.9543 34.8904 24.9543ZM14.7906 51.5012H36.7866C37.4149 51.5012 37.9243 50.9919 37.9243 50.3635C37.9243 49.7352 37.4149 49.2258 36.7866 49.2258H14.7906C14.1622 49.2258 13.6528 49.7352 13.6528 50.3635C13.6528 50.9919 14.1622 51.5012 14.7906 51.5012ZM14.7906 56.0521H36.7866C37.4149 56.0521 37.9243 55.5428 37.9243 54.9144C37.9243 54.2861 37.4149 53.7767 36.7866 53.7767H14.7906C14.1622 53.7767 13.6528 54.2861 13.6528 54.9144C13.6528 55.5428 14.1622 56.0521 14.7906 56.0521ZM45.1299 51.5012H67.1259C67.7542 51.5012 68.2636 50.9919 68.2636 50.3635C68.2636 49.7352 67.7542 49.2258 67.1259 49.2258H45.1299C44.5016 49.2258 43.9922 49.7352 43.9922 50.3635C43.9922 50.9919 44.5016 51.5012 45.1299 51.5012ZM45.1299 56.0521H67.1259C67.7542 56.0521 68.2636 55.5428 68.2636 54.9144C68.2636 54.2861 67.7542 53.7767 67.1259 53.7767H45.1299C44.5016 53.7767 43.9922 54.2861 43.9922 54.9144C43.9922 55.5428 44.5016 56.0521 45.1299 56.0521Z" fill="#0055C7"/>
<path d="M26.547 38.6068C25.7092 38.6068 25.0301 37.9275 25.0301 37.0898C25.0301 36.2522 25.7092 35.5729 26.547 35.5729C28.6382 35.5729 30.3395 33.8716 30.3395 31.7804C30.3395 29.6893 28.6382 27.988 26.547 27.988C24.4559 27.988 22.7546 29.6893 22.7546 31.7804C22.7546 32.6181 22.0755 33.2974 21.2377 33.2974C20.3998 33.2974 19.7207 32.6181 19.7207 31.7804C19.7207 28.0164 22.783 24.9541 26.547 24.9541C30.3111 24.9541 33.3734 28.0164 33.3734 31.7804C33.3734 35.5445 30.3111 38.6068 26.547 38.6068ZM51.577 24.9541C50.7392 24.9541 50.06 25.6332 50.06 26.4711V41.6407C50.06 42.4785 50.7392 43.1577 51.577 43.1577C52.4148 43.1577 53.094 42.4785 53.094 41.6407V26.4711C53.094 25.6332 52.4148 24.9541 51.577 24.9541ZM71.2975 26.4711V41.6407C71.2975 42.4785 70.6184 43.1577 69.7806 43.1577C68.9428 43.1577 68.2636 42.4785 68.2636 41.6407V26.4711C68.2636 25.6332 68.9428 24.9541 69.7806 24.9541C70.6184 24.9541 71.2975 25.6332 71.2975 26.4711Z" fill="#0ED1B2"/>
<path d="M26.547 44.6747C19.4372 44.6747 13.6528 38.8903 13.6528 31.7804C13.6528 24.6706 19.4372 18.8862 26.547 18.8862C27.3849 18.8862 28.064 19.5655 28.064 20.4032C28.064 21.2409 27.3849 21.9202 26.547 21.9202C21.1101 21.9202 16.6868 26.3435 16.6868 31.7804C16.6868 37.2174 21.1101 41.6407 26.547 41.6407C31.984 41.6407 36.4073 37.2174 36.4073 31.7804C36.4073 30.9428 37.0865 30.2635 37.9243 30.2635C38.7621 30.2635 39.4413 30.9428 39.4413 31.7804C39.4413 38.8903 33.6569 44.6747 26.547 44.6747ZM63.7127 18.8862C62.8749 18.8862 62.1957 19.5654 62.1957 20.4032V41.6407C62.1957 42.4785 62.8749 43.1577 63.7127 43.1577C64.5505 43.1577 65.2297 42.4785 65.2297 41.6407V20.4032C65.2297 19.5654 64.5505 18.8862 63.7127 18.8862ZM14.7906 51.501H24.6508C25.2792 51.501 25.7886 50.9916 25.7886 50.3633C25.7886 49.7349 25.2792 49.2255 24.6508 49.2255H14.7906C14.1622 49.2255 13.6528 49.7349 13.6528 50.3633C13.6528 50.9916 14.1622 51.501 14.7906 51.501ZM13.6528 54.9142C13.6528 54.2858 14.1622 53.7764 14.7906 53.7764H30.7187C31.347 53.7764 31.8564 54.2858 31.8564 54.9142C31.8564 55.5425 31.347 56.0519 30.7187 56.0519H14.7906C14.1622 56.0519 13.6528 55.5425 13.6528 54.9142ZM43.9922 50.3633C43.9922 49.7349 44.5015 49.2255 45.1299 49.2255H59.541C60.1694 49.2255 60.6788 49.7349 60.6788 50.3633C60.6788 50.9916 60.1694 51.501 59.541 51.501H45.1299C44.5015 51.501 43.9922 50.9916 43.9922 50.3633ZM43.9922 54.9142C43.9922 54.2858 44.5015 53.7764 45.1299 53.7764H50.4393C51.0676 53.7764 51.577 54.2858 51.577 54.9142C51.577 55.5425 51.0676 56.0519 50.4393 56.0519H45.1299C44.5015 56.0519 43.9922 55.5425 43.9922 54.9142Z" fill="#5AFFB7"/>
</g>
<rect x="52" y="53" width="22" height="22" rx="10.5" fill="white"/>
<g clip-path="url(#clip1)">
<path d="M57.2753 60.2169C57.2836 60.2169 57.292 60.2169 57.3003 60.2169C59.2016 60.3261 60.7194 61.846 60.8444 63.7607C60.8444 63.7691 60.8444 63.7775 60.8444 63.7859C60.8444 63.8027 60.8444 63.8195 60.8528 63.8362C60.8778 63.9286 60.9612 63.9958 61.0613 63.9958L62.8458 63.9958C62.9542 63.9958 63.0376 63.9202 63.0543 63.8195C63.0543 63.8111 63.0543 63.7943 63.0543 63.7859C63.0543 63.7691 63.0543 63.7523 63.046 63.7355C62.9042 60.6284 60.4275 58.1344 57.342 58.0084C57.3253 58 57.3087 58 57.292 58C57.2836 58 57.2753 58 57.2586 58C57.1585 58.0168 57.0835 58.1092 57.0835 58.2099L57.0835 60.007C57.0835 60.1162 57.1669 60.2085 57.2753 60.2169Z" fill="#FFB600"/>
<path d="M63.2294 60.2169C63.2377 60.2169 63.246 60.2169 63.2544 60.2169C65.1557 60.3261 66.6818 61.846 66.7985 63.7607C66.7985 63.7691 66.7985 63.7775 66.7985 63.7859C66.7985 63.8027 66.7985 63.8195 66.8068 63.8362C66.8319 63.9286 66.9153 63.9958 67.0153 63.9958L68.7999 63.9958C68.9083 63.9958 68.9917 63.9202 69.0084 63.8195C69.0084 63.8111 69.0084 63.7943 69.0084 63.7859C69.0084 63.7691 69.0084 63.7523 69 63.7355C68.8666 60.6284 66.3899 58.1344 63.3044 58C63.2877 58 63.2711 58 63.2544 58C63.246 58 63.2294 58 63.221 58C63.121 58.0168 63.0459 58.1008 63.0459 58.2099L63.0459 60.007C63.0459 60.1162 63.121 60.2085 63.2294 60.2169Z" fill="#FFB600"/>
<path d="M62.7875 70.0002C59.702 69.8658 57.2253 67.3718 57.0918 64.2647C57.0835 64.2479 57.0835 64.2311 57.0835 64.2143C57.0835 64.2059 57.0835 64.1891 57.0835 64.1807C57.1002 64.08 57.1836 64.0044 57.292 64.0044L59.0765 64.0044C59.185 64.0044 59.2767 64.0884 59.285 64.1891C59.285 64.1975 59.285 64.2059 59.285 64.2143C59.3934 66.129 60.9028 67.6573 62.8041 67.7833C62.8125 67.7833 62.8208 67.7833 62.8292 67.7833C62.8458 67.7833 62.8625 67.7833 62.8792 67.7917C62.9709 67.8169 63.0376 67.9008 63.0376 68.0016L63.0376 69.7987C63.0376 69.9078 62.9626 69.9918 62.8625 70.0086C62.8542 70.0086 62.8375 70.0086 62.8292 70.0086C62.8125 70.0002 62.7958 70.0002 62.7875 70.0002Z" fill="#FFB600"/>
<path d="M69 69.74C68.8666 66.6329 66.3899 64.1389 63.3044 64.0045C63.2877 64.0045 63.2711 63.9961 63.2544 63.9961C63.246 63.9961 63.2294 63.9961 63.221 63.9961C63.121 64.0129 63.0459 64.0969 63.0459 64.206L63.0459 66.0031C63.0459 66.1123 63.1293 66.2046 63.2377 66.213C63.246 66.213 63.2544 66.213 63.2627 66.213C65.164 66.3222 66.6901 67.8421 66.8068 69.7568C66.8068 69.7652 66.8068 69.7736 66.8068 69.782C66.8068 69.7988 66.8068 69.8155 66.8152 69.8323C66.8402 69.9247 66.9236 69.9919 67.0237 69.9919L68.8082 69.9919C68.9166 69.9919 69 69.9163 69.0167 69.8155L69.0167 69.8071C69.0167 69.7988 69.0167 69.7904 69.0167 69.782C69 69.7736 69 69.7568 69 69.74Z" fill="#FFB600"/>
<path d="M59.385 65.0537C58.0674 65.0537 57 66.1286 57 67.447C57 68.7654 58.0674 69.8487 59.385 69.8487C60.7026 69.8487 61.77 68.7738 61.77 67.447C61.77 66.1202 60.6942 65.0537 59.385 65.0537ZM60.4274 67.6485L59.5768 67.6485L59.5768 68.4967C59.5768 68.6058 59.4851 68.6982 59.3767 68.6982C59.2682 68.6982 59.1765 68.6058 59.1765 68.4967L59.1765 67.6485L58.3426 67.6485C58.2342 67.6485 58.1425 67.5562 58.1425 67.447C58.1425 67.3378 58.2342 67.2455 58.3426 67.2455L59.1849 67.2455L59.1849 66.3973C59.1849 66.2881 59.2766 66.1958 59.385 66.1958C59.4934 66.1958 59.5851 66.2881 59.5851 66.3973L59.5851 67.2455L60.4274 67.2455C60.5358 67.2455 60.6275 67.3378 60.6275 67.447C60.6192 67.5562 60.5358 67.6485 60.4274 67.6485Z" fill="#231F20"/>
</g>
<defs>
<clipPath id="clip0">
<rect width="76" height="76" fill="white"/>
</clipPath>
<clipPath id="clip1">
<rect width="12" height="12" fill="white" transform="translate(57 58)"/>
</clipPath>
</defs>
</svg>
