<svg width="12" height="14" viewBox="0 0 12 14" fill="none" xmlns="http://www.w3.org/2000/svg">
<path d="M10.8243 2.53991H8.27739C8.27742 1.13711 7.13715 0 5.73051 0C4.32386 0 3.1836 1.13711 3.1836 2.53991H0.636715C0.284976 2.53991 0 2.82413 0 3.17487C0 3.52562 0.285002 3.80984 0.636715 3.80984H0.8914V11.5565C0.892926 12.4678 1.63306 13.2059 2.54688 13.2075H8.91413C9.82796 13.2059 10.5681 12.4678 10.5696 11.5565V3.80984H10.8243C11.176 3.80984 11.461 3.52562 11.461 3.17487C11.461 2.82413 11.176 2.53991 10.8243 2.53991ZM5.73051 1.26995C6.4337 1.26995 7.00396 1.83865 7.00396 2.53991H4.45705C4.45705 1.83862 5.02732 1.26995 5.73051 1.26995ZM9.29616 11.5565C9.29616 11.7668 9.125 11.9375 8.91413 11.9375H2.54688C2.33599 11.9375 2.16486 11.7668 2.16486 11.5565V3.80984H9.29616V11.5565Z" fill="#424242"/>
<path d="M4.33223 9.77859C3.98146 9.77859 3.69727 9.49437 3.69727 9.14362V6.60371C3.69727 6.25294 3.98148 5.96875 4.33223 5.96875C4.68298 5.96875 4.96719 6.25297 4.96719 6.60371V9.14362C4.96722 9.49437 4.683 9.77859 4.33223 9.77859Z" fill="#9D9D9D"/>
<path d="M7.12617 9.77859C6.7754 9.77859 6.49121 9.49437 6.49121 9.14362V6.60371C6.49121 6.25294 6.77543 5.96875 7.12617 5.96875C7.47695 5.96875 7.76114 6.25297 7.76114 6.60371V9.14362C7.76114 9.49437 7.47692 9.77859 7.12617 9.77859Z" fill="#9D9D9D"/>
</svg>
