<svg width="10" height="12" viewBox="0 0 10 12" fill="none" xmlns="http://www.w3.org/2000/svg">
<path d="M8.7249 1.99238H6.85146V1.65176C6.85146 1.08738 6.39396 0.629883 5.82959 0.629883H4.46709C3.90272 0.629883 3.44521 1.08738 3.44521 1.65176V1.99238H1.57178C1.10148 1.99238 0.720215 2.37365 0.720215 2.84395V3.5252C0.720215 3.71333 0.872708 3.86582 1.06084 3.86582H9.23584C9.42397 3.86582 9.57646 3.71333 9.57646 3.5252V2.84395C9.57646 2.37365 9.1952 1.99238 8.7249 1.99238ZM4.12646 1.65176C4.12646 1.46399 4.27932 1.31113 4.46709 1.31113H5.82959C6.01736 1.31113 6.17021 1.46399 6.17021 1.65176V1.99238H4.12646V1.65176Z" fill="black"/>
<path d="M1.36621 4.54712C1.30543 4.54712 1.25699 4.59791 1.25989 4.65863L1.5409 10.5566C1.56688 11.1024 2.01522 11.5299 2.5615 11.5299H7.73432C8.2806 11.5299 8.72894 11.1024 8.75492 10.5566L9.03593 4.65863C9.03883 4.59791 8.9904 4.54712 8.92961 4.54712H1.36621ZM6.51041 5.39868C6.51041 5.21049 6.66284 5.05806 6.85104 5.05806C7.03923 5.05806 7.19166 5.21049 7.19166 5.39868V9.82681C7.19166 10.015 7.03923 10.1674 6.85104 10.1674C6.66284 10.1674 6.51041 10.015 6.51041 9.82681V5.39868ZM4.80729 5.39868C4.80729 5.21049 4.95972 5.05806 5.14791 5.05806C5.33611 5.05806 5.48854 5.21049 5.48854 5.39868V9.82681C5.48854 10.015 5.33611 10.1674 5.14791 10.1674C4.95972 10.1674 4.80729 10.015 4.80729 9.82681V5.39868ZM3.10416 5.39868C3.10416 5.21049 3.25659 5.05806 3.44479 5.05806C3.63298 5.05806 3.78541 5.21049 3.78541 5.39868V9.82681C3.78541 10.015 3.63298 10.1674 3.44479 10.1674C3.25659 10.1674 3.10416 10.015 3.10416 9.82681V5.39868Z" fill="black"/>
</svg>
