<svg width="9" height="11" viewBox="0 0 9 11" fill="none" xmlns="http://www.w3.org/2000/svg">
<path d="M7.97961 1.375H6.11204V1.03125C6.11204 0.462623 5.65506 0 5.09337 0H3.73514C3.17344 0 2.71646 0.462623 2.71646 1.03125V1.375H0.848895C0.380814 1.375 0 1.76052 0 2.23438V3.4375C0 3.62734 0.152037 3.78125 0.339558 3.78125H0.525126L0.818483 10.0178C0.844396 10.5686 1.29134 11 1.83599 11H6.99252C7.53719 11 7.98413 10.5686 8.01002 10.0178L8.30338 3.78125H8.48895C8.67647 3.78125 8.82851 3.62734 8.82851 3.4375V2.23438C8.82851 1.76052 8.44769 1.375 7.97961 1.375ZM3.39558 1.03125C3.39558 0.841715 3.54791 0.6875 3.73514 0.6875H5.09337C5.28059 0.6875 5.43293 0.841715 5.43293 1.03125V1.375H3.39558V1.03125ZM0.679116 2.23438C0.679116 2.13961 0.755283 2.0625 0.848895 2.0625H7.97961C8.07322 2.0625 8.14939 2.13961 8.14939 2.23438V3.09375C8.04474 3.09375 1.11275 3.09375 0.679116 3.09375V2.23438ZM7.33167 9.9851C7.32303 10.1687 7.17405 10.3125 6.99252 10.3125H1.83599C1.65443 10.3125 1.50545 10.1687 1.49684 9.9851L1.20501 3.78125H7.6235L7.33167 9.9851Z" fill="#F64E60"/>
<path d="M4.41426 9.625C4.60179 9.625 4.75382 9.47109 4.75382 9.28125V4.8125C4.75382 4.62266 4.60179 4.46875 4.41426 4.46875C4.22674 4.46875 4.07471 4.62266 4.07471 4.8125V9.28125C4.07471 9.47109 4.22672 9.625 4.41426 9.625Z" fill="#F64E60"/>
<path d="M6.11202 9.625C6.29954 9.625 6.45158 9.47109 6.45158 9.28125V4.8125C6.45158 4.62266 6.29954 4.46875 6.11202 4.46875C5.9245 4.46875 5.77246 4.62266 5.77246 4.8125V9.28125C5.77246 9.47109 5.92448 9.625 6.11202 9.625Z" fill="#F64E60"/>
<path d="M2.71651 9.625C2.90403 9.625 3.05607 9.47109 3.05607 9.28125V4.8125C3.05607 4.62266 2.90403 4.46875 2.71651 4.46875C2.52899 4.46875 2.37695 4.62266 2.37695 4.8125V9.28125C2.37695 9.47109 2.52897 9.625 2.71651 9.625Z" fill="#F64E60"/>
</svg>
