<svg width="20" height="24" viewBox="0 0 20 24" fill="none" xmlns="http://www.w3.org/2000/svg">
<path d="M19.894 0.180678C19.8349 0.102912 19.7559 0.0465641 19.6672 0.0189949C19.5785 -0.00857443 19.4843 -0.0060831 19.397 0.026143L2.03501 6.41157C1.95661 6.44036 1.88675 6.49197 1.83286 6.56091C1.77897 6.62984 1.74305 6.71355 1.72891 6.80313C1.71478 6.89271 1.72295 6.98483 1.75257 7.06972C1.78219 7.1546 1.83215 7.22908 1.89714 7.28525L6.33985 11.1253V14.7308C6.3398 14.8252 6.36383 14.9176 6.40923 14.9976C6.45462 15.0776 6.51954 15.142 6.59658 15.1834C6.67362 15.2248 6.75969 15.2416 6.84497 15.2318C6.93025 15.222 7.01131 15.186 7.07891 15.128L9.03447 13.4537L11.8214 15.8627C11.8737 15.9078 11.9344 15.9399 11.9991 15.9567C12.0638 15.9735 12.1311 15.9747 12.1962 15.96C12.2614 15.9453 12.3228 15.9152 12.3763 15.8717C12.4299 15.8283 12.4741 15.7726 12.5061 15.7084L19.9445 0.74414C19.9884 0.655463 20.007 0.554338 19.998 0.453871C19.989 0.353403 19.9528 0.258227 19.894 0.180678ZM16.9501 1.98848L6.80605 10.2473L3.13091 7.07057L16.9501 1.98848ZM7.2555 13.7009V11.9167L8.29253 12.8131L7.2555 13.7009ZM11.9624 14.7038L7.55243 10.8925L18.143 2.26992L11.9624 14.7038Z" fill="white"/>
<path d="M0.913134 20.9457C0.79747 20.9051 0.671881 20.9167 0.563961 20.9779C0.456041 21.0391 0.374619 21.1449 0.337586 21.2721C0.220907 21.6732 0.111552 22.1006 0.0131859 22.5423C-0.0157472 22.6721 0.00336112 22.8091 0.0663076 22.9234C0.129254 23.0376 0.230882 23.1197 0.348835 23.1515C0.466788 23.1834 0.591404 23.1623 0.695268 23.0931C0.799132 23.0239 0.873737 22.9121 0.90267 22.7823C0.996328 22.363 1.09966 21.9581 1.2098 21.5788C1.22816 21.5158 1.23504 21.4495 1.23006 21.3836C1.22508 21.3176 1.20833 21.2534 1.18078 21.1946C1.15323 21.1358 1.1154 21.0836 1.06948 21.0409C1.02356 20.9982 0.970427 20.9658 0.913134 20.9457Z" fill="white"/>
<path d="M5.45549 16.1574C4.87683 15.9703 4.25752 16.0057 3.69954 16.2575C3.84108 15.5783 4.10658 14.9378 4.47993 14.3749C4.55194 14.2697 4.58362 14.1377 4.56821 14.0071C4.55279 13.8765 4.4915 13.7578 4.39746 13.6763C4.30342 13.5949 4.18412 13.5571 4.06511 13.5713C3.9461 13.5854 3.83684 13.6502 3.76076 13.7519C3.70844 13.825 2.73027 15.2117 2.71614 16.8984C2.0172 17.5607 1.45302 18.3776 1.06039 19.2958C1.03328 19.3549 1.01702 19.4192 1.01251 19.4852C1.00801 19.5512 1.01537 19.6174 1.03416 19.6803C1.05295 19.7431 1.08281 19.8013 1.12203 19.8514C1.16125 19.9016 1.20907 19.9427 1.26275 19.9725C1.31643 20.0024 1.37492 20.0202 1.43489 20.0252C1.49486 20.0301 1.55512 20.0221 1.61225 20.0014C1.72762 19.9596 1.82319 19.8692 1.87793 19.7499C2.14108 19.1533 2.48023 18.601 2.88514 18.1096C2.90555 18.177 2.92796 18.2441 2.95238 18.3111C3.11936 18.8243 3.43604 19.2624 3.85304 19.557C4.27004 19.8515 4.76393 19.9861 5.25771 19.9396C5.65861 19.8883 6.03103 19.686 6.31176 19.367C6.59249 19.0481 6.76423 18.6321 6.79783 18.1896C6.90456 17.2978 6.35256 16.4615 5.45549 16.1574ZM5.89003 18.0584C5.88086 18.2789 5.80078 18.4886 5.66407 18.6502C5.52736 18.8117 5.34292 18.9146 5.14365 18.9404C4.85078 18.9594 4.56044 18.8713 4.31788 18.6898C4.07531 18.5082 3.89415 18.2436 3.80262 17.937C3.74004 17.7651 3.6946 17.5863 3.6671 17.4037C3.88801 17.2419 4.13732 17.133 4.39892 17.0838C4.66052 17.0347 4.92858 17.0465 5.18577 17.1185C5.64777 17.2765 5.93738 17.663 5.89003 18.0584Z" fill="white"/>
</svg>
