<svg width="16" height="16" viewBox="0 0 16 16" fill="none" xmlns="http://www.w3.org/2000/svg">
<path d="M7.24636 15.5108C5.37524 15.4271 3.60273 14.6289 2.27857 13.2736C0.954413 11.9184 0.174778 10.1046 0.0934952 8.19009C0.0888792 8.17042 0.0864197 8.15029 0.0861621 8.13007C0.0845605 8.11582 0.0845605 8.10144 0.0861621 8.08719C0.0959303 8.02339 0.127719 7.96528 0.175766 7.92339C0.223813 7.88151 0.284937 7.85862 0.348057 7.85889H2.59302C2.6581 7.8588 2.72091 7.8834 2.76928 7.92795C2.81766 7.9725 2.84817 8.03382 2.85491 8.10005C2.85491 8.1097 2.85491 8.11935 2.85491 8.13007C2.92023 9.31023 3.40591 10.425 4.22012 11.2636C5.03432 12.1022 6.12062 12.6065 7.2736 12.6811C7.2844 12.68 7.29528 12.68 7.30608 12.6811C7.32653 12.6815 7.3469 12.684 7.36684 12.6886C7.42598 12.7018 7.47897 12.7352 7.51706 12.7833C7.55515 12.8315 7.57607 12.8915 7.57635 12.9534V15.2471C7.57594 15.3114 7.55331 15.3735 7.51247 15.4223C7.47163 15.4712 7.41522 15.5037 7.35322 15.514C7.33965 15.5157 7.32593 15.5157 7.31236 15.514C7.2919 15.5138 7.27153 15.5113 7.2516 15.5065L7.24636 15.5108Z" fill="#FFB600"/>
<path d="M0.321664 3.02952H0.349948C1.50385 3.09611 2.5939 3.59304 3.41392 4.42633C4.23395 5.25963 4.72709 6.3715 4.80006 7.55165C4.79852 7.56267 4.79852 7.57386 4.80006 7.58488C4.80037 7.60616 4.80283 7.62735 4.8074 7.64812C4.82111 7.70745 4.85404 7.76029 4.90083 7.79804C4.94762 7.83579 5.00551 7.85624 5.0651 7.85606H7.30797C7.3707 7.85589 7.43133 7.83296 7.4791 7.79136C7.52686 7.74975 7.55865 7.69216 7.56881 7.62882C7.57036 7.61458 7.57036 7.6002 7.56881 7.58595C7.56916 7.56534 7.56669 7.54477 7.56148 7.52486C7.48027 5.61078 6.70112 3.79729 5.37764 2.44196C4.05416 1.08663 2.28242 0.287829 0.411755 0.203058C0.391795 0.198634 0.371419 0.196477 0.350996 0.196627C0.337049 0.195526 0.32304 0.195526 0.309093 0.196627C0.246286 0.206911 0.189189 0.239962 0.148224 0.289747C0.107259 0.339532 0.0851593 0.40273 0.0859584 0.467804V2.76049C0.0858419 2.8272 0.109856 2.89159 0.153376 2.94126C0.196895 2.99094 0.25684 3.02238 0.321664 3.02952Z" fill="#FFB600"/>
<path d="M7.80839 3.03099H7.83772C8.99107 3.09757 10.0806 3.59427 10.9002 4.42717C11.7199 5.26006 12.2128 6.37139 12.2857 7.55097C12.2857 7.56169 12.2857 7.57348 12.2857 7.5842C12.2855 7.60551 12.288 7.62677 12.2931 7.64744C12.3065 7.70753 12.3395 7.76113 12.3868 7.79934C12.434 7.83755 12.4926 7.85808 12.5529 7.85752H14.7968C14.8596 7.85718 14.9203 7.83422 14.9681 7.79266C15.016 7.75111 15.0481 7.69362 15.0587 7.63029C15.0597 7.61602 15.0597 7.60169 15.0587 7.58741C15.0594 7.56685 15.0572 7.54629 15.0524 7.52632C14.9709 5.61162 14.1911 3.79768 12.8668 2.44229C11.5424 1.08691 9.76981 0.288493 7.89848 0.204522C7.87885 0.20028 7.85884 0.198124 7.83877 0.198091C7.82482 0.19699 7.81081 0.19699 7.79687 0.198091C7.7346 0.208293 7.67792 0.240877 7.63703 0.289991C7.59613 0.339105 7.57369 0.40153 7.57373 0.466053V2.76195C7.57359 2.8285 7.59745 2.89275 7.64076 2.9424C7.68406 2.99205 7.74375 3.02359 7.80839 3.03099Z" fill="#FFB600"/>
<path d="M15.0521 15.1838C14.97 13.2695 14.1899 11.4563 12.8656 10.1015C11.5414 8.74674 9.76902 7.94885 7.89814 7.86518C7.87819 7.86051 7.85783 7.85799 7.83738 7.85767C7.82345 7.85604 7.80939 7.85604 7.79547 7.85767C7.73229 7.86756 7.6748 7.90064 7.63373 7.95075C7.59266 8.00086 7.57084 8.06455 7.57234 8.12992V10.4215C7.57222 10.4882 7.59624 10.5526 7.63976 10.6023C7.68327 10.652 7.74322 10.6834 7.80804 10.6906H7.83738C8.99089 10.7572 10.0806 11.254 10.9002 12.0871C11.7199 12.9203 12.2127 14.0319 12.2854 15.2116C12.2848 15.2227 12.2848 15.2338 12.2854 15.2449C12.2852 15.2658 12.2877 15.2867 12.2927 15.307C12.3054 15.3675 12.3378 15.4216 12.3847 15.4606C12.4316 15.4996 12.49 15.5211 12.5504 15.5214H14.7943C14.8573 15.521 14.9181 15.4979 14.966 15.4561C15.0139 15.4144 15.0459 15.3566 15.0562 15.2931V15.2845C15.0562 15.2738 15.0562 15.262 15.0562 15.2513C15.0579 15.2287 15.0565 15.206 15.0521 15.1838Z" fill="#FFB600"/>
</svg>
