<svg width="19" height="19" viewBox="0 0 19 19" fill="none" xmlns="http://www.w3.org/2000/svg">
<path d="M15.1035 0H3.89648C1.74796 0 0 1.74796 0 3.89648V15.1035C0 17.252 1.74796 19 3.89648 19H15.1035C17.252 19 19 17.252 19 15.1035V3.89648C19 1.74796 17.252 0 15.1035 0ZM17.8867 15.1035C17.8867 16.6382 16.6382 17.8867 15.1035 17.8867H3.89648C2.36183 17.8867 1.11328 16.6382 1.11328 15.1035V3.89648C1.11328 2.36183 2.36183 1.11328 3.89648 1.11328H15.1035C16.6382 1.11328 17.8867 2.36183 17.8867 3.89648V15.1035Z" fill="#0398F2"/>
<path d="M14.6769 9.87109L14.4384 7.12879C14.3628 6.25924 13.6477 5.60352 12.7748 5.60352H7.08789V4.67578C7.08789 4.57347 7.17112 4.49023 7.27343 4.49023H8.20117V4.86133H10.4277V3.00586H8.20117V3.37695H7.27343C6.55726 3.37695 5.97461 3.95961 5.97461 4.67578V5.62203C5.21887 5.73373 4.62976 6.34411 4.56156 7.12879L4.32309 9.87109H3.34904V10.9844H15.6509V9.87109H14.6769ZM5.44057 9.87109L5.67061 7.2252C5.69584 6.93537 5.93423 6.7168 6.22513 6.7168H12.7748C13.0657 6.7168 13.3041 6.93537 13.3293 7.2252L13.5594 9.87109H5.44057Z" fill="#0398F2"/>
<path d="M10.0566 14.8809V12.0977H8.94336V14.8809H6.90234V15.9941H12.0977V14.8809H10.0566Z" fill="#0398F2"/>
</svg>
