<svg width="15" height="15" viewBox="0 0 15 15" fill="none" xmlns="http://www.w3.org/2000/svg">
<g clip-path="url(#clip0)">
<path d="M14.5311 7.03171H8.59374C8.33499 7.03171 8.125 6.82172 8.125 6.56298C8.125 6.30423 8.33499 6.09424 8.59374 6.09424H14.5311C14.7898 6.09424 14.9998 6.30423 14.9998 6.56298C14.9998 6.82172 14.7898 7.03171 14.5311 7.03171Z" fill="white"/>
<path d="M12.1874 9.37545C12.0673 9.37545 11.9474 9.32979 11.8561 9.23801C11.673 9.05479 11.673 8.75794 11.8561 8.57484L13.8686 6.56246L11.8561 4.54997C11.673 4.36687 11.673 4.07002 11.8561 3.88692C12.0393 3.70371 12.3361 3.70371 12.5192 3.88692L14.8629 6.2306C15.046 6.4137 15.046 6.71055 14.8629 6.89365L12.5192 9.23732C12.4273 9.32979 12.3074 9.37545 12.1874 9.37545V9.37545Z" fill="white"/>
<path d="M4.99988 15.0005C4.8661 15.0005 4.73919 14.9817 4.6124 14.9424L0.851185 13.6893C0.339421 13.5105 0 13.0337 0 12.5006V1.25098C0 0.561605 0.560629 0.000976562 1.25 0.000976562C1.38366 0.000976562 1.51057 0.0197443 1.63748 0.0591107L5.39858 1.3122C5.91046 1.49095 6.24977 1.96781 6.24977 2.50086V13.7505C6.24977 14.4399 5.68925 15.0005 4.99988 15.0005ZM1.25 0.938447C1.07811 0.938447 0.937471 1.07909 0.937471 1.25098V12.5006C0.937471 12.6337 1.02685 12.7574 1.15433 12.8018L4.89792 14.0493C4.92481 14.058 4.95983 14.063 4.99988 14.063C5.17177 14.063 5.3123 13.9224 5.3123 13.7505V2.50086C5.3123 2.36777 5.22292 2.24406 5.09544 2.19966L1.35185 0.95218C1.32496 0.943483 1.28994 0.938447 1.25 0.938447V0.938447Z" fill="white"/>
<path d="M9.5309 5.00037C9.27216 5.00037 9.06217 4.79038 9.06217 4.53164V1.71922C9.06217 1.2886 8.71164 0.937959 8.28102 0.937959H1.24999C0.991243 0.937959 0.78125 0.727967 0.78125 0.469224C0.78125 0.210481 0.991243 0.000488281 1.24999 0.000488281H8.28102C9.22913 0.000488281 9.99964 0.771109 9.99964 1.71922V4.53164C9.99964 4.79038 9.78964 5.00037 9.5309 5.00037Z" fill="white"/>
<path d="M8.28123 13.1249H5.78124C5.52249 13.1249 5.3125 12.9149 5.3125 12.6561C5.3125 12.3974 5.52249 12.1874 5.78124 12.1874H8.28123C8.71186 12.1874 9.06238 11.8368 9.06238 11.4061V8.59373C9.06238 8.33499 9.27238 8.125 9.53112 8.125C9.78986 8.125 9.99985 8.33499 9.99985 8.59373V11.4061C9.99985 12.3543 9.22935 13.1249 8.28123 13.1249V13.1249Z" fill="white"/>
</g>
<defs>
<clipPath id="clip0">
<rect width="15" height="15" fill="white"/>
</clipPath>
</defs>
</svg>
