<svg width="20" height="20" viewBox="0 0 20 20" fill="none" xmlns="http://www.w3.org/2000/svg">
<path d="M19.5689 9.30119L16.3568 7.69535L19.5689 6.08935C20.1434 5.80218 20.144 4.97942 19.5689 4.69179L10.3495 0.0823979C10.1294 -0.027466 9.8706 -0.027466 9.65055 0.0823979L0.43113 4.69179C-0.143405 4.97912 -0.144015 5.80188 0.43113 6.08935L3.64319 7.69535L0.43113 9.30119C-0.143405 9.58852 -0.144015 10.4111 0.43113 10.6988L3.64319 12.3047L0.43113 13.9106C-0.143405 14.1979 -0.144015 15.0205 0.43113 15.3081L9.65055 19.9175C9.87014 20.0273 10.1289 20.0277 10.3495 19.9175L19.5689 15.3081C20.1434 15.0208 20.144 14.1982 19.5689 13.9106L16.3568 12.3047L19.5689 10.6988C20.1434 10.4116 20.144 9.58882 19.5689 9.30119ZM10 1.65467L17.4723 5.39065L10 9.12648L2.52769 5.39065L10 1.65467ZM17.4723 14.6094L10 18.3453L2.52769 14.6094L5.39029 13.1782L9.65055 15.3081C9.87029 15.4179 10.1289 15.4183 10.3495 15.3081L14.6097 13.1782L17.4723 14.6094ZM10 13.7359L2.52769 10L5.39029 8.56877L9.65055 10.6988C9.87029 10.8085 10.1289 10.8089 10.3495 10.6988L14.6097 8.56877L17.4723 10L10 13.7359Z" fill="white"/>
</svg>
