<svg width="34" height="34" viewBox="0 0 34 34" fill="none" xmlns="http://www.w3.org/2000/svg">
<rect width="34" height="34" rx="5" fill="#8950FC"/>
<g clip-path="url(#clip0)">
<path d="M14.9375 8H9.31245C8.58873 8 8 8.58873 8 9.31245V12.6875C8 13.4113 8.58873 14 9.31245 14H14.9375C15.6613 14 16.25 13.4113 16.25 12.6875V9.31245C16.25 8.58873 15.6613 8 14.9375 8Z" fill="white"/>
<path d="M14.9375 15.5H9.31245C8.58873 15.5 8 16.0887 8 16.8126V24.6876C8 25.4113 8.58873 26 9.31245 26H14.9375C15.6613 26 16.25 25.4113 16.25 24.6876V16.8126C16.25 16.0887 15.6613 15.5 14.9375 15.5Z" fill="white"/>
<path d="M24.6876 20H19.0626C18.3387 20 17.75 20.5887 17.75 21.3126V24.6876C17.75 25.4113 18.3387 26 19.0626 26H24.6876C25.4113 26 26 25.4113 26 24.6876V21.3126C26 20.5887 25.4113 20 24.6876 20Z" fill="white"/>
<path d="M24.6876 8H19.0626C18.3387 8 17.75 8.58873 17.75 9.31245V17.1875C17.75 17.9113 18.3387 18.5 19.0626 18.5H24.6876C25.4113 18.5 26 17.9113 26 17.1875V9.31245C26 8.58873 25.4113 8 24.6876 8Z" fill="#AC84FD"/>
</g>
<defs>
<clipPath id="clip0">
<rect width="18" height="18" fill="white" transform="translate(8 8)"/>
</clipPath>
</defs>
</svg>
