<svg width="17" height="19" viewBox="0 0 17 19" fill="none" xmlns="http://www.w3.org/2000/svg">
<path d="M17 7.49118V7.48952C17 7.47377 16.9992 7.45816 16.998 7.44263C16.9977 7.43839 16.9972 7.43418 16.9968 7.42994C16.9956 7.41776 16.9941 7.4057 16.9922 7.39375C16.9915 7.38925 16.9908 7.38474 16.99 7.38028C16.9874 7.36571 16.9843 7.35125 16.9806 7.33704C16.9803 7.33564 16.98 7.3342 16.9796 7.3328C16.9757 7.31826 16.9712 7.30399 16.9663 7.28989C16.9644 7.28451 16.9624 7.27923 16.9604 7.27388C16.9567 7.26436 16.9529 7.25496 16.9487 7.2457C16.9463 7.24031 16.9441 7.23489 16.9415 7.22957C16.9353 7.21663 16.9287 7.20393 16.9216 7.19154C16.919 7.18693 16.916 7.1825 16.9132 7.17796C16.9077 7.16892 16.902 7.16007 16.8959 7.15144C16.8927 7.14682 16.8895 7.14225 16.8861 7.13771C16.8774 7.12594 16.8684 7.11443 16.8588 7.10348C16.858 7.10263 16.8573 7.10174 16.8565 7.10089C16.8462 7.08927 16.8352 7.07832 16.824 7.06769C16.8226 7.06636 16.8214 7.06489 16.82 7.0636L15.9707 6.28056V3.8741C15.9707 3.16212 15.4494 2.58287 14.8086 2.58287H11.9606L9.66623 0.467279C8.99041 -0.15576 8.00952 -0.15576 7.33377 0.467279L5.03944 2.58283H2.19141C1.55062 2.58283 1.0293 3.16208 1.0293 3.87407V6.28052L0.179994 7.06367C0.1786 7.06496 0.177371 7.06644 0.175977 7.06776C0.164721 7.07839 0.153764 7.08935 0.143471 7.10097C0.142707 7.10182 0.141977 7.1027 0.141213 7.10355C0.131617 7.11451 0.122553 7.12602 0.11382 7.13779C0.110467 7.14229 0.107246 7.1469 0.104025 7.15151C0.0980156 7.16018 0.0922715 7.16903 0.0867266 7.17804C0.0839375 7.18257 0.0810156 7.187 0.0783594 7.19161C0.0712539 7.20397 0.0646465 7.21666 0.0584375 7.22965C0.0558809 7.23496 0.0535898 7.24038 0.0512324 7.24577C0.0471152 7.25503 0.0432637 7.26444 0.0396113 7.27396C0.0375859 7.27927 0.0355273 7.28458 0.033668 7.28997C0.0287539 7.30406 0.0242051 7.3183 0.0203535 7.33287C0.0199883 7.33428 0.0196895 7.33568 0.0193242 7.33712C0.0156387 7.35132 0.0126172 7.36578 0.00996094 7.38035C0.00916406 7.38485 0.0084668 7.38932 0.00776953 7.39382C0.00587695 7.40577 0.00434961 7.41784 0.0031543 7.43001C0.00275586 7.43425 0.00225781 7.43846 0.00192578 7.4427C0.000796875 7.45816 0 7.47377 0 7.48952V7.49118V7.49147V16.8594C0 17.4393 0.220402 17.9627 0.572621 18.3329C0.582615 18.344 0.592643 18.355 0.603334 18.365C0.927297 18.6901 1.35625 18.8885 1.82617 18.8885H15.1738C15.6438 18.8885 16.0728 18.6901 16.3968 18.3649C16.4074 18.3549 16.4173 18.344 16.4272 18.333C16.7795 17.9629 17 17.4394 17 16.8594V7.49147C17 7.4914 17 7.49129 17 7.49118ZM2.19141 3.68961H14.8086C14.9001 3.68961 14.9746 3.77235 14.9746 3.87407V8.17874L14.6928 8.43861L9.03012 13.6601C8.72296 13.9433 8.27704 13.9433 7.96988 13.6601L2.30722 8.43865L2.02539 8.17874V3.87407C2.02539 3.77235 2.09987 3.68961 2.19141 3.68961ZM0.996094 16.8594V8.66786L1.21032 8.86542C1.21045 8.86553 1.21059 8.86568 1.21072 8.86579L6.07395 13.3501L1.04709 17.1777C1.01412 17.0785 0.996094 16.9713 0.996094 16.8594ZM6.87095 14.085L7.33377 14.5118C8.00952 15.1349 8.99048 15.1348 9.66623 14.5118L10.129 14.085L14.984 17.7817H2.01596L6.87095 14.085ZM10.9261 13.3501L15.7892 8.86579C15.7894 8.86568 15.7895 8.86553 15.7896 8.86542L16.0039 8.66786V16.8594C16.0039 16.9713 15.9858 17.0785 15.9529 17.1777L10.9261 13.3501ZM7.96988 1.31901C8.27704 1.03579 8.72296 1.03579 9.03012 1.31901L10.4008 2.58287H6.59922L7.96988 1.31901Z" fill="white"/>
<path d="M4.36621 6.08757C4.36621 6.39318 4.5892 6.64095 4.86426 6.64095H9.5791C9.85416 6.64095 10.0771 6.39318 10.0771 6.08757C10.0771 5.78195 9.85416 5.53418 9.5791 5.53418H4.86426C4.5892 5.53418 4.36621 5.78195 4.36621 6.08757Z" fill="white"/>
<path d="M4.86426 8.85335H12.1357C12.3678 8.85335 12.5622 8.67679 12.6175 8.43817C12.6277 8.3939 12.6338 8.34778 12.6338 8.29997C12.6338 7.99435 12.4108 7.74658 12.1357 7.74658H4.86426C4.5892 7.74658 4.36621 7.99435 4.36621 8.29997C4.36621 8.34778 4.37225 8.39393 4.38251 8.43817C4.43783 8.67682 4.63223 8.85335 4.86426 8.85335Z" fill="white"/>
</svg>
