<svg width="21" height="21" viewBox="0 0 21 21" fill="none" xmlns="http://www.w3.org/2000/svg">
<path d="M11.5749 0.806863C11.4253 0.683488 11.2271 0.6323 11.0355 0.667738L0.5355 2.63649C0.224437 2.69424 0 2.96461 0 3.28093V17.7184C0 18.0334 0.224437 18.3051 0.5355 18.3629L11.0355 20.3316C11.0749 20.3395 11.1169 20.3434 11.1562 20.3434C11.3072 20.3434 11.4568 20.2909 11.5749 20.1925C11.7259 20.0678 11.8125 19.8814 11.8125 19.6872V1.31218C11.8125 1.11661 11.7259 0.93155 11.5749 0.806863ZM10.5 18.8957L1.3125 17.1737V3.82561L10.5 2.10361V18.8957Z" fill="#B9361A"/>
<path d="M20.3438 3.28088H11.1562C10.794 3.28088 10.5 3.57488 10.5 3.93713C10.5 4.29938 10.794 4.59338 11.1562 4.59338H19.6875V16.4059H11.1562C10.794 16.4059 10.5 16.6999 10.5 17.0621C10.5 17.4244 10.794 17.7184 11.1562 17.7184H20.3438C20.706 17.7184 21 17.4244 21 17.0621V3.93713C21 3.57488 20.706 3.28088 20.3438 3.28088Z" fill="#B9361A"/>
<path d="M17.7188 13.7809H11.1562C10.794 13.7809 10.5 14.0749 10.5 14.4371C10.5 14.7994 10.794 15.0934 11.1562 15.0934H17.7188C18.081 15.0934 18.375 14.7994 18.375 14.4371C18.375 14.0749 18.081 13.7809 17.7188 13.7809Z" fill="#B9361A"/>
<path d="M4.59375 7.21838C4.2315 7.21838 3.9375 7.51238 3.9375 7.87463V14.4371C3.9375 14.7994 4.2315 15.0934 4.59375 15.0934C4.956 15.0934 5.25 14.7994 5.25 14.4371V7.87463C5.25 7.51238 4.956 7.21838 4.59375 7.21838Z" fill="#B9361A"/>
<path d="M6.5625 7.21838H4.59375C4.2315 7.21838 3.9375 7.51238 3.9375 7.87463C3.9375 8.23688 4.2315 8.53088 4.59375 8.53088H6.5625C7.28569 8.53088 7.875 9.12019 7.875 9.84338C7.875 10.5666 7.28569 11.1559 6.5625 11.1559H4.59375C4.2315 11.1559 3.9375 11.4499 3.9375 11.8121C3.9375 12.1744 4.2315 12.4684 4.59375 12.4684H6.5625C8.01019 12.4684 9.1875 11.2911 9.1875 9.84338C9.1875 8.39569 8.01019 7.21838 6.5625 7.21838Z" fill="#B9361A"/>
<path d="M15.0938 5.90588C13.2838 5.90588 11.8125 7.37851 11.8125 9.18713C11.8125 10.9957 13.2838 12.4684 15.0938 12.4684C16.9037 12.4684 18.375 10.9957 18.375 9.18713C18.375 7.37851 16.9037 5.90588 15.0938 5.90588ZM15.0938 11.1559C14.0083 11.1559 13.125 10.2726 13.125 9.18713C13.125 8.10169 14.0083 7.21838 15.0938 7.21838C16.1792 7.21838 17.0625 8.10169 17.0625 9.18713C17.0625 10.2726 16.1792 11.1559 15.0938 11.1559Z" fill="#B9361A"/>
<path d="M17.7188 8.53088H15.75V6.56213C15.75 6.19988 15.456 5.90588 15.0938 5.90588C14.7315 5.90588 14.4375 6.19988 14.4375 6.56213V9.18713C14.4375 9.54938 14.7315 9.84338 15.0938 9.84338H17.7188C18.081 9.84338 18.375 9.54938 18.375 9.18713C18.375 8.82488 18.081 8.53088 17.7188 8.53088Z" fill="#B9361A"/>
</svg>
