<svg width="21" height="21" viewBox="0 0 21 21" fill="none" xmlns="http://www.w3.org/2000/svg">
<rect width="20.6328" height="20.6328" rx="3" fill="black"/>
<g clip-path="url(#clip0)">
<path d="M4.27733 6.12028C4.28574 6.12028 4.29415 6.12028 4.30255 6.12028C6.21894 6.22468 7.74869 7.67836 7.87476 9.5095C7.87476 9.51753 7.87476 9.52557 7.87476 9.5336C7.87476 9.54966 7.87476 9.56572 7.88317 9.58178C7.90838 9.67013 7.99244 9.73438 8.0933 9.73438L9.89201 9.73438C10.0013 9.73438 10.0853 9.6621 10.1021 9.56572C10.1021 9.55769 10.1021 9.54163 10.1021 9.5336C10.1021 9.51753 10.1021 9.50147 10.0937 9.48541C9.95085 6.51381 7.4545 4.1285 4.34458 4.00803C4.32777 4 4.31096 4 4.29415 4C4.28574 4 4.27733 4 4.26052 4C4.15966 4.01606 4.08401 4.10441 4.08401 4.20078L4.08401 5.91949C4.08401 6.0239 4.16807 6.11224 4.27733 6.12028Z" fill="#FFB600"/>
<path d="M10.2787 6.12028C10.2871 6.12028 10.2955 6.12028 10.3039 6.12028C12.2203 6.22468 13.7585 7.67836 13.8761 9.5095C13.8761 9.51753 13.8761 9.52557 13.8761 9.5336C13.8761 9.54966 13.8761 9.56572 13.8845 9.58178C13.9098 9.67013 13.9938 9.73438 14.0947 9.73438L15.8934 9.73438C16.0027 9.73438 16.0867 9.6621 16.1035 9.56572C16.1035 9.55769 16.1035 9.54163 16.1035 9.5336C16.1035 9.51753 16.1035 9.50147 16.0951 9.48541C15.9606 6.51381 13.4643 4.1285 10.3544 4C10.3375 4 10.3207 4 10.3039 4C10.2955 4 10.2787 4 10.2703 4C10.1694 4.01606 10.0938 4.09638 10.0938 4.20078L10.0938 5.91949C10.0938 6.0239 10.1694 6.11224 10.2787 6.12028Z" fill="#FFB600"/>
<path d="M9.83318 15.4768C6.72325 15.3483 4.2269 12.963 4.09242 9.9914C4.08401 9.97534 4.08401 9.95928 4.08401 9.94322C4.08401 9.93518 4.08401 9.91912 4.08401 9.91109C4.10083 9.81471 4.18488 9.74243 4.29415 9.74243L6.09286 9.74243C6.20213 9.74243 6.29458 9.82274 6.30299 9.91912C6.30299 9.92715 6.30299 9.93518 6.30299 9.94322C6.41226 11.7744 7.9336 13.2361 9.84999 13.3565C9.85839 13.3565 9.8668 13.3565 9.8752 13.3565C9.89201 13.3565 9.90882 13.3565 9.92563 13.3646C10.0181 13.3887 10.0853 13.469 10.0853 13.5654L10.0853 15.2841C10.0853 15.3885 10.0097 15.4688 9.90882 15.4848C9.90042 15.4848 9.88361 15.4848 9.8752 15.4848C9.85839 15.4768 9.84158 15.4768 9.83318 15.4768Z" fill="#FFB600"/>
<path d="M16.0951 15.2278C15.9606 12.2562 13.4643 9.87091 10.3543 9.74241C10.3375 9.74241 10.3207 9.73437 10.3039 9.73437C10.2955 9.73437 10.2787 9.73437 10.2703 9.73437C10.1694 9.75044 10.0938 9.83075 10.0938 9.93516L10.0938 11.6539C10.0938 11.7583 10.1778 11.8466 10.2871 11.8546C10.2955 11.8546 10.3039 11.8546 10.3123 11.8546C12.2287 11.9591 13.7669 13.4127 13.8845 15.2439C13.8845 15.2519 13.8845 15.2599 13.8845 15.268C13.8845 15.284 13.8845 15.3001 13.8929 15.3162C13.9182 15.4045 14.0022 15.4688 14.1031 15.4688L15.9018 15.4688C16.011 15.4688 16.0951 15.3965 16.1119 15.3001L16.1119 15.2921C16.1119 15.284 16.1119 15.276 16.1119 15.268C16.0951 15.2599 16.0951 15.2439 16.0951 15.2278Z" fill="#FFB600"/>
<path d="M6.40389 10.7462C5.07587 10.7462 4 11.7742 4 13.0351C4 14.2961 5.07587 15.3321 6.40389 15.3321C7.73191 15.3321 8.80778 14.3041 8.80778 13.0351C8.80778 11.7662 7.72351 10.7462 6.40389 10.7462ZM7.45454 13.2279L6.59721 13.2279L6.59721 14.0391C6.59721 14.1435 6.50475 14.2318 6.39548 14.2318C6.28622 14.2318 6.19376 14.1435 6.19376 14.0391L6.19376 13.2279L5.35324 13.2279C5.24397 13.2279 5.15151 13.1396 5.15151 13.0351C5.15151 12.9307 5.24397 12.8424 5.35324 12.8424L6.20216 12.8424L6.20216 12.0312C6.20216 11.9268 6.29462 11.8385 6.40389 11.8385C6.51316 11.8385 6.60561 11.9268 6.60561 12.0312L6.60561 12.8424L7.45454 12.8424C7.56381 12.8424 7.65627 12.9307 7.65627 13.0351C7.64786 13.1396 7.56381 13.2279 7.45454 13.2279Z" fill="#231F20"/>
</g>
<defs>
<clipPath id="clip0">
<rect width="12.0951" height="11.4768" fill="white" transform="translate(4 4)"/>
</clipPath>
</defs>
</svg>
