<svg width="22" height="22" viewBox="0 0 22 22" fill="none" xmlns="http://www.w3.org/2000/svg">
<path d="M22 3.03442V21.2413C22 21.4425 21.9201 21.6355 21.7778 21.7777C21.6355 21.92 21.4426 21.9999 21.2414 21.9999H0.758621C0.557422 21.9999 0.364464 21.92 0.222195 21.7777C0.0799258 21.6355 0 21.4425 0 21.2413V3.03442H22Z" fill="#E0EDFF"/>
<path d="M0 3.03448V0.758621C0 0.557422 0.0799258 0.364464 0.222195 0.222195C0.364464 0.0799258 0.557422 0 0.758621 0H21.2414C21.4426 0 21.6355 0.0799258 21.7778 0.222195C21.9201 0.364464 22 0.557422 22 0.758621V3.03448H0Z" fill="#E0EDFF"/>
<path d="M1.51798 1.89705C1.72747 1.89705 1.89729 1.72723 1.89729 1.51774C1.89729 1.30825 1.72747 1.13843 1.51798 1.13843C1.30849 1.13843 1.13867 1.30825 1.13867 1.51774C1.13867 1.72723 1.30849 1.89705 1.51798 1.89705Z" fill="#BDD1F2"/>
<path d="M2.65568 1.89632C2.86516 1.89632 3.03499 1.72649 3.03499 1.51701C3.03499 1.30752 2.86516 1.1377 2.65568 1.1377C2.44619 1.1377 2.27637 1.30752 2.27637 1.51701C2.27637 1.72649 2.44619 1.89632 2.65568 1.89632Z" fill="#BDD1F2"/>
<path d="M3.79337 1.89632C4.00286 1.89632 4.17268 1.72649 4.17268 1.51701C4.17268 1.30752 4.00286 1.1377 3.79337 1.1377C3.58389 1.1377 3.41406 1.30752 3.41406 1.51701C3.41406 1.72649 3.58389 1.89632 3.79337 1.89632Z" fill="#BDD1F2"/>
<path d="M9.10352 9.48267H10.6208V10.9999H9.10352V9.48267Z" fill="#548AFF"/>
<path d="M10.6202 11.3794H9.10294C9.05313 11.3794 9.00381 11.3696 8.95779 11.3505C8.91176 11.3314 8.86995 11.3035 8.83473 11.2683C8.7995 11.2331 8.77156 11.1912 8.7525 11.1452C8.73344 11.0992 8.72363 11.0499 8.72363 11.0001V9.48283C8.72363 9.43301 8.73344 9.38369 8.7525 9.33767C8.77156 9.29165 8.7995 9.24983 8.83473 9.21461C8.86995 9.17939 8.91176 9.15145 8.95779 9.13239C9.00381 9.11332 9.05313 9.10351 9.10294 9.10352H10.6202C10.67 9.10351 10.7193 9.11332 10.7653 9.13239C10.8114 9.15145 10.8532 9.17939 10.8884 9.21461C10.9236 9.24983 10.9516 9.29165 10.9706 9.33767C10.9897 9.38369 10.9995 9.43301 10.9995 9.48283V11.0001C10.9995 11.0499 10.9897 11.0992 10.9706 11.1452C10.9516 11.1912 10.9236 11.2331 10.8884 11.2683C10.8532 11.3035 10.8114 11.3314 10.7653 11.3505C10.7193 11.3696 10.67 11.3794 10.6202 11.3794ZM9.48225 10.6208H10.2409V9.86214H9.48225V10.6208Z" fill="#7DAFFF"/>
<path d="M12.1377 9.86182H13.2756V10.6204H12.1377V9.86182Z" fill="#548AFF"/>
<path d="M14.0342 9.86182H19.3445V10.6204H14.0342V9.86182Z" fill="#548AFF"/>
<path d="M9.10352 12.5171H10.6208V14.0343H9.10352V12.5171Z" fill="#548AFF"/>
<path d="M10.6202 14.4136H9.10294C9.05313 14.4136 9.00381 14.4037 8.95779 14.3847C8.91176 14.3656 8.86995 14.3377 8.83473 14.3025C8.7995 14.2672 8.77156 14.2254 8.7525 14.1794C8.73344 14.1334 8.72363 14.0841 8.72363 14.0342V12.517C8.72363 12.4672 8.73344 12.4179 8.7525 12.3718C8.77156 12.3258 8.7995 12.284 8.83473 12.2488C8.86995 12.2136 8.91176 12.1856 8.95779 12.1666C9.00381 12.1475 9.05313 12.1377 9.10294 12.1377H10.6202C10.67 12.1377 10.7193 12.1475 10.7653 12.1666C10.8114 12.1856 10.8532 12.2136 10.8884 12.2488C10.9236 12.284 10.9516 12.3258 10.9706 12.3718C10.9897 12.4179 10.9995 12.4672 10.9995 12.517V14.0342C10.9995 14.0841 10.9897 14.1334 10.9706 14.1794C10.9516 14.2254 10.9236 14.2672 10.8884 14.3025C10.8532 14.3377 10.8114 14.3656 10.7653 14.3847C10.7193 14.4037 10.67 14.4136 10.6202 14.4136ZM9.48225 13.6549H10.2409V12.8963H9.48225V13.6549Z" fill="#7DAFFF"/>
<path d="M12.1377 12.8965H13.2756V13.6551H12.1377V12.8965Z" fill="#548AFF"/>
<path d="M14.0342 12.8965H19.3445V13.6551H14.0342V12.8965Z" fill="#548AFF"/>
<path d="M9.10352 15.5518H10.6208V17.069H9.10352V15.5518Z" fill="#548AFF"/>
<path d="M10.6202 17.4482H9.10294C9.05313 17.4482 9.00381 17.4384 8.95779 17.4194C8.91176 17.4003 8.86995 17.3724 8.83473 17.3371C8.7995 17.3019 8.77156 17.2601 8.7525 17.2141C8.73344 17.1681 8.72363 17.1187 8.72363 17.0689V15.5517C8.72363 15.5019 8.73344 15.4525 8.7525 15.4065C8.77156 15.3605 8.7995 15.3187 8.83473 15.2835C8.86995 15.2482 8.91176 15.2203 8.95779 15.2012C9.00381 15.1822 9.05313 15.1724 9.10294 15.1724H10.6202C10.67 15.1724 10.7193 15.1822 10.7653 15.2012C10.8114 15.2203 10.8532 15.2482 10.8884 15.2835C10.9236 15.3187 10.9516 15.3605 10.9706 15.4065C10.9897 15.4525 10.9995 15.5019 10.9995 15.5517V17.0689C10.9995 17.1187 10.9897 17.1681 10.9706 17.2141C10.9516 17.2601 10.9236 17.3019 10.8884 17.3371C10.8532 17.3724 10.8114 17.4003 10.7653 17.4194C10.7193 17.4384 10.67 17.4482 10.6202 17.4482ZM9.48225 16.6896H10.2409V15.931H9.48225V16.6896Z" fill="#7DAFFF"/>
<path d="M12.1377 15.9309H13.2756V16.6895H12.1377V15.9309Z" fill="#548AFF"/>
<path d="M14.0342 15.9309H19.3445V16.6895H14.0342V15.9309Z" fill="#548AFF"/>
<path d="M9.10352 18.5862H10.6208V20.1034H9.10352V18.5862Z" fill="#548AFF"/>
<path d="M10.6202 20.4826H9.10294C9.05313 20.4827 9.00381 20.4728 8.95779 20.4538C8.91176 20.4347 8.86995 20.4068 8.83473 20.3716C8.7995 20.3363 8.77156 20.2945 8.7525 20.2485C8.73344 20.2025 8.72363 20.1532 8.72363 20.1033V18.5861C8.72363 18.5363 8.73344 18.487 8.7525 18.4409C8.77156 18.3949 8.7995 18.3531 8.83473 18.3179C8.86995 18.2827 8.91176 18.2547 8.95779 18.2357C9.00381 18.2166 9.05313 18.2068 9.10294 18.2068H10.6202C10.67 18.2068 10.7193 18.2166 10.7653 18.2357C10.8114 18.2547 10.8532 18.2827 10.8884 18.3179C10.9236 18.3531 10.9516 18.3949 10.9706 18.4409C10.9897 18.487 10.9995 18.5363 10.9995 18.5861V20.1033C10.9995 20.1532 10.9897 20.2025 10.9706 20.2485C10.9516 20.2945 10.9236 20.3363 10.8884 20.3716C10.8532 20.4068 10.8114 20.4347 10.7653 20.4538C10.7193 20.4728 10.67 20.4827 10.6202 20.4826ZM9.48225 19.724H10.2409V18.9654H9.48225V19.724Z" fill="#7DAFFF"/>
<path d="M12.1377 18.9653H13.2756V19.724H12.1377V18.9653Z" fill="#548AFF"/>
<path d="M14.0342 18.9653H19.3445V19.724H14.0342V18.9653Z" fill="#548AFF"/>
<path d="M1.89648 3.79297V20.1033H7.20683V7.58607H20.1034V3.79297H1.89648Z" fill="#548AFF"/>
<path d="M1.89648 7.58594H7.20683V8.34456H1.89648V7.58594Z" fill="#4976F2"/>
<path d="M19.3447 3.79321H20.1033V7.58632H19.3447V3.79321Z" fill="#4976F2"/>
</svg>
