<svg width="45" height="45" viewBox="0 0 45 45" fill="none" xmlns="http://www.w3.org/2000/svg">
<path d="M40.8305 29.0972L34.0794 35.8483C31.6839 38.2438 27.7862 38.2437 25.3908 35.8483L10.665 21.1224C10.0895 20.5469 9.29619 20.2727 8.48827 20.3701L2.62462 21.1178C1.66212 21.2337 0.787942 20.5475 0.671947 19.585C0.55604 18.6224 1.24226 17.7482 2.20484 17.6323L8.06849 16.8846C9.95359 16.6575 11.8048 17.2973 13.1475 18.64L27.8734 33.3659C28.9 34.3925 30.5704 34.3925 31.5971 33.3659L38.3482 26.6148C39.0337 25.9293 40.1451 25.9293 40.8306 26.6148C41.516 27.3003 41.516 28.4116 40.8305 29.0972Z" fill="#F4FBFF"/>
<path d="M40.7063 27.1388L33.1484 34.6967C31.1947 36.6504 28.0271 36.6503 26.0734 34.6967L11.0373 19.6605C10.4618 19.085 9.66851 18.8108 8.86058 18.9082L0.74707 19.9226C1.00235 20.7021 1.77916 21.2192 2.62452 21.1174L8.48817 20.3697C9.29618 20.2724 10.0895 20.5466 10.6649 21.122L25.3908 35.8478C27.7862 38.2432 31.6839 38.2433 34.0794 35.8478L40.8305 29.0967C41.4621 28.4651 41.5102 27.4727 40.9779 26.7843C40.9037 26.9106 40.8146 27.0304 40.7063 27.1388Z" fill="#E4F6FF"/>
<path d="M23.1047 44.325C25.9676 44.325 28.2884 42.0042 28.2884 39.1413C28.2884 36.2784 25.9676 33.9575 23.1047 33.9575C20.2417 33.9575 17.9209 36.2784 17.9209 39.1413C17.9209 42.0042 20.2417 44.325 23.1047 44.325Z" fill="#365E7D"/>
<path d="M25.9069 34.7825C26.428 35.591 26.7317 36.5529 26.7317 37.5863C26.7317 40.4492 24.4109 42.7701 21.548 42.7701C20.5146 42.7701 19.5526 42.4665 18.7441 41.9453C19.6667 43.3766 21.2736 44.3252 23.1032 44.3252C25.9661 44.3252 28.2869 42.0043 28.2869 39.1414C28.2868 37.312 27.3382 35.7051 25.9069 34.7825Z" fill="#2B4D66"/>
<path d="M23.1033 40.9927C24.1258 40.9927 24.9547 40.1639 24.9547 39.1414C24.9547 38.1189 24.1258 37.29 23.1033 37.29C22.0808 37.29 21.252 38.1189 21.252 39.1414C21.252 40.1639 22.0808 40.9927 23.1033 40.9927Z" fill="#F4FBFF"/>
<path d="M23.5402 37.3442C23.5743 37.4848 23.5944 37.6306 23.5944 37.7816C23.5944 38.8041 22.7655 39.6329 21.743 39.6329C21.592 39.6329 21.4462 39.6129 21.3057 39.5788C21.5025 40.3898 22.2313 40.9928 23.1029 40.9928C24.1254 40.9928 24.9542 40.164 24.9542 39.1415C24.9542 38.2699 24.3512 37.541 23.5402 37.3442Z" fill="#E4F6FF"/>
<path d="M43.9484 21.0097L32.8319 32.1261C32.3171 32.6409 31.4826 32.6409 30.9678 32.1261L20.4456 21.604C19.9309 21.0892 19.9309 20.2546 20.4456 19.7399L31.562 8.62338C32.0768 8.10861 32.9114 8.10861 33.4261 8.62338L43.9483 19.1456C44.4632 19.6603 44.4632 20.495 43.9484 21.0097Z" fill="#FFE07D"/>
<path d="M28.0961 12.0897L18.2831 21.9028C17.7683 22.4175 16.9338 22.4175 16.419 21.9028L7.23667 12.7205C6.72189 12.2057 6.72189 11.3712 7.23667 10.8564L17.0498 1.04331C17.5645 0.528533 18.3991 0.528533 18.9139 1.04331L28.0961 10.2256C28.6109 10.7403 28.6109 11.5749 28.0961 12.0897Z" fill="#FFD064"/>
<path d="M17.0507 1.04187L16.5117 1.58081L25.1573 10.2264C25.6715 10.7406 25.6715 11.5741 25.1573 12.0882L15.8809 21.3647L16.4198 21.9036C16.934 22.4178 17.7675 22.4178 18.2816 21.9036L28.097 12.0882C28.6112 11.5741 28.6112 10.7405 28.097 10.2264L18.9125 1.04187C18.3984 0.527711 17.5648 0.527711 17.0507 1.04187Z" fill="#FFC250"/>
<path d="M14.6215 3.47168L22.9423 11.7925C23.1825 12.0327 23.1825 12.4222 22.9423 12.6624L18.0706 17.5341C17.8303 17.7743 17.4409 17.7743 17.2007 17.5341L8.87988 9.21327L14.6215 3.47168Z" fill="#F4FBFF"/>
<path d="M31.5631 8.62243L31.0141 9.17139L40.9896 19.1469C41.5038 19.6611 41.5038 20.4946 40.9896 21.0087L30.4199 31.5784L30.969 32.1275C31.4831 32.6416 32.3167 32.6416 32.8308 32.1275L43.9494 21.0088C44.4636 20.4946 44.4636 19.6611 43.9494 19.147L33.4249 8.62243C32.9108 8.10828 32.0772 8.10828 31.5631 8.62243Z" fill="#FFD064"/>
<path d="M42.0016 17.1996L31.7969 27.4044C31.5566 27.6446 31.1672 27.6446 30.9269 27.4044L26.0552 22.5327C25.8149 22.2924 25.8149 21.9029 26.0552 21.6628L36.26 11.458L42.0016 17.1996Z" fill="#F4FBFF"/>
<path d="M22.9425 11.7925L14.6217 3.47168L13.6592 4.43418L21.0175 11.7925C21.2577 12.0327 21.2577 12.4222 21.0175 12.6624L16.6734 17.0066L17.2009 17.5341C17.4412 17.7743 17.8306 17.7743 18.0708 17.5341L22.9425 12.6624C23.1827 12.4222 23.1827 12.0327 22.9425 11.7925Z" fill="#E4F6FF"/>
<path d="M36.2601 11.458L35.2976 12.4205L39.5796 16.7025C39.8541 16.977 39.8541 17.4222 39.5796 17.6967L30.3994 26.8769L30.9269 27.4044C31.1672 27.6446 31.5566 27.6446 31.7968 27.4044L42.0016 17.1996L36.2601 11.458Z" fill="#E4F6FF"/>
<path d="M21.3288 37.3671C20.8548 37.8411 20.5938 38.4714 20.5938 39.1417C20.5938 39.812 20.8547 40.4423 21.3288 40.9162C21.8028 41.3902 22.4331 41.6513 23.1034 41.6513C23.7737 41.6513 24.4039 41.3902 24.8779 40.9162C25.3519 40.4423 25.613 39.812 25.613 39.1417C25.613 38.4714 25.352 37.8411 24.8779 37.3671C24.8779 37.3671 24.8779 37.3671 24.8779 37.3671C23.8994 36.3887 22.3073 36.3887 21.3288 37.3671ZM23.9471 39.9853C23.7217 40.2106 23.4221 40.3348 23.1034 40.3348C22.7847 40.3348 22.4851 40.2107 22.2597 39.9852C22.0344 39.7599 21.9102 39.4603 21.9102 39.1416C21.9102 38.823 22.0343 38.5233 22.2597 38.2979C22.4923 38.0653 22.7978 37.949 23.1034 37.949C23.4089 37.949 23.7145 38.0653 23.9471 38.2979C24.1724 38.5232 24.2965 38.8229 24.2965 39.1416C24.2965 39.4603 24.1724 39.7599 23.9471 39.9853Z" fill="black"/>
<path d="M44.4147 18.6824L33.8902 8.15805C33.5172 7.78502 33.0213 7.57956 32.4938 7.57956C31.9664 7.57956 31.4704 7.78502 31.0974 8.15796L28.9465 10.3089C28.8525 10.1112 28.726 9.9253 28.5625 9.76186L19.378 0.577406C18.6079 -0.192469 17.3552 -0.192469 16.5852 0.577406L13.4981 3.66464C13.2409 3.92176 13.2409 4.33846 13.4981 4.59559C13.7551 4.85253 14.1719 4.85253 14.4289 4.59559L14.621 4.40349L22.446 12.2284L17.6352 17.0391L9.81039 9.21404L12.2453 6.77911C12.5024 6.52199 12.5024 6.10528 12.2453 5.84816C11.9883 5.59121 11.5715 5.59121 11.3145 5.84816L6.76991 10.3928C6.00003 11.1628 6.00003 12.4156 6.76991 13.1856L9.84536 16.261C9.23832 16.1681 8.61335 16.1565 7.98443 16.2324L2.12544 16.9795C1.48527 17.0565 0.913467 17.3782 0.515392 17.8854C0.117318 18.3925 -0.0593992 19.0243 0.0176673 19.6645C0.176897 20.9857 1.38149 21.9318 2.70718 21.7715L8.56634 21.0244C9.17206 20.951 9.76733 21.157 10.1989 21.5886L22.0152 33.405C20.8996 33.6149 19.8338 34.1499 18.9723 35.0114C18.2156 35.7682 17.6819 36.7149 17.4289 37.7497C17.3425 38.1029 17.5588 38.4592 17.912 38.5455C18.2646 38.6315 18.6214 38.4155 18.7077 38.0624C18.9035 37.2618 19.3168 36.5286 19.9032 35.9423C21.6677 34.1777 24.5388 34.1777 26.3033 35.9423C28.0678 37.7068 28.0678 40.5779 26.3033 42.3424C24.5388 44.1069 21.6677 44.1068 19.9033 42.3425C19.4483 41.8874 19.1023 41.3547 18.8751 40.7591C18.7455 40.4195 18.365 40.2491 18.0254 40.3788C17.6858 40.5084 17.5155 40.8887 17.6451 41.2285C17.9388 41.9983 18.3854 42.6863 18.9724 43.2733C20.1114 44.4122 21.6074 44.9816 23.1034 44.9816C24.5993 44.9816 26.0954 44.4122 27.2343 43.2733C28.6007 41.9069 29.1464 40.0267 28.8735 38.249C29.1601 38.2853 29.4471 38.3043 29.7331 38.3043C31.5141 38.3043 33.2521 37.6067 34.5442 36.3145L41.2953 29.5634C42.2363 28.6222 42.2363 27.0911 41.2953 26.15C41.0203 25.875 40.6904 25.6751 40.3306 25.5594L44.4148 21.4752C45.1845 20.7052 45.1845 19.4524 44.4147 18.6824ZM41.0709 17.2006L31.3621 26.9094L26.5514 22.0987L36.2602 12.3899L41.0709 17.2006ZM7.70077 11.3237L8.87944 10.145L16.7354 18.0009C16.9835 18.249 17.3094 18.373 17.6352 18.373C17.9612 18.373 18.2871 18.249 18.5352 18.0009L23.408 13.1281C23.9041 12.6319 23.9041 11.8246 23.4079 11.3283L15.5521 3.47245L17.5162 1.50827C17.7728 1.25158 18.1905 1.25167 18.4471 1.50827L27.6316 10.6927C27.8882 10.9494 27.8882 11.3671 27.6316 11.6237L17.8163 21.4391C17.5597 21.6958 17.142 21.6957 16.8853 21.4391L7.70086 12.2547C7.44418 11.998 7.44418 11.5803 7.70077 11.3237ZM40.3643 28.6324L33.6132 35.3835C32.2665 36.7302 30.3189 37.2753 28.4711 36.8405C28.1871 36.1758 27.7759 35.553 27.2343 35.0114C26.2772 34.0544 25.0679 33.5011 23.8184 33.3483C23.8123 33.3417 23.8067 33.3347 23.8003 33.3282L11.1297 20.6577C10.4105 19.9384 9.41882 19.596 8.40421 19.7179L2.54513 20.4651C1.94424 20.5371 1.39704 20.1076 1.32472 19.507C1.28966 19.2161 1.36998 18.9288 1.551 18.6982C1.73194 18.4677 1.99178 18.3215 2.28731 18.2859L8.14639 17.5388C9.82963 17.3357 11.4823 17.9073 12.6812 19.1062L27.407 33.832C28.6904 35.1151 30.7784 35.1151 32.0616 33.832L38.8127 27.0809C39.2405 26.653 39.9365 26.653 40.3642 27.0809C40.792 27.5087 40.792 28.2047 40.3643 28.6324ZM43.4837 20.5443L32.365 31.663C32.2406 31.7872 32.0753 31.8558 31.8996 31.8558C31.7237 31.8558 31.5584 31.7873 31.4341 31.6629L24.0313 24.2601C23.7743 24.0032 23.3575 24.0032 23.1005 24.2601C22.8433 24.5172 22.8433 24.9339 23.1005 25.1911L30.5032 32.5938C30.6638 32.7543 30.848 32.8816 31.0467 32.9771C30.2723 33.6678 29.0811 33.644 28.3382 32.9011L18.1939 22.757C18.3939 22.6627 18.5821 22.5352 18.7472 22.3701L19.5941 21.5232C19.6897 21.723 19.8175 21.9081 19.9788 22.0694L21.1161 23.2067C21.3731 23.4637 21.7899 23.4638 22.0469 23.2068C22.304 22.9497 22.304 22.5329 22.0469 22.2759L20.9096 21.1385C20.7853 21.0143 20.7168 20.849 20.7168 20.6731C20.7168 20.4975 20.7852 20.3324 20.9093 20.2081L32.0283 9.089C32.1527 8.96474 32.3179 8.8962 32.4937 8.8962C32.6695 8.8962 32.8348 8.96465 32.9592 9.08908L35.3293 11.4592L25.5895 21.1988C25.0933 21.695 25.0933 22.5023 25.5895 22.9987L30.4622 27.8713C30.7025 28.1118 31.0222 28.2442 31.3621 28.2442C31.702 28.2442 32.0216 28.1118 32.262 27.8714L42.0018 18.1316L43.4835 19.6134C43.7403 19.87 43.7403 20.2876 43.4837 20.5443Z" fill="black"/>
<path d="M16.3129 14.0227C16.4415 14.1512 16.61 14.2155 16.7784 14.2155C16.9469 14.2155 17.1153 14.1512 17.2439 14.0227L19.5561 11.7106C19.8132 11.4535 19.8132 11.0367 19.5561 10.7796C19.299 10.5227 18.8822 10.5227 18.6252 10.7796L16.313 13.0919C16.0558 13.3488 16.0558 13.7655 16.3129 14.0227Z" fill="black"/>
<path d="M16.1847 8.33871L13.8725 10.6509C13.6154 10.908 13.6154 11.3247 13.8725 11.5818C14.0011 11.7103 14.1695 11.7746 14.338 11.7746C14.5065 11.7746 14.6749 11.7103 14.8035 11.5818L17.1157 9.26966C17.3728 9.01253 17.3728 8.59583 17.1157 8.33871C16.8585 8.08176 16.4417 8.08176 16.1847 8.33871Z" fill="black"/>
<path d="M14.6847 6.83895L12.3725 9.15121C12.1154 9.40833 12.1154 9.82504 12.3725 10.0822C12.5011 10.2106 12.6695 10.275 12.838 10.275C13.0065 10.275 13.1749 10.2106 13.3035 10.0822L15.6157 7.7699C15.8728 7.51278 15.8728 7.09607 15.6157 6.83895C15.3586 6.582 14.9418 6.582 14.6847 6.83895Z" fill="black"/>
<path d="M28.9448 22.3292L31.257 24.6414C31.3855 24.7699 31.554 24.8342 31.7224 24.8342C31.8909 24.8342 32.0593 24.7699 32.1879 24.6414C32.445 24.3843 32.445 23.9676 32.1879 23.7104L29.8757 21.3983C29.6187 21.1413 29.2019 21.1413 28.9449 21.3983C28.6877 21.6554 28.6877 22.0721 28.9448 22.3292Z" fill="black"/>
<path d="M33.6729 22.2247C33.8015 22.3531 33.9699 22.4174 34.1384 22.4174C34.3068 22.4174 34.4753 22.3531 34.6038 22.2247C34.861 21.9675 34.861 21.5508 34.6038 21.2937L32.2917 18.9815C32.0346 18.7246 31.6178 18.7246 31.3608 18.9815C31.1037 19.2387 31.1037 19.6554 31.3608 19.9125L33.6729 22.2247Z" fill="black"/>
<path d="M36.1143 19.784C36.2429 19.9124 36.4113 19.9768 36.5798 19.9768C36.7482 19.9768 36.9167 19.9124 37.0453 19.784C37.3024 19.5269 37.3024 19.1101 37.0453 18.853L34.7331 16.5409C34.476 16.2839 34.0593 16.2839 33.8022 16.5409C33.5451 16.798 33.5451 17.2147 33.8022 17.4718L36.1143 19.784Z" fill="black"/>
<path d="M37.6143 18.284C37.7429 18.4125 37.9113 18.4768 38.0798 18.4768C38.2482 18.4768 38.4167 18.4125 38.5453 18.284C38.8024 18.0269 38.8024 17.6102 38.5453 17.353L36.2331 15.0409C35.976 14.7839 35.5593 14.7839 35.3022 15.0409C35.0451 15.298 35.0451 15.7147 35.3022 15.9718L37.6143 18.284Z" fill="black"/>
</svg>
