<svg width="17" height="22" viewBox="0 0 17 22" fill="none" xmlns="http://www.w3.org/2000/svg">
<path d="M8.68399 12.3556L6.73877 12.2297L2.76367 15.6372L6.08815 20.0081L10.2479 16.2646L10.7985 14.9089L8.68399 12.3556Z" fill="#01D0FB"/>
<path d="M10.585 10.5966L9.06151 10.2385L6.73828 12.2298L10.2474 16.2647L12.5997 14.1476L12.7972 13.0428L10.585 10.5966Z" fill="#62DBFB"/>
<path d="M13.3605 8.2561L11.4623 8.18042L9.06152 10.2385L12.5997 14.1476L14.9611 12.0223L15.615 10.7069L13.3605 8.2561Z" fill="#99E6FC"/>
<path d="M16.3006 8.78705C16.8583 9.40365 16.8102 10.3559 16.1936 10.914L14.9616 12.0223L11.4629 8.18041L13.9284 6.06714L14.9932 7.34141L16.3006 8.78705Z" fill="#C8EFFE"/>
<path d="M7.10516 10.2419L5.10524 10.929L1.20898 17.2058L6.6347 19.4265L10.1969 14.2759L10.396 12.3558L7.10516 10.2419Z" fill="#05E39C"/>
<path d="M9.24974 7.55957L6.96314 7.93567L5.10547 10.9286L10.1972 14.2755L12.0922 11.5352L12.3282 9.66828L9.24974 7.55957Z" fill="#00F2A6"/>
<path d="M13.9425 7.25341L10.3969 4.97656L8.68461 5.16337L6.96387 7.93598L12.0929 11.5356L14.0473 8.70942L13.9425 7.25341Z" fill="#6CF5C2"/>
<path d="M14.6783 5.14983C15.3622 5.62286 15.5331 6.56061 15.0601 7.24485L14.0472 8.70916L8.68457 5.16311L10.4198 2.36768L12.8754 3.90294L14.6783 5.14983Z" fill="#9CF8D2"/>
<path d="M3.34895 9.18408L0.566965 16.0753C-0.151125 17.8541 0.708583 19.8778 2.48734 20.5959C4.26571 21.3138 6.28986 20.4543 7.00795 18.6755L9.75878 11.8615L3.34895 9.18408Z" fill="#FED402"/>
<path d="M10.7243 8.52527L5.99062 6.31055L4.58049 6.73706L3.19336 10.0802L9.48932 12.5302L10.7979 9.28394L10.7243 8.52527Z" fill="#FEE45A"/>
<path d="M11.9815 4.75109L6.94284 3.13574L5.89641 3.61085L4.59766 6.74196L10.8009 9.28303L12.1205 6.01416L11.9815 4.75109Z" fill="#FEE97D"/>
<path d="M12.0006 2.24839C12.7732 2.55669 13.1496 3.43262 12.8417 4.20523L12.1205 6.01394L5.89648 3.61063L7.02387 0.893203C7.41142 0.665403 7.89607 0.611876 8.34627 0.791544L12.0006 2.24839Z" fill="#FEF0AE"/>
<path d="M0.311523 14.2712V10.7621V7.25342V3.7443V1.81733C0.311523 0.985381 0.985796 0.311523 1.81733 0.311523H5.75135C6.5833 0.311523 7.25757 0.985381 7.25757 1.81733V17.4086C7.25757 19.3268 5.70239 20.8816 3.78455 20.8816C1.86629 20.8816 0.311523 19.3268 0.311523 17.4086V14.2712Z" fill="#F9F7F8"/>
<path d="M7.25757 1.81733V3.7443H0.311523V1.81733C0.311523 0.985381 0.985796 0.311523 1.81733 0.311523H5.75135C6.5833 0.311523 7.25757 0.985381 7.25757 1.81733Z" fill="#F9B1B1"/>
<path d="M0.310547 3.74438H7.25659V7.25351H0.310547V3.74438Z" fill="#F79595"/>
<path d="M0.310547 7.25342H7.25659V10.7621H0.310547V7.25342Z" fill="#F47C7C"/>
<path d="M0.310547 10.7622H7.25659V14.2713H0.310547V10.7622Z" fill="#EE6161"/>
<path d="M3.71436 18.6013C4.3667 18.6013 4.89552 18.0725 4.89552 17.4202C4.89552 16.7678 4.3667 16.239 3.71436 16.239C3.06203 16.239 2.5332 16.7678 2.5332 17.4202C2.5332 18.0725 3.06203 18.6013 3.71436 18.6013Z" fill="#E5E1E5"/>
<path d="M16.5307 8.57799L15.3854 7.31123C15.608 6.93509 15.6874 6.49667 15.6083 6.06244C15.5212 5.58497 15.2534 5.16995 14.8542 4.89385L13.2017 3.75095C13.2121 3.48414 13.1631 3.21618 13.0545 2.96365C12.8628 2.51776 12.509 2.17319 12.0581 1.9934L8.40364 0.536306C7.96069 0.359709 7.47808 0.364481 7.04472 0.542364C6.71501 0.207842 6.25704 0 5.75132 0H1.81709C0.815144 0 0 0.815144 0 1.81709V17.4086C0 19.4953 1.69759 21.1928 3.78418 21.1928C4.73377 21.1928 5.60269 20.8412 6.26779 20.2614C6.27733 20.2546 6.28667 20.2474 6.29559 20.2393L13.3804 13.8634C13.5081 13.7484 13.5185 13.5516 13.4035 13.4239C13.2885 13.2961 13.0916 13.2857 12.964 13.4007L12.6722 13.6634L11.7238 12.6146L13.2127 10.4618L14.5663 11.9588L13.9504 12.513C13.8227 12.628 13.8123 12.8248 13.9273 12.9525C13.9887 13.0208 14.0735 13.0556 14.1587 13.0556C14.2329 13.0556 14.3073 13.0292 14.3668 12.9757L16.4015 11.1445C16.7616 10.819 16.9732 10.3727 16.9976 9.88799C17.022 9.40326 16.8562 8.93799 16.5307 8.57799ZM14.9959 6.17406C15.0532 6.48796 14.9847 6.80542 14.8032 7.06787L13.9581 8.28974L12.0343 6.95928L13.0528 4.40481L14.5002 5.4058C14.7627 5.58729 14.9387 5.86011 14.9959 6.17406ZM12.038 11.0662L10.7516 10.1765L11.7978 7.55248L13.6041 8.80164L12.038 11.0662ZM10.1178 13.8426L9.46882 13.3938L10.5151 10.7697L11.6839 11.5781L10.1178 13.8426ZM10.5968 8.88418L9.69492 8.52455C9.53533 8.46094 9.3543 8.5387 9.29061 8.69837C9.22695 8.85803 9.3048 9.03903 9.46442 9.10272L10.3663 9.46231L9.29725 12.1435L7.56841 11.4542V8.34675L8.22708 8.60936C8.26488 8.62442 8.30389 8.63156 8.34223 8.63156C8.46583 8.63156 8.58281 8.55737 8.6314 8.43554C8.69505 8.27588 8.61725 8.09488 8.45762 8.03119L7.56841 7.67667V4.5692L11.6659 6.20294L10.5968 8.88418ZM6.946 6.9419H3.42087C3.249 6.9419 3.10966 7.08123 3.10966 7.2531C3.10966 7.42497 3.249 7.5643 3.42087 7.5643H6.946V10.4508H0.622406V7.5643H2.0946C2.26647 7.5643 2.4058 7.42497 2.4058 7.2531C2.4058 7.08123 2.26647 6.9419 2.0946 6.9419H0.622406V4.05539H6.94596V6.9419H6.946ZM0.622406 11.0732H6.94596V13.9597H0.622406V11.0732ZM7.56841 12.1243L9.06675 12.7217L7.56841 16.4796V12.1243ZM9.50762 15.8191L9.85272 16.2008L8.23974 17.6524L9.50762 15.8191ZM8.16277 16.6695L9.23235 13.9869L9.76384 14.3545L8.16277 16.6695ZM8.17314 1.11448L11.8276 2.57157C12.124 2.68975 12.3567 2.9163 12.4827 3.20946C12.5694 3.41099 12.5984 3.62746 12.5698 3.83937C12.5693 3.84182 12.569 3.84431 12.5686 3.84676C12.5553 3.94057 12.5308 4.03348 12.4948 4.12373L11.8963 5.62476L7.56841 3.89912V1.81709C7.56841 1.55245 7.51107 1.30104 7.40891 1.07402C7.65862 1.00344 7.92538 1.01568 8.17314 1.11448ZM1.81709 0.622406H5.75132C6.41003 0.622406 6.946 1.15834 6.946 1.81709V3.43302H0.622406V1.81709C0.622406 1.15834 1.15834 0.622406 1.81709 0.622406ZM0.622406 17.4086V14.5821H6.94596V17.4086C6.94596 19.1521 5.52758 20.5704 3.78418 20.5704C2.04078 20.5704 0.622406 19.152 0.622406 17.4086ZM12.2095 14.0798L10.3154 15.7844L9.87127 15.2933L11.3601 13.1404L12.2095 14.0798ZM16.376 9.8567C16.36 10.1754 16.2208 10.4688 15.9846 10.6823L15.0289 11.5424L13.5764 9.93592L15.0252 7.84102L16.069 8.99542C16.283 9.23214 16.3921 9.53799 16.376 9.8567Z" fill="black"/>
<path d="M3.71404 15.9275C2.89114 15.9275 2.22168 16.5969 2.22168 17.4199C2.22168 18.2428 2.89114 18.9122 3.71404 18.9122C4.53695 18.9122 5.2064 18.2428 5.2064 17.4199C5.2064 16.5969 4.53695 15.9275 3.71404 15.9275ZM3.71404 18.2899C3.23433 18.2899 2.84409 17.8996 2.84409 17.4199C2.84409 16.9402 3.23433 16.5499 3.71404 16.5499C4.19375 16.5499 4.584 16.9402 4.584 17.4199C4.584 17.8996 4.19375 18.2899 3.71404 18.2899Z" fill="black"/>
</svg>
