<svg width="42" height="45" viewBox="0 0 42 45" fill="none" xmlns="http://www.w3.org/2000/svg">
<path d="M27.1405 25.637H14.0643C13.7983 25.637 13.5386 25.5565 13.3192 25.4059C12.5392 24.8707 11.8858 24.303 11.3217 23.6702C10.0554 22.2498 9.24947 20.5949 8.92645 18.7513C8.60318 16.9064 8.84603 15.3199 9.10662 14.314C9.62393 12.3173 10.8786 10.3907 12.7351 8.7428C16.3953 5.49404 17.7191 0.999936 17.732 0.954983C17.831 0.610633 18.0664 0.32028 18.3832 0.153022C18.7001 -0.0142359 19.0718 -0.046195 19.4119 0.0661006C19.5287 0.104732 22.2873 1.04515 23.6854 3.97687C24.6349 5.96798 24.7285 8.33945 23.9672 11.0428C24.2188 11.0288 24.4884 10.9756 24.7531 10.8557C25.4239 10.5516 25.836 9.92414 25.8029 9.25704C25.7775 8.74534 26.051 8.26543 26.5042 8.02653C26.9573 7.78771 27.5078 7.83328 27.9156 8.14339C29.2294 9.14281 31.5418 11.3155 32.2672 14.6379C33.1496 18.6794 31.4353 22.9023 27.8996 25.3963C27.6775 25.5529 27.4124 25.637 27.1405 25.637Z" fill="#FFB454"/>
<path d="M27.9161 8.14328C27.5083 7.83317 26.9578 7.78761 26.5047 8.02642C26.0514 8.26532 25.7779 8.74524 25.8034 9.25693C25.8365 9.92403 25.4245 10.5515 24.7536 10.8556C24.4889 10.9755 24.2194 11.0287 23.9677 11.0427C24.729 8.33934 24.6354 5.96787 23.6859 3.97676C22.8667 2.25905 21.581 1.22574 20.6328 0.656006V25.6369H27.1409C27.4128 25.6369 27.6779 25.5528 27.9001 25.3961C31.4357 22.9022 33.15 18.6793 32.2676 14.6378C31.5422 11.3154 29.2299 9.14262 27.9161 8.14328Z" fill="#FF7038"/>
<path d="M23.6312 25.637H17.6342C17.1658 25.637 16.7326 25.3882 16.4965 24.9835C15.4293 23.1535 15.5569 20.8896 16.8218 19.2159L19.582 15.5633C19.8309 15.2339 20.2199 15.0403 20.6327 15.0403C21.0455 15.0403 21.4345 15.2339 21.6834 15.5633L24.4435 19.2159C25.7084 20.8896 25.836 23.1536 24.7688 24.9835C24.5328 25.3882 24.0997 25.637 23.6312 25.637Z" fill="#FFE278"/>
<path d="M23.6313 25.637C24.0997 25.637 24.5329 25.3882 24.769 24.9835C25.8362 23.1535 25.7086 20.8896 24.4437 19.2159L21.6835 15.5633C21.4346 15.2339 21.0456 15.0403 20.6328 15.0403V25.637H23.6313Z" fill="#FFB454"/>
<path d="M37.3148 44.9538H3.95098C1.77241 44.9538 0 43.1814 0 41.0028V26.9549C0 24.7763 1.77241 23.0039 3.95098 23.0039H37.3148C39.4934 23.0039 41.2658 24.7763 41.2658 26.9549V41.0028C41.2658 43.1814 39.4934 44.9538 37.3148 44.9538Z" fill="#F4F4F6"/>
<path d="M37.3147 23.0034H20.6328V44.9533H37.3147C39.4933 44.9533 41.2657 43.1809 41.2657 41.0023V26.9544C41.2657 24.7758 39.4933 23.0034 37.3147 23.0034Z" fill="#E2DFF4"/>
<path d="M3.95078 25.6375C3.22459 25.6375 2.63379 26.2283 2.63379 26.9544V41.0024C2.63379 41.7285 3.22459 42.3194 3.95078 42.3194H37.3146C38.0408 42.3194 38.6316 41.7285 38.6316 41.0024V26.9544C38.6316 26.2283 38.0408 25.6375 37.3146 25.6375H3.95078Z" fill="#FF7038"/>
<path d="M37.3147 25.6375H20.6328V42.3194H37.3147C38.0409 42.3194 38.6317 41.7285 38.6317 41.0024V26.9544C38.6317 26.2283 38.0409 25.6375 37.3147 25.6375Z" fill="#FF1F3D"/>
<path d="M10.6143 37.0441C10.6118 37.0441 10.6092 37.0441 10.6067 37.0441C10.011 37.0474 9.38335 37.0499 8.85664 37.0509V29.5885C8.85664 28.8611 8.26698 28.2715 7.53965 28.2715C6.81232 28.2715 6.22266 28.8611 6.22266 29.5885V38.361C6.22266 39.0026 6.68492 39.5507 7.31717 39.6591C7.41199 39.6754 7.47468 39.6862 8.45505 39.6862C8.92802 39.6862 9.61479 39.6837 10.6214 39.678C11.3487 39.6739 11.9351 39.081 11.931 38.3537C11.927 37.6288 11.3382 37.0441 10.6143 37.0441Z" fill="#F4F4F6"/>
<path d="M15.0045 28.2715C14.2772 28.2715 13.6875 28.8611 13.6875 29.5885V38.3684C13.6875 39.0958 14.2772 39.6854 15.0045 39.6854C15.7318 39.6854 16.3215 39.0958 16.3215 38.3684V29.5885C16.3215 28.8611 15.7318 28.2715 15.0045 28.2715Z" fill="#F4F4F6"/>
<path d="M33.7265 37.0514H31.3439V35.2954H33.4537C34.181 35.2954 34.7707 34.7058 34.7707 33.9785C34.7707 33.2511 34.181 32.6615 33.4537 32.6615H31.3439V30.9055H33.7265C34.4538 30.9055 35.0435 30.3158 35.0435 29.5885C35.0435 28.8611 34.4538 28.2715 33.7265 28.2715H30.027C29.2996 28.2715 28.71 28.8611 28.71 29.5885V38.3684C28.71 39.0958 29.2996 39.6854 30.027 39.6854H33.7265C34.4538 39.6854 35.0435 39.0958 35.0435 38.3684C35.0435 37.6411 34.4538 37.0514 33.7265 37.0514Z" fill="#E2DFF4"/>
<path d="M26.0527 28.3547C25.3627 28.1254 24.617 28.4991 24.3876 29.1894L22.5598 34.6914L20.6386 29.1566C20.4001 28.4696 19.6498 28.1061 18.9626 28.3443C18.2755 28.5828 17.9118 29.3333 18.1503 30.0204L21.1522 38.6684C21.1533 38.6714 21.1542 38.6743 21.1554 38.6774C21.37 39.2815 21.9429 39.6854 22.5831 39.6854C22.5866 39.6854 22.59 39.6854 22.5934 39.6853C23.2379 39.681 23.8103 39.268 24.0176 38.6579C24.0186 38.6551 24.0196 38.6522 24.0205 38.6492L26.8873 30.0198C27.1165 29.3296 26.7428 28.5842 26.0527 28.3547Z" fill="#F4F4F6"/>
<path d="M26.0522 28.3546C25.3623 28.1253 24.6165 28.499 24.3872 29.1893L22.5594 34.6913L20.6382 29.1565C20.6366 29.1519 20.6344 29.1478 20.6328 29.1433V37.1734L21.1517 38.6684C21.1528 38.6713 21.1537 38.6742 21.1549 38.6773C21.3695 39.2814 21.9423 39.6853 22.5826 39.6853C22.5861 39.6853 22.5895 39.6853 22.5929 39.6852C23.2374 39.6809 23.8097 39.2679 24.0171 38.6578C24.0181 38.655 24.0191 38.6521 24.02 38.6491L26.8868 30.0197C27.1161 29.3295 26.7424 28.5841 26.0522 28.3546Z" fill="#E2DFF4"/>
</svg>
