<svg width="40" height="40" viewBox="0 0 40 40" fill="none" xmlns="http://www.w3.org/2000/svg">
<path d="M39.2188 20C39.2188 9.38578 30.6142 0.78125 20 0.78125C9.38578 0.78125 0.78125 9.38578 0.78125 20C0.78125 26.9512 4.47156 33.0404 10 36.4154C12.9133 38.1939 16.337 39.2188 20 39.2188C30.6143 39.2188 39.2188 30.6142 39.2188 20Z" fill="#78D2FA"/>
<path d="M15.0172 22.074L2.32031 27.545C3.89937 31.2405 6.60266 34.3409 10.0009 36.4155C11.863 37.5523 13.9339 38.3805 16.1423 38.8306L16.338 38.6913L17.7333 36.1578H18.8323C20.0588 36.1578 21.053 35.1636 21.053 33.9371V32.8587C21.053 32.3876 21.2028 31.9288 21.4808 31.5485L18.4375 27.0032L15.0172 22.074Z" fill="#A5DC69"/>
<path d="M20.0009 0.781494C16.2995 0.781494 12.8431 1.82884 9.91016 3.64196V4.13181L14.6838 5.9479C15.1081 6.10939 15.3826 6.52314 15.3663 6.97689C15.7506 8.08282 17.0241 8.59353 18.0663 8.05962L19.1034 7.51165C22.1158 5.92009 25.6781 8.35931 25.2841 11.7435L25.2745 11.8259C25.1777 12.658 24.5873 13.3217 23.7945 13.5088C23.2785 13.6306 22.691 13.7707 22.1876 13.891C21.458 14.0655 20.8961 14.6476 20.7476 15.383L20.0771 18.7024C19.8416 19.8687 20.7084 20.9677 21.8973 21.0106L22.7577 21.0415C23.0054 21.0504 23.2491 21.107 23.4753 21.2081L28.1159 26.5985L27.6222 32.4467C27.5084 34.2414 28.6061 35.6408 30.0406 36.1855L30.3163 36.2181C35.6691 32.8064 39.2196 26.8181 39.2196 20.0002C39.2196 9.38603 30.6152 0.781494 20.0009 0.781494Z" fill="#A5DC69"/>
<path d="M15 23.4446C15 19.5182 11.817 16.3352 7.89063 16.3352C3.96422 16.3352 0.78125 19.5182 0.78125 23.4446C0.78125 25.1466 1.37969 26.7088 2.37719 27.9327H2.37672L7.89063 35.0001L13.3782 27.9697H13.3741C14.3898 26.7404 15 25.1638 15 23.4446Z" fill="#F5B955"/>
<path d="M7.89062 27.3079C9.96169 27.3079 11.6406 25.6289 11.6406 23.5579C11.6406 21.4868 9.96169 19.8079 7.89062 19.8079C5.81956 19.8079 4.14062 21.4868 4.14062 23.5579C4.14062 25.6289 5.81956 27.3079 7.89062 27.3079Z" fill="white"/>
<path d="M39.219 6.54945C39.219 3.36375 36.6365 0.78125 33.4508 0.78125C30.2651 0.78125 27.6826 3.36375 27.6826 6.54945C27.6826 7.93047 28.1682 9.19789 28.9775 10.1909H28.9771L33.4509 15.9252L37.9033 10.221H37.9C38.7239 9.22352 39.219 7.9443 39.219 6.54945Z" fill="#FF5A5A"/>
<path d="M33.4506 9.15166C34.8369 9.15166 35.9607 8.02783 35.9607 6.6415C35.9607 5.25518 34.8369 4.13135 33.4506 4.13135C32.0643 4.13135 30.9404 5.25518 30.9404 6.6415C30.9404 8.02783 32.0643 9.15166 33.4506 9.15166Z" fill="white"/>
<path d="M1.1782 16.0165C1.24265 16.0329 1.30726 16.0407 1.37085 16.0407C1.71984 16.0407 2.0378 15.8051 2.12757 15.4514L2.15445 15.3466C2.26343 14.929 2.01327 14.5023 1.59577 14.3934C1.17827 14.2845 0.751554 14.5346 0.64257 14.952C0.63257 14.9903 0.622726 15.0287 0.613039 15.0672C0.506945 15.4854 0.759992 15.9104 1.1782 16.0165Z" fill="black"/>
<path d="M2.27352 12.5211C2.38118 12.5719 2.49454 12.5959 2.6061 12.5959C2.89914 12.5959 3.18008 12.4302 3.31328 12.1477C4.72727 9.1482 6.90711 6.64414 9.55149 4.82562C9.57727 4.83891 9.60383 4.85117 9.63157 4.86172L14.4051 6.67773C14.5169 6.72031 14.589 6.82914 14.5847 6.94859C14.5813 7.04523 14.5958 7.1418 14.6275 7.2332C14.885 7.97391 15.4502 8.56625 16.1781 8.85813C16.906 9.14992 17.7238 9.11219 18.4217 8.75469C18.4246 8.7532 18.4275 8.75172 18.4304 8.75016L19.4676 8.20219C20.621 7.59281 21.9524 7.66883 23.0288 8.40594C24.1055 9.14305 24.6582 10.3568 24.5073 11.653L24.4977 11.7352C24.4391 12.2377 24.0924 12.6353 23.6141 12.7482C23.0975 12.8702 22.5091 13.0104 22.0051 13.1309C20.9834 13.3752 20.1889 14.1984 19.9809 15.228L19.3105 18.5475C19.1527 19.3286 19.3452 20.1355 19.8388 20.7612C20.3322 21.387 21.072 21.7623 21.8684 21.791L22.7288 21.822C22.8769 21.8273 23.0204 21.8607 23.1556 21.9212C23.2592 21.9675 23.3675 21.9895 23.4741 21.9895C23.7727 21.9894 24.0579 21.8172 24.1877 21.5269C24.3638 21.133 24.1873 20.6709 23.7934 20.4948C23.474 20.352 23.1348 20.2731 22.7851 20.2605L21.9247 20.2296C21.5877 20.2175 21.2745 20.0587 21.0656 19.7937C20.8568 19.5289 20.7753 19.1874 20.8421 18.8569L21.5126 15.5374C21.6005 15.1021 21.9365 14.754 22.3685 14.6506C22.8713 14.5304 23.4581 14.3906 23.9732 14.2689C25.0819 14.0072 25.9164 13.0616 26.0498 11.9159L26.0595 11.8336C26.2787 9.95078 25.4757 8.1875 23.9116 7.11664C22.3477 6.04594 20.4135 5.93523 18.7377 6.8207L17.7054 7.36609C17.4066 7.51781 17.0709 7.53273 16.7598 7.40781C16.4812 7.29609 16.2657 7.08992 16.1438 6.82109C16.0985 6.10656 15.6406 5.47609 14.9609 5.21742L11.2291 3.79773C13.88 2.36039 16.8867 1.56258 20.0001 1.56258C22.0321 1.56258 24.0284 1.8907 25.9337 2.53797C26.3423 2.6768 26.7859 2.45813 26.9248 2.04953C27.0635 1.64102 26.8449 1.19727 26.4363 1.05844C24.3689 0.356172 22.2034 0 20.0001 0C16.1334 0 12.3813 1.10539 9.14914 3.19672C6.00164 5.23328 3.49493 8.09805 1.89993 11.4813C1.71602 11.8716 1.88321 12.3372 2.27352 12.5211Z" fill="black"/>
<path d="M38.2564 13.9279C37.8417 14.0471 37.6022 14.4799 37.7214 14.8946C38.1964 16.5465 38.4373 18.2642 38.4373 20.0002C38.4373 21.8905 38.1525 23.7544 37.5909 25.5397C37.4614 25.9514 37.6901 26.39 38.1017 26.5194C38.1797 26.544 38.2586 26.5557 38.3364 26.5557C38.6684 26.5557 38.9764 26.3422 39.0814 26.0086C39.6907 24.0712 39.9997 22.0497 39.9997 20.0002C39.9997 18.1181 39.7384 16.2551 39.223 14.4628C39.1038 14.0481 38.6709 13.8086 38.2564 13.9279Z" fill="black"/>
<path d="M37.04 28.9483C36.7104 28.7531 36.2165 28.8082 35.9604 29.238C35.9589 29.2405 35.9574 29.243 35.9559 29.2456C35.7046 29.6782 35.8964 30.1367 36.227 30.33C36.3442 30.3985 36.4818 30.4355 36.622 30.4355C36.8774 30.4355 37.1413 30.3128 37.3051 30.0343C37.5588 29.603 37.3695 29.1434 37.04 28.9483Z" fill="black"/>
<path d="M34.8464 32.2306C34.5249 31.9429 34.031 31.9702 33.7432 32.2917C32.6757 33.4844 31.4665 34.5207 30.1535 35.3864C29.2525 34.9796 28.3087 34.0152 28.4011 32.5037L28.8941 26.664C28.9304 26.2341 28.6113 25.8561 28.1814 25.8198C27.7517 25.7848 27.3735 26.1026 27.3371 26.5326L26.8435 32.3808C26.843 32.3862 26.8426 32.3916 26.8422 32.397C26.7439 33.9471 27.4336 35.3906 28.6275 36.2899C25.9953 37.6834 23.0367 38.4375 20.0004 38.4375C19.1503 38.4375 18.3032 38.3781 17.4657 38.2622L18.1944 36.9391H18.8318C20.4871 36.9391 21.8338 35.5924 21.8338 33.9371V32.8587C21.8338 32.5513 21.9296 32.2577 22.111 32.0095C22.3657 31.6611 22.2896 31.1723 21.9413 30.9177C21.5928 30.6631 21.1041 30.7391 20.8496 31.0875C20.4713 31.6052 20.2714 32.2177 20.2714 32.8587V33.9371C20.2714 34.7308 19.6257 35.3766 18.8319 35.3766H17.7328C17.4481 35.3766 17.1859 35.5315 17.0485 35.7809L15.8462 37.9641C14.1599 37.5755 12.5321 36.9516 11.0199 36.1066C10.6431 35.8962 10.1673 36.0308 9.95682 36.4075C9.74635 36.7842 9.88104 37.2601 10.2577 37.4705C13.219 39.1254 16.588 40.0001 20.0005 40.0001C25.6822 40.0001 31.1156 37.5703 34.9074 33.3338C35.1952 33.0123 35.1678 32.5184 34.8464 32.2306Z" fill="black"/>
<path d="M33.4504 9.93276C35.2651 9.93276 36.7415 8.45636 36.7415 6.64151C36.7415 4.82675 35.2651 3.35034 33.4504 3.35034C31.6356 3.35034 30.1592 4.82675 30.1592 6.64151C30.1592 8.45628 31.6356 9.93276 33.4504 9.93276ZM33.4504 4.91284C34.4036 4.91284 35.179 5.68831 35.179 6.64151C35.179 7.59472 34.4036 8.37026 33.4504 8.37026C32.4971 8.37026 31.7217 7.59472 31.7217 6.64151C31.7217 5.68831 32.4971 4.91284 33.4504 4.91284Z" fill="black"/>
<path d="M14.0252 28.4077C14.9456 27.271 15.5295 25.8965 15.7162 24.4533L17.7947 27.4487C17.9464 27.6674 18.1898 27.7847 18.4373 27.7847C18.5909 27.7847 18.7462 27.7394 18.882 27.6452C19.2365 27.3993 19.3245 26.9125 19.0784 26.5579L15.658 21.6286C15.6224 21.5772 15.5812 21.5322 15.5366 21.4922C14.6655 18.0825 11.5679 15.554 7.89062 15.554C3.53977 15.554 0 19.0937 0 23.4446C0 25.2466 0.623203 27.0075 1.75523 28.4061C1.75703 28.4085 1.75891 28.4109 1.76078 28.4133L7.27469 35.4808C7.42273 35.6705 7.64992 35.7815 7.89055 35.7815C8.13117 35.7815 8.35836 35.6706 8.50641 35.4809L13.994 28.4505C14.005 28.4365 14.0153 28.4222 14.0252 28.4077ZM12.7173 27.5468L7.89086 33.7302L3.0082 27.472C3.00008 27.4608 2.99164 27.45 2.98289 27.4392C2.06695 26.3154 1.5625 24.8968 1.5625 23.4446C1.5625 19.9553 4.40125 17.1165 7.89062 17.1165C11.38 17.1165 14.2188 19.9553 14.2188 23.4446C14.2188 24.9124 13.7048 26.3428 12.7718 27.4722C12.752 27.4961 12.7338 27.5211 12.7173 27.5468Z" fill="black"/>
<path d="M7.89062 19.0266C5.39211 19.0266 3.35938 21.0593 3.35938 23.5579C3.35938 26.0564 5.39211 28.0891 7.89062 28.0891C10.3891 28.0891 12.4219 26.0564 12.4219 23.5579C12.4219 21.0593 10.3892 19.0266 7.89062 19.0266ZM7.89062 26.5266C6.25367 26.5266 4.92188 25.1948 4.92188 23.5579C4.92188 21.9209 6.25367 20.5891 7.89062 20.5891C9.52758 20.5891 10.8594 21.9209 10.8594 23.5579C10.8594 25.1948 9.52766 26.5266 7.89062 26.5266Z" fill="black"/>
<path d="M28.3566 10.6656C28.3581 10.6675 28.3596 10.6695 28.3611 10.6715L32.8349 16.4056C32.9829 16.5954 33.2101 16.7063 33.4507 16.7063C33.4507 16.7063 33.4507 16.7063 33.4508 16.7063C33.6914 16.7063 33.9186 16.5955 34.0667 16.4058L38.5191 10.7016C38.5287 10.6894 38.5379 10.677 38.5466 10.6642C39.4845 9.50352 40.0003 8.04508 40.0003 6.54945C40.0003 2.93805 37.0622 0 33.4508 0C29.8394 0 26.9014 2.93805 26.9014 6.54945C26.9014 8.0443 27.418 9.50508 28.3566 10.6656ZM33.4508 1.5625C36.2007 1.5625 38.4378 3.79969 38.4378 6.54945C38.4378 7.70617 38.0329 8.83328 37.2975 9.72336C37.2792 9.74555 37.2622 9.76859 37.2467 9.79235L33.451 14.6552L29.6073 9.72852C29.5996 9.71797 29.5914 9.7075 29.5831 9.69734C28.8614 8.8118 28.4639 7.69383 28.4639 6.54945C28.4639 3.79969 30.701 1.5625 33.4508 1.5625Z" fill="black"/>
<path d="M14.839 32.2285L14.4858 32.3954C14.0957 32.5797 13.9289 33.0453 14.1131 33.4355C14.2465 33.7178 14.5272 33.8831 14.82 33.8831C14.9318 33.8831 15.0454 33.859 15.1532 33.8081L15.5064 33.6412C15.8966 33.4569 16.0634 32.9913 15.8792 32.6012C15.6948 32.2111 15.2292 32.0444 14.839 32.2285Z" fill="black"/>
<path d="M33.4507 19.8516C33.0192 19.8516 32.6694 20.2014 32.6694 20.6328C32.6694 20.7336 32.6637 20.8352 32.6525 20.9348C32.604 21.3635 32.9123 21.7503 33.341 21.7988C33.3708 21.8022 33.4004 21.8038 33.4297 21.8038C33.8219 21.8038 34.16 21.5092 34.205 21.1102C34.2228 20.9526 34.2319 20.792 34.2319 20.6328C34.2319 20.2013 33.8822 19.8516 33.4507 19.8516Z" fill="black"/>
<path d="M27.9893 23.2812C27.5578 23.2812 27.208 23.6311 27.208 24.0625C27.208 24.4939 27.5578 24.8438 27.9893 24.8438H28.3799C28.8114 24.8438 29.1611 24.4939 29.1611 24.0625C29.1611 23.6311 28.8114 23.2812 28.3799 23.2812H27.9893Z" fill="black"/>
<path d="M31.3962 22.8966C31.3107 22.9488 31.2212 22.9964 31.1301 23.0386C30.7385 23.2198 30.568 23.6842 30.7492 24.0757C30.8812 24.361 31.1637 24.529 31.4587 24.529C31.5686 24.529 31.6801 24.5057 31.7864 24.4566C31.9309 24.3897 32.073 24.3139 32.2087 24.2313C32.5773 24.0069 32.6941 23.5263 32.4698 23.1577C32.2454 22.7892 31.7648 22.6725 31.3962 22.8966Z" fill="black"/>
<path d="M19.6149 28.0878L19.4053 28.4175C19.1738 28.7816 19.2813 29.2644 19.6454 29.496C19.7754 29.5786 19.9204 29.618 20.0638 29.618C20.3221 29.618 20.5749 29.49 20.7238 29.2558L20.9334 28.9261C21.1649 28.562 21.0574 28.0792 20.6932 27.8476C20.3292 27.6161 19.8464 27.7237 19.6149 28.0878Z" fill="black"/>
<path d="M22.579 24.8808C22.2149 24.6494 21.7321 24.7568 21.5005 25.1209L21.291 25.4505C21.0595 25.8146 21.167 26.2975 21.5312 26.5289C21.6612 26.6116 21.8062 26.651 21.9496 26.651C22.208 26.651 22.4607 26.523 22.6096 26.2889L22.8191 25.9593C23.0505 25.595 22.943 25.1123 22.579 24.8808Z" fill="black"/>
<path d="M18.0187 30.7269L17.6655 30.8937C17.2754 31.078 17.1086 31.5437 17.2928 31.9338C17.4262 32.2162 17.7069 32.3815 17.9997 32.3815C18.1115 32.3815 18.2251 32.3573 18.3329 32.3065L18.6861 32.1396C19.0763 31.9553 19.2431 31.4897 19.0589 31.0995C18.8744 30.7094 18.4088 30.5427 18.0187 30.7269Z" fill="black"/>
<path d="M24.4727 23.2812C24.0412 23.2812 23.6914 23.6311 23.6914 24.0625C23.6914 24.4939 24.0412 24.8438 24.4727 24.8438H24.8633C25.2948 24.8438 25.6445 24.4939 25.6445 24.0625C25.6445 23.6311 25.2948 23.2812 24.8633 23.2812H24.4727Z" fill="black"/>
</svg>
