<svg width="21" height="21" viewBox="0 0 21 21" fill="none" xmlns="http://www.w3.org/2000/svg">
<path d="M19.0189 3.791V5.44892C19.0189 5.78604 18.7453 6.05965 18.4082 6.05965H3.86958C3.75639 6.05965 3.66437 6.15167 3.66437 6.26485V17.0019C3.66437 17.339 3.39076 17.6126 3.05364 17.6126H1.42666C0.640043 17.6126 0 16.9726 0 16.1859V1.42666C0 0.640044 0.640043 0 1.42666 0H8.08727C8.63814 0 9.14546 0.322465 9.37916 0.821226L10.0469 2.24626C10.0803 2.31792 10.1532 2.36433 10.2326 2.36433H17.5922C18.3789 2.36433 19.0189 3.00438 19.0189 3.791Z" fill="#FABE2C"/>
<path d="M19.0189 3.79092V5.44884C19.0189 5.78597 18.7453 6.05957 18.4081 6.05957H11.6445V2.36426H17.5922C18.3788 2.36426 19.0189 3.0043 19.0189 3.79092Z" fill="#FF9100"/>
<path d="M20.8457 6.2648V18.6695C20.8457 19.4561 20.2056 20.0962 19.419 20.0962H3.86904C3.08243 20.0962 2.44238 19.4561 2.44238 18.6695V6.2648C2.44238 5.47818 3.08243 4.83813 3.86904 4.83813H19.419C20.2056 4.83813 20.8457 5.47818 20.8457 6.2648Z" fill="#FFE14D"/>
<path d="M20.8462 6.2648V18.6695C20.8462 19.4561 20.2061 20.0962 19.4195 20.0962H11.6445V4.83813H19.4195C20.2061 4.83813 20.8462 5.47818 20.8462 6.2648Z" fill="#FABE2C"/>
<path d="M14.9873 12.0799L12.0765 14.9911C12.0737 14.9939 12.0712 14.9964 12.0684 14.9988C11.9695 15.0981 11.8135 15.1698 11.6445 15.1698V7.28125C11.9817 7.28125 12.2553 7.55486 12.2553 7.89198V13.0844L14.1237 11.2164C14.3623 10.9778 14.7487 10.9778 14.9873 11.2164C15.2258 11.455 15.2258 11.8414 14.9873 12.0799Z" fill="#FABE2C"/>
<path d="M16.6178 15.6632V17.0427C16.6178 17.3798 16.3446 17.6534 16.0071 17.6534H7.2826C6.94507 17.6534 6.67188 17.3798 6.67188 17.0427V15.6632C6.67188 15.3257 6.94507 15.0525 7.2826 15.0525C7.61973 15.0525 7.89333 15.3257 7.89333 15.6632V16.4319H15.3963V15.6632C15.3963 15.3257 15.6699 15.0525 16.0071 15.0525C16.3446 15.0525 16.6178 15.3257 16.6178 15.6632Z" fill="#F0F7FF"/>
<path d="M14.9874 11.2164C14.7488 10.9778 14.3625 10.9778 14.1239 11.2164L12.2554 13.0844V7.89198C12.2554 7.55486 11.9818 7.28125 11.6447 7.28125C11.3076 7.28125 11.034 7.55486 11.034 7.89198V13.0848L9.16556 11.2164C8.92697 10.9778 8.54058 10.9778 8.30199 11.2164C8.0634 11.455 8.0634 11.8414 8.30199 12.0799L11.2127 14.9911C11.4535 15.2319 11.8438 15.2245 12.0686 14.9988C12.0714 14.9964 12.0738 14.9939 12.0767 14.9911L14.9874 12.0799C15.226 11.8414 15.226 11.455 14.9874 11.2164Z" fill="#F0F7FF"/>
<path d="M16.6175 15.6632V17.0427C16.6175 17.3798 16.3443 17.6534 16.0068 17.6534H11.6445V16.4319H15.396V15.6632C15.396 15.3257 15.6696 15.0525 16.0068 15.0525C16.3443 15.0525 16.6175 15.3257 16.6175 15.6632Z" fill="#DFE7F4"/>
<path d="M14.9873 12.0797L12.0765 14.9908C12.0737 14.9937 12.0712 14.9961 12.0684 14.9986C11.9695 15.0979 11.8135 15.1696 11.6445 15.1696V7.28101C11.9817 7.28101 12.2553 7.55461 12.2553 7.89173V13.0841L14.1237 11.2161C14.3623 10.9775 14.7487 10.9775 14.9873 11.2161C15.2258 11.4547 15.2258 11.8411 14.9873 12.0797Z" fill="#DFE7F4"/>
</svg>
