<svg width="19" height="19" viewBox="0 0 19 19" fill="none" xmlns="http://www.w3.org/2000/svg">
<path d="M13.1846 6.52644L17.1356 2.57544C18.2326 4.78013 17.8625 7.52906 16.0248 9.3667L14.0475 8.68311L13.1846 6.52644Z" fill="#F9F6F9"/>
<path d="M14.624 8.88263L14.0473 8.68315L13.1846 6.52644L17.1356 2.57544C17.3294 2.96532 17.4778 3.37208 17.5797 3.7879L14.0129 7.35474L14.624 8.88263Z" fill="#DDDAEC"/>
<path d="M7.18257 11.8174L9.47348 12.9424L10.736 11.6799C12.8377 12.4773 15.3034 12.0298 16.9957 10.3374L11.5028 4.84451L15.4538 0.893475C13.2491 -0.203528 10.5002 0.166643 8.66258 2.00428C6.9702 3.69666 6.52272 6.1623 7.32015 8.26401L6.05762 9.52654L7.18257 11.8174Z" fill="#F9F6F9"/>
<path d="M7.73445 12.0884L7.18268 11.8173L6.05762 9.52654L7.32015 8.26401C6.52272 6.1623 6.9702 3.69666 8.66258 2.00428C10.5003 0.166643 13.2492 -0.203528 15.4538 0.893475L15.073 1.2743C13.135 0.794122 11.0004 1.31163 9.48517 2.82683C7.79279 4.51921 7.34535 6.98485 8.14273 9.08656L6.8802 10.3491L7.73445 12.0884Z" fill="#DDDAEC"/>
<path d="M8.89071 13.5252L4.39986 18.0161C3.92826 18.4877 3.30983 18.7237 2.69193 18.7237C2.0735 18.7237 1.45534 18.488 0.983738 18.0163C0.0405336 17.0731 0.0405336 15.5437 0.983998 14.6002L5.47485 10.1094L8.89071 13.5252Z" fill="#9DC6FB"/>
<path d="M1.64625 18.4864C1.40657 18.3717 1.18218 18.2148 0.983738 18.0163C0.0405336 17.0731 0.0405336 15.5437 0.983998 14.6002L5.47485 10.1094L6.60689 11.2414L2.11604 15.7323C1.37102 16.4773 1.21436 17.5881 1.64625 18.4864Z" fill="#80B4FB"/>
<path d="M4.42383 11.1582L5.47272 10.1093L8.88805 13.5246L7.83916 14.5735L4.42383 11.1582Z" fill="#80B4FB"/>
<path d="M12.7604 7.75773C12.5508 7.54811 12.2109 7.54811 12.0013 7.75773C12.2109 7.54811 12.2109 7.20823 12.0013 6.99861C11.7917 6.78899 11.4518 6.78899 11.2422 6.99861C11.4518 6.78899 11.4518 6.44911 11.2422 6.23949C11.0326 6.02987 10.6927 6.02987 10.483 6.23949L9.17186 7.55067C8.96224 7.76029 8.96224 8.10018 9.17186 8.30979C9.38148 8.51941 9.72136 8.51941 9.93098 8.30979C9.72136 8.51941 9.72136 8.8593 9.93098 9.06892C10.1406 9.27853 10.4805 9.27853 10.6901 9.06892C10.4805 9.27853 10.4805 9.61842 10.6901 9.82804C10.8997 10.0377 11.2396 10.0377 11.4492 9.82804L12.7604 8.51685C12.97 8.3072 12.97 7.96735 12.7604 7.75773Z" fill="#D0CEE7"/>
<path d="M12.1738 9.10372L11.4493 9.82825C11.2396 10.0378 10.8996 10.0376 10.69 9.82799C10.4804 9.61838 10.4804 9.27856 10.69 9.06898C10.4804 9.2786 10.1406 9.2786 9.93099 9.06898C9.72137 8.85937 9.72137 8.51955 9.93099 8.30997C9.72137 8.51959 9.38156 8.51959 9.17198 8.30997C8.96236 8.10036 8.96214 7.76028 9.17172 7.5507L9.89625 6.82617C9.68663 7.03579 9.68689 7.37586 9.89651 7.58544C10.1061 7.79506 10.4459 7.79502 10.6555 7.58544C10.4459 7.79506 10.4459 8.13487 10.6555 8.34445C10.8651 8.55407 11.2049 8.55407 11.4145 8.34445C11.2049 8.55407 11.2049 8.89388 11.4145 9.10346C11.6241 9.31308 11.9642 9.31334 12.1738 9.10372Z" fill="#BEB9DD"/>
<path d="M9.54575 13.014L5.98663 9.45488C5.66464 9.13288 5.1426 9.13288 4.8206 9.45488C4.4986 9.77687 4.4986 10.2989 4.8206 10.6209L8.37972 14.18C8.70171 14.502 9.22375 14.502 9.54575 14.18C9.86775 13.858 9.86775 13.336 9.54575 13.014Z" fill="#9DC6FB"/>
<path d="M6.05361 11.5134C6.05361 11.724 6.13404 11.9352 6.29511 12.0963L4.81988 10.621C4.65881 10.46 4.57838 10.2488 4.57812 10.0379C4.57838 9.82704 4.65881 9.61586 4.81988 9.45479C5.14181 9.13287 5.66373 9.13287 5.98592 9.45505L7.46115 10.9303C7.13922 10.6084 6.61703 10.6081 6.29511 10.93C6.13404 11.0911 6.05361 11.3023 6.05361 11.5134Z" fill="#80B4FB"/>
<path d="M16.4126 9.36242C18.1285 7.48611 18.5239 4.74531 17.3833 2.45321C17.3434 2.37304 17.2674 2.31696 17.179 2.30253C17.0907 2.28813 17.0007 2.31708 16.9374 2.38039L13.1841 6.13369L11.8959 4.84547L15.6494 1.0924C15.7127 1.02909 15.7417 0.939159 15.7273 0.850792C15.7128 0.762424 15.6568 0.686379 15.5766 0.646482C13.5661 -0.354063 11.1713 -0.183638 9.32679 1.09118C9.20035 1.17858 9.16869 1.3519 9.25609 1.47835C9.34346 1.60475 9.51674 1.63645 9.64326 1.54905C11.2133 0.463883 13.2218 0.258496 14.9721 0.982545L11.3056 4.6487C11.2535 4.70088 11.2241 4.77166 11.2241 4.84547C11.2241 4.91929 11.2535 4.99007 11.3056 5.04225L16.5956 10.3325C15.0408 11.74 12.8104 12.1688 10.8345 11.4193C10.7322 11.3805 10.6165 11.4053 10.5391 11.4827L9.47346 12.548L6.45201 9.52654L7.51743 8.46112C7.59485 8.3837 7.61968 8.26801 7.58086 8.16562C6.80266 6.11446 7.29623 3.78232 8.8383 2.22418C8.94641 2.11495 8.94552 1.93874 8.83626 1.83063C8.727 1.72252 8.55078 1.72344 8.44271 1.83267C6.79023 3.50233 6.23308 5.98048 6.99873 8.19271L6.0484 9.14304C5.86194 9.00813 5.63859 8.93509 5.40396 8.93509C5.10943 8.93509 4.83256 9.04978 4.62431 9.25806C4.41603 9.4663 4.30135 9.74321 4.30135 10.0377C4.30135 10.2723 4.37432 10.4955 4.50915 10.682L0.788886 14.4022C0.28017 14.9111 0 15.5876 0 16.307C0 17.0264 0.280208 17.7027 0.788849 18.2112C1.29712 18.7199 1.97348 19 2.6933 19C3.41248 19 4.0888 18.7198 4.59767 18.2109L5.46924 17.3393C5.57795 17.2306 5.57795 17.0544 5.46924 16.9457C5.36057 16.8371 5.18436 16.8371 5.07569 16.9457L4.20411 17.8173C3.80039 18.2211 3.26384 18.4434 2.6933 18.4434C2.12223 18.4434 1.58571 18.2212 1.18244 17.8177C0.778828 17.4142 0.556592 16.8777 0.556592 16.307C0.556592 15.7362 0.778866 15.1995 1.18248 14.7957L4.89253 11.0857L7.91414 14.1073L5.86268 16.1587C5.75398 16.2674 5.75398 16.4436 5.86268 16.5522C5.91702 16.6066 5.98824 16.6338 6.05946 16.6338C6.13068 16.6338 6.2019 16.6066 6.25624 16.5522L8.31778 14.4907C8.50424 14.6257 8.72759 14.6987 8.96226 14.6987C9.25679 14.6987 9.53366 14.584 9.74191 14.3757C9.95019 14.1675 10.0649 13.8906 10.0649 13.596C10.0649 13.3614 9.99187 13.1381 9.85696 12.9516L10.8074 12.0014C13.0323 12.7714 15.5197 12.2052 17.1908 10.5341C17.2995 10.4255 17.2995 10.2492 17.1908 10.1406L16.4126 9.36242ZM17.0473 3.0576C17.875 5.05732 17.4774 7.35803 16.0182 8.96798L13.5776 6.52728L17.0473 3.0576ZM9.34835 13.9822C9.24522 14.0853 9.10808 14.1421 8.96226 14.1421C8.81641 14.1421 8.67927 14.0853 8.57617 13.9822L5.01783 10.4239C4.91469 10.3207 4.85791 10.1836 4.85791 10.0378C4.85791 9.89196 4.91469 9.75479 5.01783 9.65168C5.12097 9.54855 5.2581 9.49176 5.40392 9.49176C5.54974 9.49176 5.68691 9.54855 5.79002 9.65168L9.34835 13.21C9.45149 13.3132 9.50828 13.4503 9.50828 13.5961C9.50828 13.7419 9.45149 13.8791 9.34835 13.9822Z" fill="black"/>
<path d="M8.9756 8.50682C8.97564 8.50682 8.97564 8.50682 8.9756 8.50682C9.12094 8.65212 9.30792 8.73017 9.49846 8.74256C9.51111 8.94019 9.59325 9.12442 9.73457 9.26575C9.8759 9.40704 10.0601 9.48918 10.2578 9.50183C10.2702 9.69237 10.3482 9.87935 10.4935 10.0247C10.6524 10.1835 10.8611 10.263 11.0698 10.263C11.2785 10.263 11.4872 10.1835 11.646 10.0247L12.9569 8.71376C13.1108 8.55981 13.1956 8.35521 13.1956 8.1375C13.1956 7.91983 13.1109 7.71518 12.957 7.56127C12.8156 7.41994 12.6314 7.33781 12.4338 7.32516C12.4214 7.13462 12.3433 6.9476 12.198 6.8023C12.0527 6.657 11.8657 6.57899 11.6752 6.56659C11.6626 6.36893 11.5804 6.18469 11.4391 6.0434C11.2852 5.88946 11.0805 5.80469 10.8628 5.80469C10.6452 5.80469 10.4405 5.88946 10.2866 6.0434L8.9756 7.35429C8.65787 7.67206 8.65787 8.18905 8.9756 8.50682ZM12.639 8.13754C12.639 8.20653 12.6122 8.27144 12.5634 8.32025L11.2525 9.63113C11.1518 9.73186 10.9878 9.73186 10.8871 9.63113C10.7864 9.53041 10.7864 9.36648 10.8871 9.26575L12.198 7.95486C12.2468 7.90606 12.3117 7.87919 12.3807 7.87919C12.4497 7.87919 12.5146 7.90606 12.5634 7.9549C12.6122 8.00367 12.639 8.06854 12.639 8.13754ZM11.8044 7.56127L10.4935 8.87216C10.4447 8.92097 10.3798 8.94784 10.3108 8.94784C10.2418 8.94784 10.1769 8.92097 10.1282 8.87216C10.0794 8.82336 10.0525 8.75848 10.0525 8.68949C10.0525 8.62049 10.0794 8.55558 10.1282 8.50678L11.4391 7.19589C11.4894 7.14549 11.5556 7.12033 11.6218 7.12033C11.6879 7.12033 11.7541 7.14553 11.8044 7.19589C11.9051 7.29662 11.9051 7.46055 11.8044 7.56127ZM9.36919 7.74784L10.6801 6.43695C10.7289 6.38815 10.7938 6.36128 10.8628 6.36128C10.9318 6.36128 10.9967 6.38815 11.0455 6.43699C11.0943 6.4858 11.1212 6.55067 11.1212 6.61966C11.1212 6.68866 11.0943 6.75353 11.0455 6.80234L9.73461 8.11323C9.63389 8.21395 9.46996 8.21395 9.36923 8.11323C9.26847 8.0125 9.26847 7.84857 9.36919 7.74784Z" fill="black"/>
</svg>
