<svg width="34" height="34" viewBox="0 0 34 34" fill="none" xmlns="http://www.w3.org/2000/svg">
<rect width="34" height="34" rx="5" fill="#FFE2E5"/>
<path d="M17 6C16.0932 6 15.3306 6.6276 15.1227 7.47112C13.0244 7.88298 11.1103 8.98405 9.68955 10.6076C8.14156 12.3766 7.28906 14.6468 7.28906 17C7.28906 17.356 7.57764 17.6445 7.93359 17.6445C8.28955 17.6445 8.57812 17.356 8.57812 17C8.57812 14.9591 9.31736 12.9904 10.6597 11.4565C11.8653 10.0787 13.4798 9.1344 15.2522 8.75971C15.5626 9.41374 16.2292 9.86719 17 9.86719C18.0662 9.86719 18.9336 8.99978 18.9336 7.93359C18.9336 6.86741 18.0662 6 17 6Z" fill="#FCB6BE"/>
<path d="M22.5243 15.8298C22.3684 15.7214 22.0719 15.55 21.8605 15.4587L21.5268 14.653C21.6091 14.4454 21.6992 14.1132 21.7337 13.9213C21.771 13.7136 21.7043 13.5008 21.5551 13.3515L20.6485 12.445C20.4993 12.2957 20.2864 12.229 20.0788 12.2663C19.8897 12.3003 19.5597 12.3889 19.347 12.4733L18.5413 12.1395C18.453 11.9349 18.2818 11.6361 18.1702 11.4758C18.0497 11.3025 17.8521 11.1992 17.6411 11.1992H16.359C16.148 11.1992 15.9503 11.3025 15.8298 11.4758C15.7214 11.6316 15.55 11.9281 15.4587 12.1395L14.653 12.4733C14.4454 12.3909 14.1132 12.3009 13.9213 12.2663C13.7137 12.2291 13.5008 12.2958 13.3515 12.445L12.445 13.3515C12.2957 13.5008 12.229 13.7136 12.2663 13.9213C12.3003 14.1103 12.3889 14.4404 12.4733 14.653L12.1395 15.4587C11.9349 15.5471 11.6361 15.7183 11.4758 15.8298C11.3025 15.9503 11.1992 16.148 11.1992 16.359V17.6411C11.1992 17.8521 11.3025 18.0497 11.4758 18.1702C11.6316 18.2786 11.9281 18.45 12.1395 18.5413L12.4733 19.347C12.3909 19.5546 12.3009 19.8868 12.2663 20.0788C12.229 20.2865 12.2957 20.4993 12.445 20.6485L13.3515 21.5551C13.5007 21.7043 13.7134 21.7709 13.9213 21.7337C14.1103 21.6997 14.4404 21.6111 14.653 21.5268L15.4587 21.8605C15.5471 22.0651 15.7183 22.364 15.8298 22.5243C15.9503 22.6975 16.148 22.8008 16.359 22.8008H17.6411C17.8521 22.8008 18.0497 22.6975 18.1702 22.5243C18.2786 22.3684 18.45 22.0719 18.5413 21.8605L19.347 21.5268C19.5546 21.6091 19.8868 21.6992 20.0788 21.7337C20.2865 21.771 20.4993 21.7043 20.6485 21.5551L21.5551 20.6485C21.7043 20.4993 21.771 20.2865 21.7337 20.0788C21.6997 19.8897 21.6111 19.5597 21.5268 19.347L21.8605 18.5413C22.0651 18.453 22.364 18.2818 22.5243 18.1702C22.6975 18.0497 22.8008 17.8521 22.8008 17.6411V16.359C22.8008 16.148 22.6975 15.9503 22.5243 15.8298ZM17 19.5782C15.5784 19.5782 14.4219 18.4217 14.4219 17.0001C14.4219 15.5785 15.5784 14.422 17 14.422C18.4216 14.422 19.5781 15.5785 19.5781 17.0001C19.5781 18.4217 18.4216 19.5782 17 19.5782Z" fill="#F64E60"/>
<path d="M26.0664 16.3555C25.7105 16.3555 25.4219 16.644 25.4219 17C25.4219 19.0409 24.6826 21.0096 23.3403 22.5435C22.1347 23.9213 20.5202 24.8656 18.7478 25.2403C18.4374 24.5863 17.7708 24.1328 17 24.1328C15.9338 24.1328 15.0664 25.0002 15.0664 26.0664C15.0664 27.1326 15.9338 28 17 28C17.9068 28 18.6694 27.3724 18.8773 26.5289C20.9756 26.117 22.8897 25.0159 24.3104 23.3924C25.8584 21.6234 26.7109 19.3532 26.7109 17C26.7109 16.644 26.4224 16.3555 26.0664 16.3555Z" fill="#FCB6BE"/>
</svg>
