<svg width="10" height="13" viewBox="0 0 10 13" fill="none" xmlns="http://www.w3.org/2000/svg">
<path d="M9.6888 0.0387038C9.50056 -0.039621 9.28391 0.00309218 9.1397 0.147275L7.83684 1.45016C5.74722 -0.0654355 2.80239 0.111663 0.92019 1.99392L0.387131 2.527C-0.0222728 2.93636 -0.0222728 3.60113 0.387131 4.01054C0.591807 4.21521 0.860552 4.31756 1.12844 4.31756C1.39724 4.31756 1.66552 4.21524 1.8702 4.01054L2.40331 3.47742C3.46455 2.41576 5.08203 2.24667 6.32483 2.96308L5.15457 4.13243C5.01036 4.27659 4.96768 4.49373 5.04507 4.68153C5.12342 4.87022 5.30715 4.99302 5.51097 4.99302H9.49571C9.77425 4.99302 9.99985 4.76696 9.99985 4.48927V0.504142C9.99982 0.300348 9.87746 0.116121 9.6888 0.0387038Z" fill="black"/>
<path d="M8.12963 8.59579L7.59698 9.12885C6.98334 9.74287 6.16643 10.0811 5.29827 10.0811C4.71846 10.0811 4.16316 9.92713 3.67455 9.6441L4.84525 8.47296C4.98987 8.32878 5.03261 8.11252 4.95475 7.92388C4.87643 7.73606 4.69267 7.61328 4.48885 7.61328H0.504135C0.225592 7.61328 0 7.83848 0 8.117V12.1022C0 12.3059 0.1228 12.4893 0.311018 12.5676C0.499236 12.6459 0.716353 12.6023 0.860535 12.4581L2.16165 11.157C3.06895 11.8165 4.15466 12.1787 5.29827 12.1787C6.72706 12.1787 8.06999 11.6225 9.08056 10.6115L9.61316 10.0793C10.0225 9.66903 10.0225 9.00517 9.61316 8.59579C9.20331 8.18641 8.53898 8.18641 8.12963 8.59579Z" fill="black"/>
</svg>
