<svg width="11" height="9" viewBox="0 0 11 9" fill="none" xmlns="http://www.w3.org/2000/svg">
<path d="M5.0987 2.37234L5.09858 2.37227C4.90151 2.25633 4.74852 2.25002 4.44999 2.25002C3.65052 2.25002 2.99999 2.90053 2.99999 3.70002C2.99999 3.81062 2.91037 3.90001 2.8 3.90001C2.00053 3.90001 1.35001 4.55052 1.35001 5.35001C1.35001 6.14948 2.00051 6.8 2.8 6.8H3.25C3.36037 6.8 3.44999 6.8894 3.44999 6.99999C3.44999 7.1106 3.36037 7.19999 3.25 7.19999H2.8C1.77984 7.19999 0.95 6.37015 0.95 5.34999C0.95 4.39408 1.67873 3.60533 2.60968 3.50969C2.70533 2.5786 3.49408 1.85 4.44999 1.85H4.45362C4.67205 1.85 4.87703 1.84999 5.09641 1.93005C5.39794 1.33305 6.07634 0.95 6.85 0.95C7.87016 0.95 8.7 1.77984 8.7 2.8C8.7 2.88164 8.69403 2.96459 8.68235 3.04811C9.49598 3.36708 10.05 4.16557 10.05 5.04998C10.05 6.23561 9.08558 7.19999 7.89998 7.19999H7.59997C7.4896 7.19999 7.39998 7.11059 7.39998 6.99999C7.39998 6.8894 7.4896 6.8 7.59997 6.8H7.89998C8.86491 6.8 9.64998 6.01494 9.64998 5.05C9.64998 4.28106 9.13477 3.59108 8.39719 3.37281L5.0987 2.37234ZM5.0987 2.37234C5.15071 2.40273 5.21354 2.40805 5.26988 2.38736L5.27019 2.38724M5.0987 2.37234L5.27019 2.38724M5.27019 2.38724C5.32671 2.36606 5.37073 2.32051 5.38978 2.26322L5.27019 2.38724ZM5.38979 2.26318C5.56728 1.73065 6.16424 1.35001 6.84998 1.35001C7.64947 1.35001 8.29998 2.00053 8.29998 2.8C8.29998 2.90819 8.2864 3.02087 8.25933 3.13496C8.23474 3.2382 8.29535 3.34276 8.39714 3.37279L5.38979 2.26318Z" fill="black" stroke="black" stroke-width="0.1"/>
<path d="M3.45893 4.02822L3.45888 4.0282C3.28996 3.94183 3.08198 3.90004 2.7999 3.90004C2.68952 3.90004 2.5999 3.81064 2.5999 3.70004C2.5999 3.58944 2.68952 3.50005 2.7999 3.50005C3.14118 3.50005 3.40967 3.55384 3.64086 3.67185L3.45893 4.02822ZM3.45893 4.02822C3.48795 4.04303 3.51918 4.05003 3.54974 4.05003M3.45893 4.02822L3.54974 4.05003M3.54974 4.05003C3.62234 4.05003 3.69266 4.01034 3.72796 3.94094M3.54974 4.05003L3.72796 3.94094M3.72796 3.94094L3.68339 3.91828M3.72796 3.94094L3.68339 3.91828M3.68339 3.91828L3.72789 3.94108C3.7783 3.84269 3.73932 3.72208 3.64087 3.67186L3.54974 4.00003C3.60434 4.00003 3.65699 3.97018 3.68339 3.91828Z" fill="black" stroke="black" stroke-width="0.1"/>
<path d="M6.66686 6.02992C6.7109 6.13077 6.82891 6.17817 6.93042 6.13304C7.03137 6.08877 7.07749 5.97104 7.03333 5.8699L7.03332 5.86986C6.75846 5.24144 6.17085 4.8499 5.5001 4.8499C4.56273 4.8499 3.8001 5.61254 3.8001 6.54991C3.8001 6.66051 3.88972 6.7499 4.00009 6.7499C4.11046 6.7499 4.20009 6.66051 4.20009 6.54991C4.20009 5.83307 4.78325 5.24991 5.50008 5.24991C6.00878 5.24991 6.45581 5.54777 6.66686 6.02992ZM6.66686 6.02992L6.71268 6.00991M6.66686 6.02992C6.66686 6.02993 6.66687 6.02994 6.66687 6.02996L6.71268 6.00991M6.71268 6.00991C6.74583 6.08581 6.83447 6.12105 6.91022 6.0873L6.98751 5.8899C6.72036 5.2791 6.15035 4.8999 5.5001 4.8999C4.59035 4.8999 3.8501 5.64015 3.8501 6.54991C3.8501 6.63286 3.9173 6.6999 4.00009 6.6999C4.08288 6.6999 4.15009 6.63286 4.15009 6.54991C4.15009 5.80546 4.75563 5.19991 5.50008 5.19991C6.02943 5.19991 6.49399 5.51027 6.71268 6.00991Z" fill="black" stroke="black" stroke-width="0.1"/>
<path d="M6.85038 5.7498H5.80038C5.69001 5.7498 5.60039 5.8392 5.60039 5.9498C5.60039 6.0604 5.69001 6.14979 5.80038 6.14979H6.85038C6.96075 6.14979 7.05037 6.0604 7.05037 5.9498C7.05037 5.8392 6.96075 5.7498 6.85038 5.7498Z" fill="black" stroke="black" stroke-width="0.1"/>
<path d="M6.85019 4.7C6.73982 4.7 6.6502 4.78939 6.6502 4.89999V5.94999C6.6502 6.06059 6.73982 6.14998 6.85019 6.14998C6.96056 6.14998 7.05018 6.06059 7.05018 5.94999V4.89999C7.05018 4.78939 6.96056 4.7 6.85019 4.7Z" fill="black" stroke="black" stroke-width="0.1"/>
<path d="M3.91982 7.11687C3.81884 7.1611 3.77266 7.27888 3.81685 7.38006L3.81686 7.38009C4.09172 8.00851 4.67934 8.40005 5.35008 8.40005C6.28745 8.40005 7.05009 7.63741 7.05009 6.70004V6.70002C7.05004 6.58944 6.96044 6.50005 6.85006 6.50005C6.73969 6.50005 6.65006 6.58944 6.65006 6.70004C6.65006 7.41688 6.0669 8.00004 5.35006 8.00004C4.84137 8.00004 4.39434 7.70219 4.18329 7.22003M3.91982 7.11687C4.02116 7.07224 4.13913 7.11878 4.18329 7.22003M3.91982 7.11687C3.91984 7.11686 3.91986 7.11685 3.91988 7.11684L3.93993 7.16265M3.91982 7.11687C3.9198 7.11688 3.91978 7.11689 3.91976 7.11689L3.93993 7.16265M4.18329 7.22003C4.1833 7.22004 4.1833 7.22005 4.18331 7.22006L4.13747 7.24004M4.18329 7.22003C4.18329 7.22002 4.18328 7.22001 4.18328 7.22L4.13747 7.24004M4.13747 7.24004C4.10432 7.164 4.01582 7.1292 3.93993 7.16265M4.13747 7.24004C4.35616 7.7397 4.82072 8.05004 5.35006 8.05004C6.09452 8.05004 6.70006 7.44449 6.70006 6.70004C6.70006 6.61709 6.76727 6.55005 6.85006 6.55005C6.93285 6.55005 7.00005 6.61709 7.00009 6.70004L3.93993 7.16265" fill="black" stroke="black" stroke-width="0.1"/>
<path d="M5.05008 7.0999H4.00009C3.88972 7.0999 3.8001 7.1893 3.8001 7.2999C3.8001 7.4105 3.88972 7.49989 4.00009 7.49989H5.05008C5.16046 7.49989 5.25008 7.4105 5.25008 7.2999C5.25008 7.18932 5.16046 7.0999 5.05008 7.0999Z" fill="black" stroke="black" stroke-width="0.1"/>
<path d="M4.00009 7.0999C3.88972 7.0999 3.8001 7.1893 3.8001 7.2999V8.34991C3.8001 8.46051 3.88972 8.5499 4.00009 8.5499C4.11046 8.5499 4.20008 8.46051 4.20008 8.34991V7.29991C4.20008 7.18932 4.11047 7.0999 4.00009 7.0999Z" fill="black" stroke="black" stroke-width="0.1"/>
</svg>
