<svg width="19" height="15" viewBox="0 0 19 15" fill="none" xmlns="http://www.w3.org/2000/svg">
<path d="M15.7774 5.60742C16.3139 2.68073 14.0592 0 11.1094 0C9.40482 0 7.87947 0.904254 7.03891 2.30393C5.8924 1.93345 4.71354 2.09134 3.74231 2.75994C2.77161 3.42816 2.19189 4.48615 2.14495 5.64332C0.847898 6.25437 0 7.54587 0 8.96484C0 9.20788 0.0238359 9.45098 0.0708047 9.68748C0.412488 11.4077 1.93514 12.6562 3.69141 12.6562H14.2734C16.3283 12.6562 18 11.0003 18 8.96484C18 7.5124 17.1188 6.20132 15.7774 5.60742ZM14.2734 11.6016H3.69141C2.25 11.6016 1.05469 10.4331 1.05469 8.96484C1.05469 7.86621 1.77669 6.87234 2.85131 6.49178L3.22573 6.35917L3.20164 5.96268C3.14501 5.03103 3.57071 4.15849 4.34039 3.62865C5.15429 3.06833 6.15277 3.02963 7.06672 3.44405L7.54175 3.65945L7.76236 3.18681C8.36691 1.89162 9.6807 1.05469 11.1094 1.05469C13.1448 1.05469 14.8008 2.71065 14.8008 4.74609C14.8008 5.34818 14.6738 5.71271 14.5333 6.19537C14.9265 6.39949 14.9902 6.43732 15.1226 6.48267C16.2128 6.8561 16.9453 7.85362 16.9453 8.96484C16.9453 10.4187 15.7467 11.6016 14.2734 11.6016Z" fill="white"/>
<circle cx="14" cy="10" r="5" fill="black"/>
<path d="M14 5C11.2386 5 9 7.23858 9 10C9 12.7614 11.2386 15 14 15C16.7614 15 19 12.7614 19 10C18.9967 7.23993 16.7601 5.00327 14 5ZM12.0334 9.59594L11.0959 10.5334C10.9739 10.6554 10.7761 10.6554 10.6541 10.5334L9.71656 9.59594C9.59813 9.47332 9.59983 9.27841 9.72037 9.15787C9.84091 9.03733 10.0358 9.03563 10.1584 9.15406L10.59 9.58562C10.8009 7.86177 12.2633 6.56526 14 6.5625C14.1726 6.5625 14.3125 6.70241 14.3125 6.875C14.3125 7.04759 14.1726 7.1875 14 7.1875C12.6361 7.18997 11.47 8.1697 11.2325 9.51281L11.5916 9.15406C11.7142 9.03563 11.9091 9.03733 12.0296 9.15787C12.1502 9.27841 12.1519 9.47332 12.0334 9.59594ZM18.2834 10.5334C18.1614 10.6554 17.9636 10.6554 17.8416 10.5334L17.4312 10.1231C17.3642 11.9706 15.8487 13.4345 14 13.4375C13.8274 13.4375 13.6875 13.2976 13.6875 13.125C13.6875 12.9524 13.8274 12.8125 14 12.8125C15.499 12.8106 16.733 11.6334 16.8056 10.1363L16.4084 10.5334C16.2858 10.6519 16.0909 10.6502 15.9704 10.5296C15.8498 10.4091 15.8481 10.2142 15.9666 10.0916L16.9041 9.15406C17.0261 9.03207 17.2239 9.03207 17.3459 9.15406L18.2834 10.0916C18.4054 10.2136 18.4054 10.4114 18.2834 10.5334Z" fill="#F6425E"/>
</svg>
