<svg width="32" height="35" viewBox="0 0 32 35" fill="none" xmlns="http://www.w3.org/2000/svg">
<path d="M16.5994 6.00583L15.754 0.689819H3.35073C1.48306 0.689819 0 2.1337 0 3.90571V26.1613C0 27.9333 1.48306 29.3479 3.35073 29.3479H15.1164L23.5928 17.1698V8.48524L16.5994 6.00583Z" fill="#00ACEA"/>
<path d="M15.7542 0.697144L23.5697 8.4852H18.3671C16.9222 8.4852 15.7542 7.3768 15.7542 6.00579V0.697144Z" fill="#00EFD1"/>
<path d="M5.44108 18.8471H15.4544C15.877 18.8471 16.223 18.5192 16.223 18.118C16.223 17.717 15.877 17.3887 15.4544 17.3887H5.44108C5.01849 17.3887 4.67249 17.717 4.67249 18.118C4.67249 18.5192 5.01849 18.8471 5.44108 18.8471Z" fill="#083863"/>
<path d="M5.44109 15.2011H13.2259C13.6485 15.2011 13.9945 14.873 13.9945 14.4718C13.9945 14.0708 13.6485 13.7427 13.2259 13.7427H5.44109C5.0185 13.7427 4.67249 14.0708 4.67249 14.4718C4.67249 14.873 5.0185 15.2011 5.44109 15.2011Z" fill="#083863"/>
<path d="M12.926 21.1077H5.44108C5.01849 21.1077 4.67249 21.436 4.67249 21.8368C4.67249 22.238 5.01849 22.5661 5.44108 22.5661H12.926C13.3488 22.5661 13.6946 22.238 13.6946 21.8368C13.6946 21.436 13.3488 21.1077 12.926 21.1077Z" fill="#083863"/>
<path d="M23.5698 15.719C28.3345 16.3531 32 20.2326 32 24.9286C32 30.0623 27.6121 34.2263 22.2019 34.2263C18.4825 34.2263 15.2394 32.2574 13.587 29.3551C12.8339 28.0352 12.4036 26.5258 12.4036 24.9215C12.4036 19.7878 16.7917 15.624 22.2019 15.624C22.6631 15.6314 23.1163 15.6607 23.5698 15.719Z" fill="#FEDB41"/>
<path d="M25.1757 20.9617C24.7534 20.9617 24.4074 21.29 24.4074 21.691C24.4074 22.0922 24.7534 22.4201 25.1757 22.4201C26.6437 22.4201 27.8427 23.5578 27.8427 24.9507C27.8427 25.6286 27.5659 26.2486 27.0587 26.7225C26.5516 27.2041 25.8829 27.4446 25.1682 27.4446H23.2084L24.2997 26.2486C24.5765 25.9424 24.5381 25.4902 24.2154 25.2278C23.8926 24.9652 23.4084 25.0018 23.1316 25.3081L20.9492 27.7216C20.9492 27.7216 20.9492 27.7291 20.9416 27.7291C20.9336 27.7363 20.9261 27.7437 20.9183 27.7508C20.9108 27.7582 20.903 27.7727 20.8955 27.7799C20.8877 27.7875 20.8797 27.7946 20.8797 27.8092C20.8722 27.8165 20.8644 27.8311 20.8568 27.8382C20.8491 27.8458 20.8491 27.8603 20.8415 27.8675C20.8338 27.8749 20.8338 27.8894 20.8262 27.897C20.8182 27.9041 20.8182 27.9187 20.8107 27.926C20.8029 27.9332 20.8029 27.9477 20.7954 27.9625C20.7954 27.9698 20.7876 27.9844 20.7876 27.9915C20.7876 28.0061 20.7801 28.0136 20.7801 28.0282C20.7801 28.0353 20.7723 28.0499 20.7723 28.0572C20.7723 28.072 20.7647 28.0865 20.7647 28.1011V28.1303C20.7647 28.152 20.7492 28.1739 20.7492 28.1887L20.7339 28.1958C20.7339 28.2177 20.7492 28.2394 20.7492 28.2615C20.7492 28.2687 20.7568 28.2761 20.7568 28.2906C20.7568 28.3053 20.7647 28.3199 20.7647 28.3344C20.7647 28.3416 20.7723 28.3561 20.7723 28.3637C20.7723 28.3782 20.7801 28.3854 20.7801 28.3999C20.7801 28.4073 20.7876 28.422 20.7876 28.4294C20.7954 28.4439 20.7954 28.4511 20.8029 28.4656C20.8107 28.4732 20.8107 28.4877 20.8182 28.4949C20.8262 28.5022 20.8262 28.5168 20.8338 28.5239C20.8415 28.5315 20.8415 28.546 20.8491 28.5532C20.8568 28.5606 20.8644 28.5751 20.8722 28.5823C20.8797 28.5899 20.8877 28.597 20.8877 28.6115C20.8955 28.6189 20.903 28.6334 20.9108 28.641C20.9183 28.6482 20.9261 28.6556 20.9336 28.6627C20.9336 28.6627 20.9336 28.6701 20.9416 28.6701L23.124 31.0691C23.2779 31.2369 23.4929 31.3245 23.7082 31.3245C23.8847 31.3245 24.0616 31.2662 24.2076 31.1495C24.5303 30.8869 24.5609 30.4128 24.2844 30.1066L23.2239 28.9106H25.1837C26.3057 28.9106 27.3661 28.5096 28.1576 27.7584C28.9493 27.0076 29.3872 26.0083 29.3872 24.9437C29.3797 22.741 27.4967 20.9617 25.1757 20.9617Z" fill="#083863"/>
<path d="M21.2335 24.5786L23.4161 22.1651C23.4161 22.1651 23.4161 22.1577 23.4237 22.1577C23.4315 22.1505 23.439 22.1432 23.4468 22.136C23.4543 22.1284 23.4623 22.1139 23.4699 22.1067C23.4776 22.0993 23.4852 22.0922 23.4852 22.0772C23.4929 22.0701 23.5005 22.0555 23.5083 22.0482C23.5158 22.041 23.5158 22.0265 23.5238 22.0189C23.5316 22.0117 23.5316 21.9972 23.5391 21.9898C23.5469 21.9827 23.5469 21.9681 23.5544 21.9606C23.5622 21.946 23.5622 21.9389 23.5697 21.9243C23.5697 21.917 23.5777 21.9022 23.5777 21.8951C23.5777 21.8805 23.5853 21.8732 23.5853 21.8586C23.5853 21.8511 23.593 21.8365 23.593 21.8294C23.593 21.8148 23.6006 21.8003 23.6006 21.7856C23.6006 21.7782 23.6006 21.771 23.6006 21.7565C23.6006 21.7344 23.6006 21.7127 23.6006 21.6908L23.593 21.6836C23.593 21.6615 23.593 21.6398 23.593 21.6177C23.593 21.6105 23.593 21.6032 23.593 21.5886C23.593 21.5741 23.593 21.5594 23.5853 21.5448C23.5853 21.5377 23.5777 21.5231 23.5777 21.5158C23.5777 21.501 23.5697 21.4939 23.5697 21.4793C23.5697 21.472 23.5622 21.4574 23.5622 21.4503C23.5544 21.4355 23.5544 21.4282 23.5469 21.4136C23.5391 21.4065 23.5391 21.3919 23.5316 21.3844C23.5238 21.3772 23.5238 21.3627 23.5158 21.3553C23.5083 21.3479 23.5083 21.3332 23.5005 21.326C23.4929 21.3187 23.4852 21.3041 23.4776 21.297C23.4699 21.2896 23.4623 21.2824 23.4623 21.2677C23.4543 21.2603 23.4468 21.2458 23.439 21.2386C23.4315 21.2313 23.4237 21.2241 23.4161 21.2165C23.4161 21.2165 23.4161 21.2094 23.4084 21.2094L21.2258 18.8102C20.9492 18.504 20.4651 18.4747 20.1424 18.7373C19.8195 18.9997 19.7889 19.4593 20.0654 19.7657L21.149 20.9615H19.1894C18.0674 20.9615 17.007 21.377 16.2153 22.1282C15.4238 22.8792 14.9857 23.8855 14.9857 24.9501C14.9857 27.1523 16.8687 28.9391 19.1894 28.9391C19.612 28.9391 19.958 28.6107 19.958 28.2098C19.958 27.8086 19.612 27.4807 19.1894 27.4807C17.7214 27.4807 16.5227 26.3428 16.5227 24.9501C16.5227 24.2721 16.7992 23.6376 17.3064 23.1564C17.8138 22.6749 18.4825 22.4125 19.1969 22.4125H21.1643L20.073 23.6231C19.7964 23.9293 19.835 24.3888 20.1577 24.6512C20.3036 24.7679 20.4805 24.8262 20.6571 24.8262C20.8646 24.834 21.0799 24.7464 21.2335 24.5786Z" fill="#083863"/>
</svg>
