<svg width="19" height="16" viewBox="0 0 19 16" fill="none" xmlns="http://www.w3.org/2000/svg">
<path d="M18.12 11.3073C18.12 10.247 17.8025 9.22315 17.2017 8.34649C16.7695 7.71593 16.2131 7.1923 15.5682 6.80318C16.3274 6.08418 16.8025 5.06795 16.8025 3.94222C16.8025 1.7685 15.034 0 12.8603 0C11.5714 0 10.364 0.637465 9.63056 1.6839C9.4442 1.65676 9.2538 1.64211 9.05999 1.64211C8.86618 1.64211 8.67583 1.65681 8.48946 1.6839C7.75602 0.637465 6.54861 0 5.25972 0C3.08599 0 1.3175 1.7685 1.3175 3.94222C1.3175 5.06795 1.79253 6.08418 2.55181 6.80318C1.9069 7.19225 1.35043 7.71593 0.91835 8.34644C0.317565 9.22315 0 10.247 0 11.3073V13.5H3.80032V15.1421H14.3198V13.5H18.12V11.3073H18.12ZM12.8603 0.97298C14.4976 0.97298 15.8295 2.30497 15.8295 3.94227C15.8295 5.57957 14.4976 6.91156 12.8603 6.91156C12.831 6.91156 12.8016 6.91112 12.7723 6.91025C12.7745 6.90402 12.7763 6.89765 12.7785 6.89142C12.8292 6.74772 12.8715 6.60013 12.9054 6.44937C12.9078 6.43867 12.9105 6.42806 12.9128 6.41731C12.9216 6.37664 12.9293 6.33558 12.9369 6.29443C12.9404 6.27497 12.9441 6.25556 12.9473 6.23605C12.9535 6.19933 12.959 6.16245 12.9641 6.12543C12.9677 6.0997 12.9709 6.07396 12.9739 6.04818C12.9778 6.01549 12.9815 5.98275 12.9846 5.94982C12.9877 5.9162 12.99 5.88254 12.9923 5.84883C12.994 5.82227 12.9962 5.7958 12.9974 5.7691C13.0001 5.71184 13.0016 5.65448 13.0018 5.59708C13.0018 5.59285 13.0022 5.58871 13.0022 5.58443C13.0022 5.58215 13.002 5.57986 13.002 5.57757C13.0019 5.51895 13.0002 5.46068 12.9975 5.40259C12.9968 5.38571 12.9957 5.36888 12.9948 5.35205C12.9919 5.30267 12.9882 5.25354 12.9835 5.20465C12.9825 5.19356 12.9816 5.18247 12.9805 5.17142C12.8335 3.75051 11.9358 2.53429 10.6408 1.97174C11.1988 1.34483 12.006 0.97298 12.8603 0.97298ZM8.03262 2.7983C8.04211 2.79484 8.05169 2.79158 8.06118 2.78818C8.0907 2.77762 8.12048 2.7676 8.15039 2.75792C8.17306 2.75067 8.19588 2.74367 8.21884 2.73695C8.23553 2.73204 8.25226 2.72732 8.26904 2.72265C8.29901 2.71443 8.32912 2.7064 8.35953 2.69906C8.58427 2.64448 8.81865 2.61485 9.05989 2.61485C9.30132 2.61505 9.5358 2.64472 9.7606 2.6993C9.79081 2.7066 9.82072 2.71458 9.85054 2.72275C9.86757 2.72747 9.8846 2.73224 9.90148 2.73725C9.92415 2.74391 9.94672 2.75082 9.96914 2.75797C9.99945 2.76775 10.0296 2.77787 10.0594 2.78857C10.0686 2.79183 10.0778 2.79494 10.087 2.7983C11.08 3.16553 11.8245 4.04929 11.993 5.1218C11.9944 5.13037 11.9956 5.13898 11.9969 5.14759C12.0023 5.18393 12.0068 5.22056 12.0108 5.25729C12.0123 5.27081 12.0139 5.28428 12.0152 5.29786C12.0184 5.33137 12.0208 5.36513 12.0229 5.39899C12.0238 5.41349 12.025 5.42794 12.0257 5.44248C12.0277 5.48573 12.0288 5.52922 12.029 5.57295C12.029 5.57675 12.0292 5.58044 12.0292 5.58424C12.0292 5.58599 12.0291 5.58779 12.0291 5.58954C12.029 5.63186 12.0278 5.67389 12.0259 5.71578C12.0253 5.72896 12.0248 5.74215 12.024 5.75528C12.0217 5.79575 12.0187 5.83603 12.0148 5.87602C12.0133 5.89149 12.0112 5.90691 12.0095 5.92233C12.0065 5.94821 12.0032 5.97404 11.9996 5.99973C11.9968 6.01972 11.994 6.03977 11.9908 6.05966C11.9858 6.08997 11.9804 6.12008 11.9746 6.1501C11.9693 6.1768 11.9637 6.20341 11.9577 6.22997C11.9542 6.24598 11.9505 6.26198 11.9466 6.27789C11.9371 6.31734 11.9267 6.35655 11.9156 6.39561C11.9112 6.41113 11.9071 6.42675 11.9024 6.44212C11.8956 6.4645 11.8883 6.48668 11.8811 6.50886C11.8753 6.52662 11.8693 6.54428 11.8631 6.56189C11.8561 6.58188 11.8492 6.60192 11.8418 6.62177C11.8292 6.65548 11.816 6.68891 11.8022 6.72203C11.7961 6.73682 11.7895 6.75146 11.7832 6.7662C11.7712 6.79379 11.7588 6.82122 11.746 6.84837C11.7445 6.85158 11.7429 6.85479 11.7414 6.858C11.7368 6.86763 11.7322 6.87731 11.7275 6.88695C11.7131 6.91633 11.6981 6.94537 11.6828 6.97417C11.6768 6.98536 11.671 6.99669 11.6649 7.00783C11.6645 7.00856 11.6641 7.00924 11.6637 7.00992C11.6469 7.04057 11.6293 7.07073 11.6115 7.1007C11.6044 7.11257 11.5973 7.12449 11.5901 7.13621C11.5706 7.16778 11.5506 7.19901 11.5301 7.22976C11.5173 7.24888 11.5039 7.26761 11.4907 7.28643C11.4794 7.30239 11.4682 7.31839 11.4567 7.33411C11.4418 7.35444 11.4265 7.37453 11.4111 7.39452C11.4006 7.4081 11.39 7.42157 11.3793 7.435C11.3629 7.45543 11.3464 7.47576 11.3296 7.49576C11.3191 7.50816 11.3084 7.52032 11.2977 7.53253C11.2802 7.55263 11.2628 7.57276 11.2448 7.59237C11.2341 7.604 11.223 7.61518 11.2121 7.62667C11.1828 7.65756 11.1528 7.68777 11.1223 7.71739C11.1041 7.73495 11.0861 7.75256 11.0675 7.76964C11.0546 7.78146 11.0415 7.79294 11.0284 7.80457C11.0071 7.82349 10.9856 7.84222 10.9638 7.86051C10.9527 7.8698 10.9415 7.87899 10.9303 7.88814C10.9038 7.90964 10.8771 7.93071 10.8499 7.95133C10.8425 7.95693 10.8352 7.96262 10.8278 7.96816C10.3335 8.33559 9.72173 8.55338 9.05994 8.55338C8.3981 8.55338 7.78623 8.33554 7.29198 7.96802C7.28468 7.96257 7.27753 7.95698 7.27028 7.95148C7.24299 7.9308 7.21609 7.90959 7.18958 7.888C7.17844 7.8789 7.1673 7.8698 7.1563 7.86056C7.13436 7.84217 7.11286 7.82334 7.09146 7.80437C7.07847 7.79279 7.06533 7.78141 7.05254 7.76964C7.03391 7.75251 7.01581 7.73486 6.99762 7.71729C6.96692 7.68757 6.93691 7.65726 6.90752 7.62628C6.89677 7.61494 6.88578 7.6039 6.87522 7.59242C6.85717 7.57276 6.83971 7.55258 6.8222 7.53249C6.81154 7.52028 6.80084 7.50816 6.79038 7.49576C6.7735 7.47576 6.75706 7.45543 6.74071 7.43505C6.73001 7.42162 6.71936 7.40815 6.70885 7.39452C6.69343 7.37458 6.6782 7.35449 6.66327 7.33415C6.65174 7.31839 6.6405 7.30234 6.62926 7.28633C6.61603 7.26756 6.6027 7.24888 6.58996 7.22981C6.56928 7.19892 6.54919 7.16759 6.52969 7.13592C6.52253 7.12429 6.51563 7.11257 6.50862 7.10084C6.49048 7.07044 6.47272 7.03989 6.45565 7.00881C6.44937 6.99737 6.44343 6.98575 6.43726 6.97427C6.42188 6.94537 6.40685 6.91623 6.3924 6.8868C6.38725 6.87634 6.38224 6.86578 6.37723 6.85528C6.37645 6.85367 6.37572 6.85207 6.37499 6.85046C6.36151 6.82205 6.34862 6.79335 6.33602 6.7644C6.33004 6.75064 6.32396 6.73692 6.31822 6.7231C6.30411 6.68925 6.29064 6.6551 6.27774 6.62065C6.27079 6.60207 6.26437 6.58329 6.2578 6.56456C6.25104 6.54535 6.24452 6.52599 6.23815 6.50658C6.23129 6.48556 6.22438 6.46455 6.21796 6.44343C6.20837 6.41186 6.19933 6.3801 6.19081 6.34814C6.18483 6.32571 6.17943 6.30309 6.17393 6.28052C6.16965 6.26276 6.16552 6.24501 6.16158 6.22715C6.15671 6.20526 6.1518 6.18342 6.14742 6.16143C6.14066 6.12718 6.13448 6.09274 6.12893 6.05811C6.12592 6.03942 6.12329 6.0207 6.12062 6.00202C6.11668 5.97434 6.11312 5.94651 6.10996 5.91859C6.10841 5.90482 6.10661 5.89105 6.1052 5.87729C6.10116 5.83628 6.09809 5.79498 6.09576 5.75353C6.09508 5.74161 6.09454 5.72969 6.09401 5.71777C6.09201 5.67346 6.0906 5.62899 6.0906 5.58424C6.0906 5.53627 6.09196 5.48865 6.09425 5.44122C6.09488 5.42833 6.09595 5.41553 6.09668 5.40269C6.09882 5.36708 6.1014 5.33157 6.10481 5.29625C6.10597 5.28394 6.10738 5.27168 6.1087 5.25943C6.11288 5.22119 6.1176 5.18315 6.12324 5.14535C6.12431 5.138 6.12538 5.13061 6.12655 5.12326C6.29453 4.05012 7.03921 3.16577 8.03262 2.7983ZM2.29043 3.94227C2.29043 2.30502 3.62242 0.97298 5.25972 0.97298C6.1141 0.97298 6.92119 1.34488 7.47922 1.97165C6.18381 2.53439 5.28594 3.75119 5.13937 5.17269C5.13834 5.18232 5.13761 5.192 5.13669 5.20168C5.13183 5.25232 5.12798 5.30316 5.12506 5.35429C5.12419 5.36985 5.12322 5.38537 5.12249 5.40099C5.11971 5.46184 5.11782 5.5229 5.11782 5.58438C5.11782 5.64646 5.11962 5.70838 5.12253 5.77026C5.1237 5.79517 5.12574 5.81983 5.12735 5.84459C5.12973 5.8802 5.13217 5.91581 5.13547 5.95133C5.13839 5.9829 5.14199 6.01427 5.14569 6.04565C5.1489 6.07299 5.15231 6.10023 5.1561 6.12748C5.16106 6.16323 5.16641 6.19884 5.1723 6.2343C5.17585 6.25537 5.17974 6.27638 5.18359 6.2974C5.19088 6.33709 5.19833 6.37669 5.20679 6.41595C5.20961 6.42889 5.21282 6.44173 5.21574 6.45462C5.24877 6.60071 5.28978 6.74373 5.33862 6.8832C5.34174 6.8922 5.34446 6.9013 5.34762 6.91025C5.31829 6.91112 5.28891 6.91156 5.25962 6.91156C3.62242 6.91151 2.29043 5.57952 2.29043 3.94227ZM4.61598 10.1448C4.60527 10.1616 4.59506 10.1788 4.58455 10.1958C4.56232 10.2317 4.54028 10.2677 4.51898 10.304C4.50706 10.3243 4.49558 10.3447 4.484 10.3652C4.46483 10.3989 4.44591 10.4327 4.42752 10.4668C4.41594 10.4883 4.40456 10.5098 4.39327 10.5314C4.37557 10.5653 4.3583 10.5994 4.34137 10.6336C4.33071 10.6551 4.32011 10.6765 4.3098 10.6981C4.29257 10.7342 4.27599 10.7705 4.25959 10.8069C4.25069 10.8267 4.24154 10.8463 4.23293 10.8662C4.21396 10.9098 4.19587 10.9538 4.17811 10.9978C4.1729 11.0107 4.16736 11.0235 4.1623 11.0364C4.13978 11.0936 4.11823 11.1513 4.09779 11.2092C4.09312 11.2225 4.08894 11.2359 4.08432 11.2492C4.06895 11.2938 4.05396 11.3386 4.03981 11.3836C4.03334 11.4043 4.02735 11.4251 4.02113 11.4458C4.0097 11.484 3.99846 11.5221 3.9879 11.5606C3.98163 11.5834 3.97564 11.6063 3.96966 11.6293C3.96003 11.6662 3.95078 11.7032 3.94203 11.7403C3.93643 11.7638 3.93098 11.7873 3.92578 11.8108C3.91741 11.8484 3.90958 11.8862 3.90204 11.924C3.89752 11.9467 3.89285 11.9694 3.88861 11.9922C3.88098 12.0334 3.87412 12.0747 3.86745 12.1161C3.86434 12.1356 3.86088 12.1549 3.85797 12.1744C3.84892 12.2352 3.8407 12.2962 3.83379 12.3574C3.83369 12.3581 3.83364 12.3589 3.83359 12.3596C3.82732 12.4153 3.82192 12.4711 3.81739 12.5271H0.972932V11.3073C0.972932 9.64073 1.93098 8.14461 3.43192 7.43349C3.97871 7.72089 4.60026 7.88449 5.25967 7.88449C5.45036 7.88449 5.64164 7.87038 5.83146 7.84246C5.86104 7.88464 5.8911 7.92638 5.92224 7.96734C5.93274 7.9811 5.94364 7.99453 5.95434 8.00815C5.98509 8.04746 6.01627 8.08633 6.04847 8.12442C6.06166 8.14003 6.07518 8.15531 6.08861 8.17073C6.11877 8.20537 6.14941 8.23956 6.18074 8.27308C6.19719 8.29074 6.21392 8.30811 6.23065 8.32547C6.25931 8.355 6.28835 8.38409 6.31788 8.41275C6.32897 8.4235 6.33943 8.43488 6.35062 8.44553C6.30834 8.47107 6.26646 8.49724 6.22496 8.52395C6.2182 8.52828 6.21159 8.53285 6.20487 8.53723C6.16338 8.56418 6.12232 8.59172 6.08165 8.61979C6.06759 8.62951 6.05358 8.63934 6.03957 8.64917C6.00333 8.67471 5.96748 8.70068 5.93192 8.7271C5.92068 8.73547 5.9093 8.74364 5.89816 8.7521C5.85291 8.7863 5.80821 8.82113 5.76408 8.85674C5.75445 8.86453 5.74502 8.87255 5.73538 8.88043C5.70026 8.90918 5.66548 8.93842 5.63113 8.9681C5.6178 8.97958 5.60457 8.99115 5.59134 9.00278C5.55695 9.03309 5.52299 9.06383 5.48938 9.09501C5.48062 9.10314 5.47167 9.11112 5.46296 9.11934C5.42171 9.15816 5.38109 9.19771 5.34105 9.23794C5.33064 9.2484 5.32048 9.25905 5.31016 9.26956C5.27952 9.30084 5.24921 9.33246 5.21929 9.36452C5.20742 9.37726 5.19555 9.39001 5.18378 9.4029C5.15012 9.43967 5.11694 9.47694 5.0843 9.51474C5.07919 9.52067 5.07389 9.52641 5.06878 9.5324C5.03156 9.57584 4.99518 9.6201 4.95928 9.66481C4.94925 9.67727 4.93948 9.68991 4.9296 9.70251C4.9026 9.73681 4.87599 9.77144 4.84982 9.80642C4.8397 9.81995 4.82954 9.83337 4.81956 9.84699C4.78532 9.89369 4.75151 9.94078 4.71867 9.9887C4.6834 10.0402 4.64925 10.0923 4.61598 10.1448ZM4.77325 14.1692V13.5001V12.9494C4.77325 12.8954 4.77427 12.8416 4.77627 12.7879C4.7769 12.7703 4.77831 12.7528 4.77919 12.7351C4.78094 12.6993 4.78259 12.6635 4.78522 12.6278C4.78682 12.6062 4.78926 12.5847 4.7912 12.5631C4.79402 12.5317 4.79655 12.5002 4.80006 12.469C4.80263 12.4461 4.80599 12.4234 4.80891 12.4006C4.8127 12.3709 4.81626 12.3411 4.82063 12.3115C4.82418 12.288 4.82847 12.2646 4.83236 12.2412C4.83712 12.2127 4.84155 12.1841 4.8469 12.1557C4.85143 12.1317 4.85668 12.108 4.86159 12.0841C4.86724 12.0566 4.87264 12.0289 4.87881 12.0016C4.88426 11.9775 4.89049 11.9536 4.89633 11.9296C4.90289 11.9028 4.90917 11.8759 4.91622 11.8493C4.92265 11.8251 4.92975 11.8012 4.93656 11.7772C4.94395 11.7511 4.95115 11.7249 4.95903 11.699C4.96638 11.6748 4.97445 11.6509 4.98219 11.6269C4.99046 11.6015 4.99849 11.576 5.00719 11.5507C5.01546 11.5269 5.02436 11.5032 5.03302 11.4795C5.04217 11.4545 5.05112 11.4294 5.0607 11.4046C5.06985 11.381 5.07958 11.3577 5.08907 11.3342C5.09904 11.3097 5.10886 11.2851 5.11927 11.2609C5.12934 11.2375 5.13995 11.2143 5.15041 11.1911C5.16116 11.1673 5.17181 11.1433 5.183 11.1196C5.19395 11.0965 5.20543 11.0737 5.21676 11.0508C5.22834 11.0275 5.23977 11.0041 5.25174 10.9809C5.26356 10.9582 5.27587 10.9357 5.28808 10.9132C5.30043 10.8904 5.31264 10.8675 5.32539 10.845C5.33804 10.8226 5.35117 10.8006 5.36416 10.7784C5.3773 10.7561 5.39033 10.7338 5.40391 10.7117C5.41738 10.6898 5.43129 10.6682 5.44516 10.6465C5.45907 10.6248 5.47289 10.603 5.48719 10.5815C5.50149 10.56 5.51618 10.5388 5.53087 10.5176C5.54552 10.4964 5.56011 10.4753 5.57509 10.4543C5.59017 10.4333 5.60569 10.4126 5.62121 10.3918C5.63658 10.3713 5.65191 10.3507 5.66762 10.3304C5.68348 10.3099 5.69973 10.2897 5.71597 10.2695C5.73208 10.2494 5.74823 10.2295 5.76467 10.2097C5.78126 10.1899 5.79819 10.1702 5.81512 10.1507C5.832 10.1312 5.84892 10.1117 5.86619 10.0924C5.88346 10.0732 5.90112 10.0542 5.91873 10.0352C5.93634 10.0163 5.95395 9.99746 5.9719 9.97887C5.9899 9.96019 6.00824 9.9418 6.02663 9.92346C6.04497 9.90513 6.06341 9.88688 6.08209 9.86884C6.10072 9.85088 6.11964 9.83318 6.13866 9.81552C6.15773 9.79781 6.1769 9.78015 6.19631 9.76274C6.21567 9.74542 6.23523 9.72834 6.25493 9.71137C6.27468 9.69429 6.29458 9.67731 6.31467 9.66058C6.33466 9.64394 6.35485 9.62755 6.37518 9.61125C6.39566 9.59481 6.41629 9.57851 6.43711 9.56241C6.45769 9.54655 6.47846 9.53089 6.49933 9.51532C6.52054 9.49951 6.5419 9.4839 6.56349 9.46847C6.58461 9.45334 6.60591 9.43846 6.62737 9.42367C6.64936 9.40854 6.67144 9.39361 6.69372 9.37887C6.71537 9.36456 6.73721 9.35041 6.75915 9.33645C6.78187 9.322 6.80473 9.30775 6.82774 9.29374C6.84993 9.28021 6.87225 9.26683 6.89473 9.2537C6.91808 9.24003 6.94162 9.22655 6.96532 9.21327C6.98803 9.20053 7.0109 9.18793 7.03391 9.17557C7.05799 9.16263 7.08226 9.14994 7.10668 9.13739C7.12984 9.12547 7.15309 9.11374 7.17654 9.10221C7.19498 9.09317 7.21361 9.08441 7.23224 9.0756C7.77898 9.36301 8.40063 9.52656 9.05999 9.52656C9.71939 9.52656 10.341 9.36301 10.8877 9.0756C10.9062 9.08436 10.9247 9.09307 10.943 9.10202C10.9667 9.11369 10.9902 9.12556 11.0137 9.13758C11.0378 9.14998 11.0618 9.16254 11.0857 9.17533C11.1089 9.18783 11.132 9.20058 11.155 9.21347C11.1784 9.2266 11.2017 9.23988 11.2247 9.25341C11.2475 9.26674 11.2701 9.28031 11.2926 9.29403C11.3153 9.30789 11.3379 9.3219 11.3602 9.33615C11.3825 9.35031 11.4046 9.36461 11.4265 9.37916C11.4486 9.3937 11.4704 9.40849 11.4921 9.42343C11.5138 9.43836 11.5353 9.45339 11.5567 9.46867C11.578 9.48394 11.5991 9.49941 11.6202 9.51508C11.6413 9.53074 11.6622 9.54655 11.683 9.5626C11.7036 9.57856 11.7241 9.59471 11.7444 9.61101C11.7648 9.6274 11.7852 9.64389 11.8053 9.66063C11.8253 9.67727 11.8451 9.69415 11.8647 9.71112C11.8845 9.7282 11.9042 9.74537 11.9237 9.76283C11.9429 9.7801 11.962 9.79762 11.9809 9.81518C12 9.83298 12.0192 9.85088 12.038 9.86903C12.0565 9.88688 12.0748 9.90498 12.0929 9.92312C12.1114 9.94161 12.1299 9.96014 12.148 9.97892C12.1658 9.99741 12.1834 10.0161 12.2009 10.0349C12.2187 10.054 12.2364 10.0732 12.2538 10.0926C12.271 10.1116 12.2877 10.1309 12.3045 10.1503C12.3215 10.17 12.3386 10.1898 12.3553 10.2098C12.3717 10.2294 12.3877 10.2493 12.4037 10.2692C12.4201 10.2895 12.4364 10.3098 12.4524 10.3304C12.468 10.3506 12.4832 10.3711 12.4985 10.3916C12.5141 10.4124 12.5297 10.4333 12.5448 10.4544C12.5598 10.4752 12.5743 10.4963 12.5889 10.5173C12.6036 10.5387 12.6184 10.56 12.6327 10.5816C12.6469 10.6029 12.6607 10.6245 12.6745 10.6461C12.6884 10.668 12.7024 10.6897 12.716 10.7118C12.7294 10.7337 12.7424 10.7559 12.7554 10.7779C12.7686 10.8002 12.7818 10.8225 12.7945 10.845C12.8072 10.8675 12.8193 10.8902 12.8317 10.9129C12.8439 10.9355 12.8563 10.9581 12.8681 10.9809C12.8801 11.004 12.8914 11.0274 12.903 11.0507C12.9144 11.0736 12.9259 11.0964 12.9368 11.1196C12.948 11.1432 12.9586 11.1671 12.9693 11.191C12.9798 11.2143 12.9905 11.2374 13.0006 11.2609C13.0109 11.285 13.0206 11.3094 13.0305 11.3337C13.0402 11.3573 13.05 11.3809 13.0592 11.4047C13.0687 11.4294 13.0776 11.4543 13.0867 11.4792C13.0954 11.503 13.1043 11.5267 13.1126 11.5507C13.1213 11.576 13.1294 11.6017 13.1377 11.6272C13.1454 11.6511 13.1535 11.6749 13.1607 11.699C13.1687 11.7249 13.1758 11.7511 13.1833 11.7772C13.1901 11.8012 13.1972 11.8251 13.2036 11.8493C13.2107 11.8759 13.2169 11.9027 13.2235 11.9296C13.2294 11.9535 13.2356 11.9775 13.241 12.0016C13.2472 12.0289 13.2525 12.0565 13.2582 12.084C13.2632 12.1079 13.2684 12.1317 13.2729 12.1557C13.2782 12.1838 13.2826 12.2122 13.2874 12.2405C13.2913 12.2642 13.2957 12.2877 13.2992 12.3116C13.3036 12.3409 13.3071 12.3705 13.3109 12.4C13.3139 12.423 13.3173 12.4458 13.3199 12.4689C13.3234 12.5002 13.3259 12.5317 13.3287 12.5631C13.3307 12.5847 13.3331 12.6061 13.3347 12.6278C13.3374 12.6634 13.339 12.6993 13.3407 12.7352C13.3416 12.7528 13.343 12.7703 13.3437 12.7879C13.3457 12.8415 13.3467 12.8953 13.3467 12.9493V13.5V14.1692H4.77325ZM14.3028 12.5271C14.2933 12.4086 14.2796 12.2908 14.2622 12.1738C14.2594 12.1552 14.2561 12.1368 14.2531 12.1184C14.2463 12.076 14.2393 12.0337 14.2315 11.9916C14.2273 11.9694 14.2228 11.9473 14.2184 11.9252C14.2107 11.8867 14.2028 11.8483 14.1942 11.8101C14.1891 11.787 14.1837 11.764 14.1783 11.741C14.1694 11.7034 14.16 11.666 14.1503 11.6287C14.1444 11.6061 14.1385 11.5835 14.1323 11.561C14.1217 11.5221 14.1103 11.4835 14.0987 11.4449C14.0926 11.4246 14.0867 11.4042 14.0804 11.3839C14.066 11.3383 14.0508 11.2928 14.0352 11.2475C14.0308 11.2348 14.0269 11.222 14.0224 11.2094C14.0018 11.1513 13.9803 11.0935 13.9577 11.036C13.9528 11.0237 13.9475 11.0115 13.9425 10.9992C13.9246 10.9546 13.9062 10.9101 13.887 10.8659C13.8785 10.8463 13.8695 10.827 13.8607 10.8075C13.8442 10.7707 13.8275 10.7341 13.81 10.6977C13.7999 10.6764 13.7894 10.6552 13.7789 10.634C13.7618 10.5995 13.7444 10.5651 13.7265 10.5309C13.7153 10.5095 13.7041 10.4882 13.6926 10.4669C13.6741 10.4327 13.6551 10.3988 13.6359 10.3649C13.6243 10.3446 13.6129 10.3243 13.601 10.3041C13.5796 10.2675 13.5575 10.2314 13.5351 10.1953C13.5247 10.1785 13.5146 10.1615 13.504 10.1448C13.4707 10.0923 13.4365 10.0402 13.4012 9.9887C13.3683 9.94073 13.3345 9.89365 13.3003 9.84694C13.2903 9.83342 13.2802 9.82004 13.2702 9.80662C13.2439 9.77145 13.2172 9.73671 13.1901 9.70227C13.1803 9.68986 13.1706 9.67731 13.1607 9.66501C13.1248 9.62015 13.0882 9.57579 13.0509 9.53225C13.046 9.52661 13.041 9.52111 13.0362 9.51547C13.0033 9.47738 12.9698 9.43982 12.9359 9.40275C12.9242 9.39001 12.9125 9.37741 12.9007 9.36476C12.8707 9.33251 12.8402 9.30064 12.8093 9.26922C12.7992 9.25885 12.7892 9.2484 12.7789 9.23813C12.7388 9.19785 12.698 9.15816 12.6567 9.11924C12.6482 9.11121 12.6394 9.10343 12.6308 9.09545C12.597 9.06407 12.5629 9.03318 12.5283 9.00273C12.5152 8.99115 12.502 8.97967 12.4887 8.96819C12.4543 8.93847 12.4195 8.90923 12.3843 8.88043C12.3748 8.8726 12.3654 8.86458 12.3557 8.85679C12.3117 8.82118 12.267 8.78635 12.2218 8.7522C12.2105 8.74369 12.199 8.73542 12.1877 8.727C12.1523 8.70073 12.1166 8.67485 12.0805 8.64946C12.0663 8.63949 12.0522 8.62956 12.038 8.61974C11.9977 8.59196 11.9571 8.56472 11.916 8.53806C11.9088 8.53339 11.9018 8.52852 11.8946 8.5239C11.8531 8.49729 11.8114 8.47117 11.7692 8.44568C11.7801 8.43532 11.7903 8.42428 11.801 8.41377C11.8312 8.38458 11.8608 8.35491 11.89 8.32474C11.9063 8.30791 11.9225 8.29103 11.9385 8.27391C11.9703 8.23986 12.0014 8.20512 12.032 8.16995C12.045 8.15502 12.0581 8.14018 12.0709 8.125C12.1036 8.08638 12.1353 8.04692 12.1665 8.00698C12.1767 7.99395 12.1871 7.9811 12.1972 7.96792C12.2284 7.92681 12.2586 7.88488 12.2884 7.84256C12.4782 7.87043 12.6695 7.88454 12.8602 7.88454C13.5196 7.88454 14.1412 7.72099 14.6879 7.43354C16.1889 8.14465 17.1469 9.64078 17.1469 11.3073V12.5271H14.3028Z" fill="white"/>
</svg>
