<svg width="20" height="20" viewBox="0 0 20 20" fill="none" xmlns="http://www.w3.org/2000/svg">
<g clip-path="url(#clip0)">
<path d="M17.7741 3.90366L14.5115 1.1543C14.1802 0.875704 13.6857 0.919214 13.4071 1.25054C13.1285 1.58187 13.1721 2.07629 13.5034 2.35488L15.1209 3.72958H7.37225C4.91614 3.7323 2.92561 5.72283 2.92285 8.17898V9.58576C2.92285 10.0183 3.27384 10.3693 3.70641 10.3693C4.13898 10.3693 4.48997 10.0183 4.48997 9.58576V8.16523C4.49272 6.57427 5.78125 5.28571 7.37225 5.28295H15.1255L13.508 6.65765C13.1767 6.93624 13.1331 7.4307 13.4117 7.76199C13.6903 8.09328 14.1848 8.13683 14.5161 7.85823L17.7787 5.10883C18.11 4.83068 18.1535 4.33626 17.8754 4.00497C17.846 3.97014 17.8135 3.93761 17.7787 3.90829L17.7741 3.90366Z" fill="#3365FF"/>
<path d="M15.7072 10.374C15.2747 10.374 14.9237 10.725 14.9237 11.1576V12.5781C14.9209 14.1691 13.6324 15.4576 12.0414 15.4604H4.28813L5.90566 14.0857C6.28462 13.8763 6.42209 13.3997 6.21266 13.0207C6.00327 12.6418 5.52671 12.5043 5.14772 12.7137C5.06066 12.7619 4.98323 12.826 4.92043 12.9034L1.65783 15.6528C1.32654 15.931 1.28299 16.4254 1.56115 16.7567C1.59047 16.7915 1.62299 16.8241 1.65783 16.8534L4.92043 19.6028C5.25172 19.8814 5.74617 19.8378 6.02477 19.5065C6.30336 19.1752 6.25985 18.6808 5.92852 18.4022L4.31099 17.0275H12.0413C14.4974 17.0247 16.488 15.0342 16.4907 12.5781V11.1576C16.4908 10.7246 16.1398 10.374 15.7072 10.374Z" fill="#3365FF"/>
</g>
<defs>
<clipPath id="clip0">
<rect width="18.8155" height="18.8155" fill="white" transform="translate(0.310547 0.970703)"/>
</clipPath>
</defs>
</svg>
