<svg width="22" height="17" viewBox="0 0 22 17" fill="none" xmlns="http://www.w3.org/2000/svg">
<path d="M17.7252 5.67404C16.7533 1.80222 12.8267 -0.548596 8.95489 0.42332C5.92916 1.18287 3.73214 3.79796 3.50577 6.90932C1.35738 7.26361 -0.097045 9.29242 0.257249 11.4408C0.5722 13.3508 2.22716 14.7495 4.16286 14.7418H7.44831V13.4276H4.16286C2.71127 13.4276 1.53451 12.2509 1.53451 10.7993C1.53451 9.3477 2.71127 8.17093 4.16286 8.17093C4.52578 8.17093 4.81995 7.87676 4.81995 7.51384C4.81666 4.24774 7.46173 1.59737 10.7278 1.59413C13.5551 1.5913 15.9889 3.59008 16.5358 6.36394C16.5898 6.6409 16.8146 6.85248 17.0944 6.88961C18.8908 7.14542 20.1396 8.80905 19.8838 10.6054C19.6541 12.2185 18.2769 13.4195 16.6475 13.4276H14.0192V14.7418H16.6475C19.1879 14.7341 21.2409 12.6686 21.2332 10.1283C21.2268 8.01368 19.7794 6.17585 17.7252 5.67404Z" fill="#FFB600"/>
<path d="M10.267 8.3615L7.63867 10.9899L8.56517 11.9163L10.0765 10.4116V16.7131H11.3907V10.4116L12.8954 11.9163L13.8219 10.9899L11.1935 8.3615C10.9372 8.10671 10.5233 8.10671 10.267 8.3615Z" fill="#FFB600"/>
</svg>
