<svg width="474" height="448" viewBox="0 0 474 448" fill="none" xmlns="http://www.w3.org/2000/svg">
<path d="M462.941 236.142C438.706 215.868 410.69 234.843 410.69 234.843V128.113C410.69 124.529 407.234 121.621 402.969 121.621C398.7 121.621 395.243 124.529 395.243 128.113V243.976C395.243 243.976 358.407 268.379 342.574 274.343V82.1717C342.574 73.2383 351.221 65.9719 361.851 65.9719H375.966C386.597 65.9719 395.243 73.2383 395.243 82.1717V101.536C395.243 105.124 398.7 108.028 402.969 108.028C407.234 108.028 410.69 105.124 410.69 101.536V82.1717C410.69 66.0802 395.115 52.9912 375.966 52.9912H361.851C342.703 52.9912 327.123 66.0802 327.123 82.1717V279.49C322.516 280.575 317.789 281.312 312.984 281.701V144.837C312.984 128.664 297.329 115.508 278.088 115.508H264.315C245.074 115.508 229.418 128.664 229.418 144.837V210.982L215.275 217.291V195.279C215.275 180.719 201.18 168.874 183.858 168.874H163.129C145.803 168.874 131.712 180.719 131.712 195.279V254.566L106.488 265.816L35.6564 282.827C23.3321 285.786 13.0397 292.569 6.68235 301.921C0.321012 311.277 -1.40512 322.172 1.82182 332.596L9.74433 358.213C10.8146 361.682 15.0314 363.761 19.1636 362.862C23.2919 361.959 25.7704 358.416 24.6961 354.943L16.7736 329.33C12.1786 314.472 22.3383 299.527 39.9054 295.311L104.666 279.757L153.339 388.925C156.598 396.235 156.083 417.091 130.336 424.777L81.397 434.119C64.3408 437.372 47.5342 428.78 43.1323 414.552L33.198 382.426C32.1237 378.957 27.9069 376.874 23.7787 377.773C19.6465 378.676 17.1719 382.22 18.2422 385.692L28.1806 417.821C33.7653 435.871 52.8453 447.796 74.086 447.796C89.6937 447.796 133.76 437.436 133.76 437.436C147.171 434.88 158.606 427.576 165.128 417.405C170.512 409.013 172.109 399.356 169.8 390.156L339.114 355.322C353.116 352.437 366.41 346.848 377.547 339.156L459.943 282.262C485.063 263.54 470.328 242.319 462.941 236.142ZM264.315 128.492H278.088C288.811 128.492 297.534 135.826 297.534 144.837V282.026L248.788 282.009C244.309 281.975 247.407 279.49 247.653 279.321L261.691 269.765C274.788 260.849 283.342 248.453 287.113 232.916C289.507 223.06 285.032 213.193 275.444 207.167C266.488 201.541 254.968 200.459 244.869 204.178V144.837C244.869 135.826 253.592 128.492 264.315 128.492ZM147.163 195.279C147.163 187.881 154.325 181.859 163.129 181.859H183.858C192.662 181.859 199.828 187.881 199.828 195.279V224.182L147.159 247.675V195.279H147.163ZM450.138 272.233L367.738 329.127C358.379 335.592 347.209 340.289 335.44 342.71L164.879 377.804L119.01 274.935L249.979 216.513C255.302 214.136 261.365 214.532 266.19 217.565C271.014 220.598 273.179 225.366 271.976 230.323C268.938 242.83 262.206 252.707 251.966 259.675L237.928 269.234C232.174 273.15 230.054 279.469 232.524 285.336C234.995 291.199 241.376 294.993 248.78 294.993L305.066 295.013H305.106C325.144 295.013 344.401 289.894 360.793 280.207L423.698 243.033C432.506 237.826 444.364 238.745 451.888 245.217C456.221 248.936 464.703 259.99 450.138 272.233V272.233Z" fill="white"/>
<path d="M120.013 179.207L232.886 95.7596L258.275 105.394C267.371 108.844 278.44 107.663 285.816 102.453L347.256 59.0633C347.256 59.0633 345.565 81.3487 371.145 81.3487C384.313 81.3487 395.03 73.4861 395.03 63.8225V17.869C395.03 17.8156 395.026 17.7592 395.026 17.7029C394.941 5.71307 382.99 0.345703 371.145 0.345703H309.054C295.882 0.345703 285.169 8.20835 285.169 17.869C285.169 37.131 311.889 35.3923 311.889 35.3923L265.017 68.4926L239.26 58.7192C229.946 55.1824 218.723 56.479 211.331 61.9384L86.1063 154.519C76.829 161.379 76.8856 172.496 86.2358 179.302C90.741 182.581 106.125 189.396 120.013 179.207ZM97.1267 162.545L222.351 69.9642C223.969 68.7715 226.565 66.6827 232.126 68.8397L262.825 80.4883C265.781 81.6098 269.381 81.2271 271.779 79.5329L336.535 33.802C338.815 32.1909 339.535 29.7223 338.35 27.5683C337.165 25.4112 334.318 24.0019 331.148 24.0019H309.054C304.448 24.0019 300.699 21.2514 300.699 17.869C300.699 14.4896 304.448 11.7391 309.054 11.7391H371.145C373.43 11.7391 379.496 11.7391 379.496 17.8334C379.496 17.8838 379.5 17.9343 379.5 17.9877V63.8225C379.5 67.2019 375.751 69.9523 371.145 69.9523C366.534 69.9523 362.785 67.2019 362.785 63.8225V45.6731C362.785 43.3885 360.925 41.3234 358.062 40.4303C355.198 39.5343 351.882 39.9853 349.638 41.5697L275.047 94.2464C272.467 96.0682 268.592 96.4836 265.413 95.276L234.961 83.7194C231.948 82.5771 228.272 83.0014 225.882 84.7668L108.992 171.182C103.897 174.92 98.7485 172.363 97.1712 171.214C93.9035 168.832 93.8833 164.942 97.1267 162.545V162.545Z" fill="white"/>
</svg>
