<svg width="40" height="40" viewBox="0 0 40 40" fill="none" xmlns="http://www.w3.org/2000/svg">
<g opacity="0.15">
<path d="M40 20C40 31.0457 31.0457 40 20 40C8.9543 40 0 31.0457 0 20C0 8.9543 8.9543 0 20 0C31.0457 0 40 8.9543 40 20Z" fill="#0055C7"/>
</g>
<g clip-path="url(#clip0)">
<path d="M27.7784 14.65L24.8306 12.1659C24.5313 11.9142 24.0845 11.9535 23.8328 12.2528C23.5811 12.5522 23.6204 12.9989 23.9198 13.2506L25.3812 14.4927H18.3802C16.1611 14.4951 14.3627 16.2936 14.3602 18.5127V19.7838C14.3602 20.1746 14.6773 20.4917 15.0681 20.4917C15.459 20.4917 15.7761 20.1746 15.7761 19.7838V18.5003C15.7786 17.0629 16.9428 15.8986 18.3802 15.8962H25.3854L23.9239 17.1382C23.6246 17.3899 23.5853 17.8367 23.837 18.136C24.0887 18.4353 24.5354 18.4747 24.8347 18.2229L27.7825 15.7388C28.0819 15.4875 28.1212 15.0408 27.8699 14.7415C27.8434 14.71 27.814 14.6806 27.7825 14.6541L27.7784 14.65Z" fill="#3365FF"/>
<path d="M25.9112 20.4961C25.5204 20.4961 25.2032 20.8132 25.2032 21.204V22.4875C25.2007 23.925 24.0366 25.0892 22.5991 25.0917H15.5939L17.0554 23.8496C17.3978 23.6604 17.522 23.2299 17.3328 22.8874C17.1436 22.545 16.713 22.4208 16.3706 22.6101C16.2919 22.6535 16.222 22.7115 16.1652 22.7814L13.2174 25.2656C12.9181 25.5169 12.8788 25.9636 13.1301 26.2629C13.1566 26.2944 13.186 26.3238 13.2174 26.3503L16.1652 28.8343C16.4645 29.086 16.9113 29.0467 17.163 28.7474C17.4147 28.448 17.3754 28.0013 17.076 27.7496L15.6146 26.5075H22.599C24.8181 26.5051 26.6166 24.7066 26.6191 22.4875V21.2041C26.6192 20.8128 26.302 20.4961 25.9112 20.4961Z" fill="#3365FF"/>
</g>
<defs>
<clipPath id="clip0">
<rect width="17" height="17" fill="white" transform="translate(12 12)"/>
</clipPath>
</defs>
</svg>
