<svg width="12" height="12" viewBox="0 0 12 12" fill="none" xmlns="http://www.w3.org/2000/svg">
<path d="M11.3469 7.94049C11.2248 7.81818 11.0762 7.75708 10.9015 7.75708H8.10448C8.01284 8.00159 7.85887 8.20244 7.64271 8.35962C7.42647 8.51683 7.18527 8.59548 6.91894 8.59548H5.24185C4.9755 8.59548 4.7342 8.51681 4.5181 8.35962C4.3019 8.20244 4.14802 8.00161 4.05631 7.75708H1.25921C1.08456 7.75708 0.936095 7.81818 0.813782 7.94049C0.691493 8.06267 0.630371 8.21113 0.630371 8.38585V10.482C0.630371 10.6566 0.691493 10.8053 0.813782 10.9273C0.936072 11.0496 1.08454 11.1107 1.25921 11.1107H10.9016C11.0762 11.1107 11.2248 11.0496 11.347 10.9273C11.4693 10.8051 11.5304 10.6566 11.5304 10.482V8.38585C11.5304 8.21113 11.4693 8.06283 11.3469 7.94049ZM8.89064 10.1479C8.80756 10.2309 8.70927 10.2725 8.59572 10.2725C8.48218 10.2725 8.38402 10.2309 8.30097 10.1479C8.21805 10.065 8.17659 9.96671 8.17659 9.85316C8.17659 9.73961 8.21805 9.64125 8.30097 9.5584C8.38402 9.47551 8.48218 9.43387 8.59572 9.43387C8.70927 9.43387 8.80754 9.47549 8.89064 9.5584C8.97354 9.64123 9.01502 9.73961 9.01502 9.85316C9.01502 9.96671 8.97354 10.065 8.89064 10.1479ZM10.5675 10.1479C10.4845 10.2309 10.3862 10.2725 10.2727 10.2725C10.1591 10.2725 10.0609 10.2309 9.97791 10.1479C9.89502 10.065 9.85356 9.96671 9.85356 9.85316C9.85356 9.73961 9.89502 9.64125 9.97791 9.5584C10.0609 9.47551 10.1591 9.43387 10.2727 9.43387C10.3862 9.43387 10.4845 9.47549 10.5675 9.5584C10.6504 9.64123 10.692 9.73961 10.692 9.85316C10.692 9.96671 10.6505 10.065 10.5675 10.1479Z" fill="black"/>
<path d="M3.14563 4.40329H4.82255V7.33799C4.82255 7.45151 4.86406 7.5498 4.947 7.63274C5.02999 7.71564 5.12825 7.75726 5.24176 7.75726H6.91884C7.03237 7.75726 7.13054 7.71566 7.2136 7.63274C7.29652 7.54983 7.33798 7.45153 7.33798 7.33799V4.40329H9.01495C9.19843 4.40329 9.32728 4.3159 9.40141 4.14128C9.47568 3.97099 9.44505 3.8203 9.3097 3.68927L6.37501 0.754619C6.29634 0.671632 6.19821 0.630127 6.08025 0.630127C5.96241 0.630127 5.86415 0.671632 5.7855 0.754619L2.8509 3.68927C2.71548 3.8203 2.68494 3.9709 2.75914 4.14128C2.83346 4.31599 2.96226 4.40329 3.14563 4.40329Z" fill="black"/>
</svg>
