<svg width="40" height="40" viewBox="0 0 40 40" fill="none" xmlns="http://www.w3.org/2000/svg">
<path d="M40 20C40 31.0457 31.0457 40 20 40C8.9543 40 0 31.0457 0 20C0 8.9543 8.9543 0 20 0C31.0457 0 40 8.9543 40 20Z" fill="#FBC918" fill-opacity="0.2"/>
<path d="M26.8304 17.9421C25.9523 14.4439 22.4046 12.3199 18.9064 13.1981C16.1726 13.8843 14.1876 16.2471 13.9831 19.0582C12.042 19.3783 10.7279 21.2114 11.048 23.1525C11.3326 24.8781 12.8279 26.1419 14.5768 26.135H17.5452V24.9476H14.5768C13.2652 24.9476 12.202 23.8844 12.202 22.5728C12.202 21.2613 13.2652 20.1981 14.5768 20.1981C14.9047 20.1981 15.1705 19.9323 15.1705 19.6044C15.1675 16.6535 17.5573 14.2588 20.5083 14.2559C23.0628 14.2533 25.2617 16.0593 25.7559 18.5655C25.8047 18.8157 26.0077 19.0069 26.2605 19.0404C27.8836 19.2715 29.0119 20.7746 28.7808 22.3977C28.5733 23.8551 27.3289 24.9402 25.8568 24.9476H23.4821V26.135H25.8568C28.152 26.128 30.007 24.2618 30 21.9666C29.9942 20.056 28.6865 18.3955 26.8304 17.9421Z" fill="#FFB600"/>
<path d="M20.0922 20.3704L17.7174 22.7451L18.5545 23.5822L19.92 22.2227V27.9161H21.1074V22.2227L22.4669 23.5822L23.304 22.7451L20.9292 20.3704C20.6977 20.1402 20.3237 20.1402 20.0922 20.3704Z" fill="#FFB600"/>
</svg>
