<svg width="50" height="40" viewBox="0 0 50 40" fill="none" xmlns="http://www.w3.org/2000/svg">
<path d="M41.659 13.3791C39.3481 4.17331 30.0122 -1.41612 20.8063 0.894761C13.6122 2.70072 8.38845 8.91849 7.85023 16.3162C2.7421 17.1586 -0.716022 21.9824 0.126366 27.0905C0.87521 31.6317 4.81013 34.9574 9.41256 34.9392H17.2242V31.8145H9.41256C5.96118 31.8145 3.16324 29.0166 3.16324 25.5652C3.16324 22.1138 5.96118 19.3159 9.41256 19.3159C10.2755 19.3159 10.9749 18.6165 10.9749 17.7536C10.9671 9.98791 17.2561 3.68625 25.0218 3.67854C31.7441 3.6718 37.5309 8.42421 38.8312 15.0195C38.9596 15.678 39.494 16.1811 40.1592 16.2693C44.4304 16.8776 47.3997 20.8331 46.7916 25.1042C46.2454 28.9395 42.9708 31.7952 39.0968 31.8145H32.8475V34.9392H39.0968C45.1368 34.9209 50.0183 30.0097 49.9999 23.9698C49.9847 18.942 46.5433 14.5723 41.659 13.3791Z" fill="#E1E1E1"/>
<path d="M23.9266 19.769L17.6772 26.0184L19.8801 28.2212L23.4735 24.6435V39.6262H26.5981V24.6435L30.1759 28.2212L32.3788 26.0184L26.1294 19.769C25.52 19.1632 24.536 19.1632 23.9266 19.769Z" fill="#E1E1E1"/>
</svg>
