<svg width="40" height="40" viewBox="0 0 40 40" fill="none" xmlns="http://www.w3.org/2000/svg">
<path d="M40 20C40 31.0457 31.0457 40 20 40C8.9543 40 0 31.0457 0 20C0 8.9543 8.9543 0 20 0C31.0457 0 40 8.9543 40 20Z" fill="#F2F2F2"/>
<g clip-path="url(#clip0)">
<path d="M22.8871 10.1155C22.7954 10.0189 22.6697 9.96094 22.5394 9.96094H14.7374C13.2977 9.96094 12.1094 11.1446 12.1094 12.5841V27.3377C12.1094 28.7773 13.2977 29.961 14.7374 29.961H25.3267C26.7664 29.961 27.9547 28.7773 27.9547 27.3377V15.6227C27.9547 15.4971 27.8968 15.3764 27.8147 15.2846L22.8871 10.1155ZM23.0272 11.6663L26.3268 15.13H24.1818C23.5442 15.13 23.0272 14.6179 23.0272 13.9803V11.6663ZM25.3267 28.9948H14.7374C13.8341 28.9948 13.0756 28.246 13.0756 27.3377V12.5841C13.0756 11.6808 13.8292 10.9271 14.7374 10.9271H22.061V13.9803C22.061 15.1541 23.008 16.0962 24.1818 16.0962H26.9886V27.3377C26.9886 28.246 26.2349 28.9948 25.3267 28.9948Z" fill="black"/>
<path d="M24.008 25.6616H16.0563C15.7907 25.6616 15.5732 25.8789 15.5732 26.1447C15.5732 26.4104 15.7907 26.6278 16.0563 26.6278H24.0129C24.2786 26.6278 24.496 26.4104 24.496 26.1447C24.496 25.8789 24.2786 25.6616 24.008 25.6616Z" fill="black"/>
<path d="M17.5583 20.4635L19.5487 18.3233V23.5988C19.5487 23.8644 19.7661 24.0819 20.0318 24.0819C20.2976 24.0819 20.5149 23.8644 20.5149 23.5988V18.3233L22.5052 20.4635C22.6018 20.5649 22.7276 20.6181 22.8579 20.6181C22.9738 20.6181 23.0947 20.5746 23.1864 20.4876C23.3797 20.3041 23.3942 19.9997 23.2107 19.8065L20.3797 16.7679C20.2878 16.6713 20.1623 16.6133 20.0271 16.6133C19.8917 16.6133 19.7661 16.6713 19.6744 16.7679L16.8435 19.8065C16.6599 19.9997 16.6744 20.3088 16.8676 20.4876C17.0705 20.6712 17.3748 20.6567 17.5583 20.4635Z" fill="black"/>
</g>
<defs>
<clipPath id="clip0">
<rect width="20" height="20" fill="white" transform="translate(10 10)"/>
</clipPath>
</defs>
</svg>
